<?xml version="1.0" encoding="UTF-8"?>
<!-- Generator: visioncortex VTracer 0.6.3 -->
<svg version="1.1" xmlns="http://www.w3.org/2000/svg" width="1280" height="1280">
<path d="M0 0 C2.37 -0 4.74 -0.01 7.11 -0.02 C12.9 -0.03 18.69 -0.03 24.49 -0.03 C31.44 -0.02 38.39 -0.04 45.33 -0.05 C59.74 -0.07 74.14 -0.08 88.54 -0.07 C99.66 -0.07 110.78 -0.08 121.9 -0.08 C123.5 -0.09 125.1 -0.09 126.7 -0.09 C127.49 -0.09 128.29 -0.09 129.1 -0.09 C129.9 -0.09 130.7 -0.09 131.52 -0.09 C132.31 -0.09 133.11 -0.09 133.93 -0.09 C156.34 -0.11 178.74 -0.12 201.14 -0.11 C202.41 -0.11 202.41 -0.11 203.7 -0.11 C207.97 -0.11 212.25 -0.11 216.52 -0.11 C217.37 -0.11 218.22 -0.11 219.1 -0.11 C220.81 -0.11 222.53 -0.11 224.25 -0.11 C250.97 -0.1 277.7 -0.12 304.43 -0.15 C334.49 -0.18 364.55 -0.2 394.6 -0.2 C397.81 -0.2 401.01 -0.2 404.22 -0.2 C405.4 -0.2 405.4 -0.2 406.61 -0.2 C418.51 -0.2 430.41 -0.21 442.32 -0.23 C455.85 -0.25 469.39 -0.25 482.92 -0.23 C489.83 -0.22 496.73 -0.22 503.63 -0.24 C509.96 -0.26 516.28 -0.26 522.6 -0.23 C524.88 -0.23 527.17 -0.23 529.45 -0.25 C545.41 -0.34 558.19 0.29 570.2 12.07 C573.11 15.31 575.41 18.47 577.29 22.39 C577.77 23.37 577.77 23.37 578.25 24.37 C581.68 32.78 581.83 43.27 578.66 51.77 C573.38 62.93 566.08 71.66 554.24 75.95 C549.22 77.59 544.64 77.81 539.39 77.77 C537.95 77.78 537.95 77.78 536.48 77.79 C533.26 77.8 530.05 77.79 526.83 77.78 C524.5 77.78 522.17 77.79 519.84 77.8 C514.11 77.81 508.38 77.81 502.65 77.8 C495.79 77.79 488.92 77.8 482.06 77.81 C469.38 77.83 456.71 77.84 444.04 77.84 C431.49 77.83 418.93 77.84 406.38 77.85 C405.21 77.85 405.21 77.85 404.01 77.86 C400.05 77.86 396.08 77.87 392.11 77.87 C384.05 77.88 375.98 77.89 367.91 77.9 C367.11 77.9 366.3 77.9 365.47 77.9 C346.25 77.92 327.04 77.93 307.82 77.94 C306.98 77.94 306.14 77.94 305.27 77.94 C298.46 77.94 291.65 77.95 284.84 77.95 C265.23 77.96 245.63 77.97 226.02 77.98 C224.76 77.98 224.76 77.98 223.47 77.98 C204.3 77.99 185.12 78.01 165.94 78.03 C164.73 78.03 164.73 78.03 163.5 78.03 C155.45 78.04 147.4 78.05 139.35 78.06 C122.06 78.08 104.77 78.09 87.48 78.09 C74.88 78.09 62.28 78.1 49.68 78.11 C42.85 78.12 36.02 78.12 29.2 78.12 C22.95 78.11 16.7 78.12 10.45 78.13 C8.19 78.13 5.93 78.13 3.67 78.13 C0.59 78.12 -2.48 78.13 -5.56 78.14 C-6.43 78.14 -7.31 78.13 -8.21 78.13 C-17.97 78.19 -26.62 79.75 -35.21 84.46 C-42.56 88.34 -42.56 88.34 -45.71 89.39 C-45.71 90.05 -45.71 90.71 -45.71 91.39 C-47.39 93.02 -47.39 93.02 -49.59 94.83 C-52.17 96.98 -53.82 98.56 -55.71 101.39 C-56.37 101.39 -57.03 101.39 -57.71 101.39 C-57.99 102.11 -58.27 102.84 -58.55 103.58 C-59.66 106.28 -60.89 108.85 -62.21 111.46 C-62.63 112.29 -63.06 113.13 -63.49 113.99 C-64.21 115.42 -64.95 116.84 -65.72 118.24 C-69.55 126.56 -69 136.5 -68.96 145.44 C-68.97 146.84 -68.97 148.24 -68.97 149.64 C-68.98 153.47 -68.98 157.31 -68.97 161.14 C-68.97 165.32 -68.98 169.49 -68.98 173.66 C-68.99 180.98 -68.99 188.29 -68.99 195.61 C-68.98 206.48 -68.99 217.36 -69 228.23 C-69.01 248.78 -69.01 269.34 -69.01 289.89 C-69.01 305.76 -69.01 321.63 -69.02 337.5 C-69.02 339.78 -69.02 342.06 -69.02 344.34 C-69.02 347.77 -69.02 351.21 -69.02 354.64 C-69.03 386.58 -69.03 418.52 -69.03 450.46 C-69.03 452.27 -69.03 452.27 -69.03 454.11 C-69.03 460.22 -69.03 466.32 -69.03 472.42 C-69.03 473.63 -69.03 474.85 -69.03 476.09 C-69.03 478.55 -69.03 481 -69.03 483.45 C-69.02 521.59 -69.03 559.74 -69.05 597.89 C-69.07 640.74 -69.08 683.6 -69.07 726.45 C-69.07 731.02 -69.07 735.59 -69.07 740.16 C-69.07 741.84 -69.07 741.84 -69.07 743.56 C-69.07 760.55 -69.08 777.54 -69.09 794.53 C-69.1 813.84 -69.1 833.16 -69.09 852.48 C-69.08 863.29 -69.08 874.1 -69.1 884.91 C-69.11 892.13 -69.1 899.35 -69.09 906.57 C-69.09 910.69 -69.08 914.8 -69.1 918.92 C-69.11 922.66 -69.1 926.41 -69.09 930.16 C-69.09 932.13 -69.1 934.1 -69.11 936.08 C-69.02 949.9 -65.68 963 -57.71 974.39 C-57.71 975.05 -57.71 975.71 -57.71 976.39 C-57.05 976.39 -56.39 976.39 -55.71 976.39 C-54.09 978.07 -54.09 978.07 -52.27 980.27 C-50.13 982.86 -48.54 984.51 -45.71 986.39 C-45.71 987.05 -45.71 987.71 -45.71 988.39 C-44.99 988.67 -44.27 988.95 -43.52 989.24 C-39.98 990.69 -36.62 992.43 -33.21 994.18 C-22.99 999.16 -13.03 999.69 -1.79 999.65 C-0.39 999.65 1.01 999.65 2.41 999.66 C6.24 999.67 10.08 999.66 13.91 999.66 C18.09 999.65 22.26 999.66 26.44 999.67 C33.75 999.68 41.07 999.68 48.38 999.67 C59.26 999.67 70.14 999.67 81.01 999.68 C101.57 999.7 122.13 999.7 142.68 999.7 C158.55 999.69 174.43 999.7 190.3 999.7 C192.58 999.7 194.86 999.7 197.14 999.7 C200.57 999.7 204.01 999.7 207.45 999.71 C239.39 999.71 271.33 999.72 303.28 999.71 C304.48 999.71 305.69 999.71 306.93 999.71 C313.03 999.71 319.14 999.71 325.24 999.71 C326.45 999.71 327.67 999.71 328.91 999.71 C331.37 999.71 333.82 999.71 336.27 999.71 C374.42 999.7 412.58 999.71 450.73 999.73 C493.59 999.75 536.45 999.76 579.31 999.76 C583.87 999.76 588.44 999.76 593.01 999.76 C594.14 999.76 595.26 999.76 596.42 999.76 C613.41 999.76 630.4 999.76 647.39 999.77 C666.71 999.78 686.03 999.79 705.35 999.77 C716.16 999.77 726.98 999.77 737.79 999.78 C745.01 999.79 752.24 999.79 759.46 999.78 C763.57 999.77 767.69 999.77 771.8 999.78 C775.55 999.79 779.3 999.79 783.05 999.77 C785.02 999.77 787 999.78 788.97 999.79 C802.8 999.71 815.9 996.37 827.29 988.39 C827.95 988.39 828.61 988.39 829.29 988.39 C829.29 987.73 829.29 987.07 829.29 986.39 C830.97 984.77 830.97 984.77 833.16 982.96 C835.75 980.81 837.4 979.23 839.29 976.39 C839.95 976.39 840.61 976.39 841.29 976.39 C841.57 975.67 841.85 974.95 842.13 974.21 C843.59 970.66 845.33 967.3 847.07 963.89 C851.4 955.01 852.59 946.18 852.54 936.37 C852.54 935.41 852.55 934.44 852.55 933.45 C852.56 930.24 852.55 927.02 852.54 923.81 C852.54 921.48 852.55 919.15 852.55 916.81 C852.56 911.08 852.56 905.35 852.55 899.62 C852.54 892.76 852.55 885.89 852.55 879.03 C852.56 866.35 852.57 853.68 852.56 841.01 C852.56 822.9 852.57 804.79 852.59 786.69 C852.6 779.42 852.6 772.15 852.61 764.88 C852.61 764.07 852.61 763.27 852.61 762.43 C852.63 743.22 852.64 724.01 852.65 704.8 C852.65 703.95 852.65 703.11 852.65 702.25 C852.66 682.64 852.67 663.02 852.67 643.41 C852.67 642.15 852.67 642.15 852.67 640.85 C852.67 636.6 852.67 632.34 852.67 628.09 C852.67 627.25 852.67 626.41 852.67 625.54 C852.67 623.84 852.67 622.15 852.67 620.45 C852.67 592.4 852.69 564.36 852.72 536.32 C852.73 532.36 852.73 528.4 852.74 524.44 C852.74 523.66 852.74 522.88 852.74 522.07 C852.75 509.53 852.75 496.99 852.74 484.45 C852.73 471.85 852.74 459.25 852.76 446.65 C852.77 439.82 852.78 433 852.76 426.17 C852.75 419.92 852.76 413.67 852.78 407.42 C852.78 405.16 852.78 402.9 852.77 400.64 C852.76 397.57 852.77 394.49 852.79 391.42 C852.77 390.1 852.77 390.1 852.76 388.76 C852.89 377.88 857.91 368.51 865 360.45 C872.37 353.27 881.62 350.16 891.79 349.77 C903.24 350.23 912.03 354.06 920.2 362.07 C927.94 370.67 930.76 379.96 930.67 391.4 C930.67 392.86 930.67 392.86 930.68 394.35 C930.69 397.61 930.68 400.86 930.67 404.12 C930.67 406.47 930.68 408.83 930.68 411.19 C930.7 416.99 930.69 422.79 930.68 428.6 C930.68 435.55 930.68 442.5 930.69 449.45 C930.71 463.07 930.71 476.69 930.7 490.31 C930.69 502.24 930.69 514.16 930.69 526.09 C930.69 526.88 930.69 527.67 930.69 528.48 C930.69 531.7 930.69 534.91 930.69 538.12 C930.7 568.26 930.7 598.4 930.68 628.53 C930.67 655.29 930.67 682.04 930.68 708.79 C930.7 738.86 930.7 768.93 930.69 799.01 C930.69 802.21 930.69 805.42 930.69 808.63 C930.69 809.82 930.69 809.82 930.69 811.03 C930.69 822.94 930.69 834.85 930.7 846.75 C930.71 860.31 930.71 873.86 930.69 887.42 C930.68 894.33 930.68 901.24 930.69 908.15 C930.7 914.49 930.69 920.82 930.68 927.16 C930.67 929.44 930.67 931.73 930.68 934.01 C930.74 953.14 929.05 970.7 921.29 988.39 C920.93 989.52 920.93 989.52 920.56 990.67 C916.4 1003.61 908.29 1017.18 899.29 1027.39 C898.63 1027.39 897.97 1027.39 897.29 1027.39 C897.06 1027.93 896.84 1028.47 896.6 1029.02 C893.55 1034.55 889.28 1038.63 884.29 1042.39 C883.63 1042.39 882.97 1042.39 882.29 1042.39 C882.29 1043.05 882.29 1043.71 882.29 1044.39 C881.63 1044.39 880.97 1044.39 880.29 1044.39 C880.29 1045.05 880.29 1045.71 880.29 1046.39 C877.91 1048.22 875.53 1049.91 873.04 1051.58 C872.31 1052.07 871.58 1052.57 870.83 1053.07 C861.72 1059.19 852.66 1064.66 842.29 1068.39 C841.36 1068.74 840.43 1069.09 839.47 1069.45 C834.46 1071.32 829.47 1073.07 824.29 1074.39 C823.62 1074.56 822.96 1074.73 822.27 1074.91 C814.81 1076.61 807.52 1076.68 799.9 1076.65 C798.45 1076.65 797 1076.65 795.55 1076.66 C791.57 1076.67 787.59 1076.66 783.62 1076.66 C779.29 1076.65 774.96 1076.66 770.63 1076.67 C763.05 1076.68 755.46 1076.68 747.88 1076.67 C736.6 1076.67 725.32 1076.67 714.04 1076.68 C692.72 1076.7 671.41 1076.7 650.09 1076.7 C633.63 1076.69 617.17 1076.7 600.71 1076.7 C598.35 1076.7 595.99 1076.7 593.62 1076.7 C590.06 1076.7 586.5 1076.7 582.94 1076.71 C549.81 1076.71 516.69 1076.72 483.57 1076.71 C482.32 1076.71 481.07 1076.71 479.78 1076.71 C473.45 1076.71 467.12 1076.71 460.79 1076.71 C459.54 1076.71 458.28 1076.71 456.98 1076.71 C454.44 1076.71 451.9 1076.71 449.36 1076.71 C409.79 1076.7 370.23 1076.71 330.67 1076.73 C286.23 1076.75 241.79 1076.76 197.35 1076.76 C192.61 1076.76 187.87 1076.76 183.13 1076.76 C181.97 1076.76 180.8 1076.76 179.6 1076.76 C161.98 1076.76 144.36 1076.76 126.74 1076.77 C106.71 1076.78 86.68 1076.79 66.64 1076.77 C55.43 1076.77 44.22 1076.77 33 1076.78 C25.51 1076.79 18.03 1076.79 10.54 1076.78 C6.27 1076.77 2 1076.77 -2.27 1076.78 C-6.15 1076.79 -10.04 1076.79 -13.93 1076.77 C-15.32 1076.77 -16.71 1076.77 -18.11 1076.78 C-26.78 1076.83 -34.4 1075.87 -42.71 1073.39 C-44.03 1073.05 -45.34 1072.71 -46.66 1072.37 C-53.12 1070.58 -58.82 1068.56 -64.71 1065.39 C-66.03 1065.03 -67.37 1064.68 -68.71 1064.39 C-68.71 1063.73 -68.71 1063.07 -68.71 1062.39 C-69.37 1062.33 -70.04 1062.26 -70.72 1062.19 C-74.85 1061.09 -78.01 1058.95 -81.59 1056.64 C-82.27 1056.21 -82.95 1055.78 -83.65 1055.34 C-88.11 1052.5 -92.52 1049.61 -96.71 1046.39 C-96.71 1045.73 -96.71 1045.07 -96.71 1044.39 C-97.37 1044.39 -98.03 1044.39 -98.71 1044.39 C-98.71 1043.73 -98.71 1043.07 -98.71 1042.39 C-99.27 1042.16 -99.83 1041.92 -100.41 1041.68 C-103.23 1040.1 -105.19 1038.18 -107.46 1035.89 C-108.26 1035.1 -109.06 1034.31 -109.88 1033.49 C-111.71 1031.39 -111.71 1031.39 -111.71 1029.39 C-112.37 1029.39 -113.03 1029.39 -113.71 1029.39 C-113.71 1028.73 -113.71 1028.07 -113.71 1027.39 C-114.37 1027.39 -115.03 1027.39 -115.71 1027.39 C-117.53 1025.01 -119.23 1022.63 -120.9 1020.14 C-121.64 1019.05 -121.64 1019.05 -122.39 1017.94 C-128.16 1009.32 -133.49 1000.94 -136.81 991.06 C-137.72 988.37 -138.75 985.77 -139.84 983.14 C-141.39 979.27 -142.7 975.45 -143.71 971.39 C-143.88 970.73 -144.05 970.06 -144.22 969.37 C-145.93 961.91 -145.99 954.62 -145.96 947 C-145.97 945.55 -145.97 944.1 -145.97 942.65 C-145.98 938.68 -145.98 934.7 -145.97 930.72 C-145.97 926.39 -145.98 922.07 -145.98 917.74 C-145.99 910.15 -145.99 902.57 -145.99 894.98 C-145.98 883.7 -145.99 872.42 -146 861.14 C-146.01 839.83 -146.01 818.51 -146.01 797.2 C-146.01 780.74 -146.01 764.28 -146.02 747.82 C-146.02 745.46 -146.02 743.09 -146.02 740.73 C-146.02 737.16 -146.02 733.6 -146.02 730.04 C-146.03 696.92 -146.03 663.79 -146.03 630.67 C-146.03 629.42 -146.03 628.17 -146.03 626.89 C-146.03 620.56 -146.03 614.23 -146.03 607.9 C-146.03 606.64 -146.03 605.38 -146.03 604.09 C-146.03 601.55 -146.03 599 -146.03 596.46 C-146.02 556.9 -146.03 517.34 -146.05 477.77 C-146.07 433.33 -146.08 388.89 -146.07 344.45 C-146.07 339.71 -146.07 334.97 -146.07 330.24 C-146.07 329.07 -146.07 327.9 -146.07 326.7 C-146.07 309.08 -146.08 291.47 -146.09 273.85 C-146.1 253.81 -146.1 233.78 -146.09 213.75 C-146.08 202.53 -146.08 191.32 -146.1 180.11 C-146.11 172.62 -146.1 165.13 -146.09 157.64 C-146.09 153.37 -146.08 149.11 -146.1 144.84 C-146.11 140.95 -146.1 137.07 -146.09 133.18 C-146.09 131.79 -146.09 130.39 -146.1 129 C-146.14 120.33 -145.19 112.71 -142.71 104.39 C-142.36 103.08 -142.02 101.76 -141.68 100.44 C-140.12 94.78 -138.56 89.45 -135.7 84.31 C-134.53 82.15 -134.53 82.15 -133.42 78.7 C-131.69 73.98 -129.13 70 -126.34 65.83 C-125.87 65.12 -125.4 64.4 -124.91 63.66 C-123.53 61.56 -122.12 59.48 -120.71 57.39 C-120.25 56.71 -119.79 56.02 -119.31 55.31 C-118.17 53.63 -116.94 52.01 -115.71 50.39 C-115.05 50.39 -114.39 50.39 -113.71 50.39 C-113.71 49.73 -113.71 49.07 -113.71 48.39 C-113.05 48.39 -112.39 48.39 -111.71 48.39 C-111.47 47.83 -111.24 47.27 -110.99 46.69 C-109.42 43.88 -107.5 41.91 -105.21 39.64 C-104.42 38.85 -103.62 38.05 -102.8 37.22 C-100.71 35.39 -100.71 35.39 -98.71 35.39 C-98.71 34.73 -98.71 34.07 -98.71 33.39 C-98.05 33.39 -97.39 33.39 -96.71 33.39 C-96.71 32.73 -96.71 32.07 -96.71 31.39 C-94.33 29.57 -91.95 27.87 -89.46 26.21 C-88.73 25.71 -88 25.22 -87.25 24.71 C-78.64 18.94 -70.25 13.61 -60.37 10.3 C-56.92 9.13 -53.56 7.73 -50.19 6.32 C-33.86 0.21 -17.18 -0.04 0 0 Z " fill="#ece0da" transform="translate(145.71014404296875,203.6055908203125)"/>
<path d="M0 0 C1.21 0 1.21 0 2.45 0 C4.15 0 5.84 0.01 7.54 0.02 C10.15 0.04 12.75 0.05 15.36 0.04 C17.01 0.05 18.66 0.06 20.31 0.06 C21.49 0.06 21.49 0.06 22.68 0.07 C28.14 0.11 28.14 0.11 29.26 1.23 C30.25 1.33 31.24 1.44 32.26 1.54 C36.23 2.06 39.48 3.5 43.08 5.21 C44.87 6.05 46.72 6.78 48.57 7.48 C57.43 11.29 65.03 17.62 72.02 24.14 C73.94 25.94 75.91 27.62 77.95 29.29 C81.18 32.04 83.89 35.12 86.63 38.35 C88.72 40.77 90.97 43 93.26 45.23 C108.26 60.23 123.26 75.23 138.26 90.23 C139 90.95 139.74 91.67 140.51 92.42 C150.84 102.98 158.56 113.54 164.26 127.23 C164.8 128.51 164.8 128.51 165.36 129.82 C166.51 132.91 166.82 135.97 167.26 139.23 C167.59 139.56 167.92 139.89 168.26 140.23 C168.38 142.86 168.45 145.47 168.46 148.11 C168.47 148.9 168.47 149.7 168.48 150.53 C168.49 152.22 168.49 153.92 168.5 155.62 C168.51 158.19 168.54 160.76 168.57 163.34 C168.58 164.99 168.58 166.64 168.59 168.29 C168.6 169.05 168.61 169.81 168.62 170.6 C168.6 176.28 167.27 180.94 165.26 186.23 C164.78 187.68 164.78 187.68 164.3 189.16 C162.05 195.75 159.04 201.4 155.26 207.23 C154.86 207.88 154.46 208.52 154.05 209.19 C153.18 210.58 152.23 211.91 151.26 213.23 C150.6 213.23 149.94 213.23 149.26 213.23 C148.9 214.06 148.9 214.06 148.54 214.91 C142.27 226.27 129.68 236 120.58 245.09 C118.16 247.51 115.75 249.94 113.34 252.38 C111.8 253.92 110.26 255.46 108.72 257 C108 257.72 107.28 258.45 106.54 259.2 C105.87 259.86 105.21 260.53 104.52 261.21 C103.94 261.79 103.35 262.38 102.75 262.98 C101.26 264.23 101.26 264.23 99.26 264.23 C99.04 264.78 98.82 265.32 98.59 265.88 C96.83 268.98 94.48 271.29 91.97 273.77 C91.43 274.32 90.88 274.87 90.32 275.43 C88.47 277.29 86.62 279.13 84.77 280.97 C83.44 282.31 82.1 283.64 80.77 284.98 C77.1 288.66 73.42 292.33 69.75 296 C65.79 299.96 61.83 303.92 57.87 307.88 C50.12 315.65 42.36 323.4 34.6 331.16 C28.3 337.46 21.99 343.76 15.69 350.06 C14.8 350.96 13.9 351.86 12.98 352.78 C11.16 354.6 9.34 356.42 7.52 358.24 C-9.06 374.83 -25.65 391.41 -42.24 407.99 C-57.4 423.14 -72.55 438.29 -87.7 453.45 C-104.71 470.47 -121.72 487.48 -138.74 504.5 C-140.55 506.31 -142.36 508.12 -144.18 509.93 C-145.07 510.82 -145.96 511.71 -146.88 512.63 C-153.18 518.93 -159.48 525.23 -165.77 531.53 C-173.44 539.21 -181.11 546.88 -188.79 554.54 C-192.71 558.46 -196.62 562.37 -200.54 566.29 C-204.12 569.87 -207.7 573.45 -211.28 577.03 C-212.58 578.33 -213.88 579.63 -215.18 580.93 C-216.94 582.69 -218.7 584.45 -220.46 586.2 C-220.97 586.71 -221.48 587.23 -222.01 587.76 C-225.51 591.23 -225.51 591.23 -227.74 591.23 C-228.14 592.19 -228.14 592.19 -228.55 593.17 C-229.74 595.23 -229.74 595.23 -232.74 596.23 C-233.07 596.89 -233.4 597.55 -233.74 598.23 C-234.07 598.89 -234.4 599.55 -234.74 600.23 C-235.73 600.56 -236.72 600.89 -237.74 601.23 C-238.07 601.89 -238.4 602.55 -238.74 603.23 C-239.07 603.89 -239.4 604.55 -239.74 605.23 C-240.73 605.56 -241.72 605.89 -242.74 606.23 C-243.07 606.89 -243.4 607.55 -243.74 608.23 C-244.07 608.89 -244.4 609.55 -244.74 610.23 C-245.73 610.56 -246.72 610.89 -247.74 611.23 C-248.42 612.56 -249.08 613.89 -249.74 615.23 C-251.26 616.94 -252.85 618.59 -254.46 620.21 C-255.39 621.15 -256.32 622.08 -257.29 623.05 C-257.77 623.53 -258.26 624.01 -258.76 624.5 C-260.24 625.98 -261.72 627.47 -263.2 628.96 C-264.6 630.36 -264.6 630.36 -266.02 631.78 C-266.88 632.63 -267.74 633.49 -268.62 634.37 C-270.74 636.23 -270.74 636.23 -272.74 636.23 C-273 636.81 -273.26 637.4 -273.53 638 C-274.83 640.39 -276.24 641.98 -278.16 643.9 C-278.86 644.61 -279.57 645.33 -280.3 646.06 C-281.07 646.83 -281.85 647.6 -282.65 648.4 C-283.46 649.22 -284.28 650.04 -285.12 650.88 C-287.82 653.59 -290.53 656.29 -293.24 659 C-295.12 660.87 -296.99 662.75 -298.87 664.63 C-302.8 668.56 -306.73 672.49 -310.67 676.42 C-315.23 680.97 -319.78 685.52 -324.32 690.07 C-328.22 693.98 -332.13 697.89 -336.04 701.79 C-338.37 704.13 -340.7 706.46 -343.04 708.8 C-345.63 711.4 -348.23 713.99 -350.84 716.58 C-351.61 717.36 -352.39 718.14 -353.18 718.94 C-353.89 719.65 -354.6 720.35 -355.33 721.07 C-356.25 721.99 -356.25 721.99 -357.19 722.93 C-358.74 724.23 -358.74 724.23 -360.74 724.23 C-360.99 724.8 -361.23 725.37 -361.49 725.96 C-362.95 728.61 -364.67 730.42 -366.8 732.56 C-367.6 733.36 -368.4 734.16 -369.22 734.98 C-370.05 735.81 -370.88 736.63 -371.74 737.48 C-372.57 738.32 -373.41 739.16 -374.27 740.03 C-375.46 741.22 -375.46 741.22 -376.68 742.43 C-377.41 743.16 -378.14 743.89 -378.89 744.64 C-380.74 746.23 -380.74 746.23 -382.74 746.23 C-383 746.82 -383.26 747.4 -383.53 748 C-384.83 750.38 -386.22 751.96 -388.13 753.88 C-388.82 754.58 -389.51 755.27 -390.23 755.99 C-390.98 756.74 -391.72 757.48 -392.5 758.25 C-393.66 759.42 -393.66 759.42 -394.84 760.6 C-396.49 762.25 -398.13 763.89 -399.78 765.53 C-402.28 768.02 -404.77 770.51 -407.25 773.01 C-408.85 774.61 -410.46 776.21 -412.06 777.81 C-412.79 778.55 -413.53 779.29 -414.29 780.05 C-428.77 794.41 -442.5 798.68 -462.27 801.77 C-464.73 802.11 -464.73 802.11 -466.74 803.23 C-468.13 803.41 -469.53 803.55 -470.93 803.67 C-475.05 804.09 -478.77 805.02 -482.74 806.23 C-487.26 807.38 -491.72 808.28 -496.37 808.73 C-500.34 809.12 -503.92 810.07 -507.74 811.23 C-512.26 812.38 -516.72 813.28 -521.37 813.73 C-525.34 814.12 -528.92 815.07 -532.74 816.23 C-537.26 817.38 -541.72 818.28 -546.37 818.73 C-550.34 819.12 -553.92 820.07 -557.74 821.23 C-562.26 822.38 -566.72 823.28 -571.37 823.73 C-575.34 824.12 -578.92 825.07 -582.74 826.23 C-587.26 827.38 -591.72 828.28 -596.37 828.73 C-600.34 829.12 -603.92 830.07 -607.74 831.23 C-619.31 834.64 -633.07 835.32 -644.06 829.9 C-654.16 823.6 -661.67 814.86 -664.74 803.23 C-665.02 800.29 -665.03 797.37 -664.99 794.42 C-664.99 793.62 -664.98 792.82 -664.98 791.99 C-664.87 785.13 -663.68 779.31 -661.68 772.73 C-660.76 769.29 -660.36 766.09 -660.02 762.56 C-659.42 757.5 -658.16 752.6 -656.68 747.73 C-655.76 744.29 -655.36 741.09 -655.02 737.56 C-654.42 732.5 -653.16 727.6 -651.68 722.73 C-650.76 719.29 -650.36 716.09 -650.02 712.56 C-649.42 707.5 -648.16 702.6 -646.68 697.73 C-645.76 694.29 -645.36 691.09 -645.02 687.56 C-644.42 682.5 -643.16 677.6 -641.68 672.73 C-640.76 669.29 -640.36 666.09 -640.02 662.56 C-639.42 657.5 -638.16 652.6 -636.68 647.73 C-635.76 644.29 -635.36 641.09 -635.02 637.56 C-634.42 632.5 -633.16 627.6 -631.68 622.73 C-630.94 619.96 -630.61 617.85 -630.43 615.04 C-629.12 602.02 -621.31 591.91 -611.59 583.79 C-609.16 581.74 -606.96 579.51 -604.74 577.23 C-522.24 494.73 -439.74 412.23 -297.05 269.61 C-294.63 267.26 -294.63 267.26 -292.74 264.23 C-292.08 264.23 -291.42 264.23 -290.74 264.23 C-290.41 263.24 -290.08 262.25 -289.74 261.23 C-289.08 261.23 -288.42 261.23 -287.74 261.23 C-287.74 260.57 -287.74 259.91 -287.74 259.23 C-286.17 257.68 -286.17 257.68 -284.05 255.92 C-280.8 253.15 -277.73 250.3 -274.74 247.23 C-249.74 222.23 -249.74 222.23 -247.05 219.61 C-244.63 217.26 -244.63 217.26 -242.74 214.23 C-242.08 214.23 -241.42 214.23 -240.74 214.23 C-240.41 213.24 -240.08 212.25 -239.74 211.23 C-239.08 211.23 -238.42 211.23 -237.74 211.23 C-237.74 210.57 -237.74 209.91 -237.74 209.23 C-236.37 207.61 -236.37 207.61 -234.74 206.23 C-234.08 206.23 -233.42 206.23 -232.74 206.23 C-232.74 205.57 -232.74 204.91 -232.74 204.23 C-230.37 201.61 -230.37 201.61 -227.74 199.23 C-227.08 199.23 -226.42 199.23 -225.74 199.23 C-225.41 198.24 -225.08 197.25 -224.74 196.23 C-224.08 196.23 -223.42 196.23 -222.74 196.23 C-222.74 195.57 -222.74 194.91 -222.74 194.23 C-221.37 192.61 -221.37 192.61 -219.74 191.23 C-219.08 191.23 -218.42 191.23 -217.74 191.23 C-217.74 190.57 -217.74 189.91 -217.74 189.23 C-215.37 186.61 -215.37 186.61 -212.74 184.23 C-212.08 184.23 -211.42 184.23 -210.74 184.23 C-210.41 183.24 -210.08 182.25 -209.74 181.23 C-209.08 181.23 -208.42 181.23 -207.74 181.23 C-207.74 180.57 -207.74 179.91 -207.74 179.23 C-206.37 177.61 -206.37 177.61 -204.74 176.23 C-204.08 176.23 -203.42 176.23 -202.74 176.23 C-202.74 175.57 -202.74 174.91 -202.74 174.23 C-202.08 174.23 -201.42 174.23 -200.74 174.23 C-200.41 173.24 -200.08 172.25 -199.74 171.23 C-199.08 171.23 -198.42 171.23 -197.74 171.23 C-197.74 170.57 -197.74 169.91 -197.74 169.23 C-196.37 167.61 -196.37 167.61 -194.74 166.23 C-194.08 166.23 -193.42 166.23 -192.74 166.23 C-192.74 165.57 -192.74 164.91 -192.74 164.23 C-192.08 164.23 -191.42 164.23 -190.74 164.23 C-190.41 163.24 -190.08 162.25 -189.74 161.23 C-189.08 161.23 -188.42 161.23 -187.74 161.23 C-187.74 160.57 -187.74 159.91 -187.74 159.23 C-187.08 159.23 -186.42 159.23 -185.74 159.23 C-185.41 158.24 -185.08 157.25 -184.74 156.23 C-184.08 156.23 -183.42 156.23 -182.74 156.23 C-182.74 155.57 -182.74 154.91 -182.74 154.23 C-182.08 154.23 -181.42 154.23 -180.74 154.23 C-180.41 153.24 -180.08 152.25 -179.74 151.23 C-179.08 151.23 -178.42 151.23 -177.74 151.23 C-177.74 150.57 -177.74 149.91 -177.74 149.23 C-177.08 149.23 -176.42 149.23 -175.74 149.23 C-175.41 148.24 -175.08 147.25 -174.74 146.23 C-174.08 146.23 -173.42 146.23 -172.74 146.23 C-172.74 145.57 -172.74 144.91 -172.74 144.23 C-171.37 142.61 -171.37 142.61 -169.74 141.23 C-169.08 141.23 -168.42 141.23 -167.74 141.23 C-167.74 140.57 -167.74 139.91 -167.74 139.23 C-165.37 136.61 -165.37 136.61 -162.74 134.23 C-162.08 134.23 -161.42 134.23 -160.74 134.23 C-160.41 133.24 -160.08 132.25 -159.74 131.23 C-159.08 131.23 -158.42 131.23 -157.74 131.23 C-157.74 130.57 -157.74 129.91 -157.74 129.23 C-156.37 127.61 -156.37 127.61 -154.74 126.23 C-154.08 126.23 -153.42 126.23 -152.74 126.23 C-152.74 125.57 -152.74 124.91 -152.74 124.23 C-152.08 124.23 -151.42 124.23 -150.74 124.23 C-150.41 123.24 -150.08 122.25 -149.74 121.23 C-149.08 121.23 -148.42 121.23 -147.74 121.23 C-147.74 120.57 -147.74 119.91 -147.74 119.23 C-146.17 117.68 -146.17 117.68 -144.05 115.92 C-139.83 112.32 -135.84 108.87 -132.74 104.23 C-132.08 104.23 -131.42 104.23 -130.74 104.23 C-130.41 103.24 -130.08 102.25 -129.74 101.23 C-129.08 101.23 -128.42 101.23 -127.74 101.23 C-127.74 100.57 -127.74 99.91 -127.74 99.23 C-126.37 97.61 -126.37 97.61 -124.74 96.23 C-124.08 96.23 -123.42 96.23 -122.74 96.23 C-122.74 95.57 -122.74 94.91 -122.74 94.23 C-121.17 92.68 -121.17 92.68 -119.05 90.92 C-114.83 87.32 -110.84 83.87 -107.74 79.23 C-107.08 79.23 -106.42 79.23 -105.74 79.23 C-105.41 78.24 -105.08 77.25 -104.74 76.23 C-104.08 76.23 -103.42 76.23 -102.74 76.23 C-102.74 75.57 -102.74 74.91 -102.74 74.23 C-101.17 72.68 -101.17 72.68 -99.05 70.92 C-95.8 68.15 -92.73 65.3 -89.74 62.23 C-64.74 37.23 -64.74 37.23 -62.24 34.79 C-60.37 32.88 -58.72 31 -57.05 28.92 C-56.29 28.03 -55.53 27.14 -54.74 26.23 C-54.08 26.23 -53.42 26.23 -52.74 26.23 C-52.74 25.57 -52.74 24.91 -52.74 24.23 C-47.27 19.23 -47.27 19.23 -44.74 19.23 C-44.74 18.57 -44.74 17.91 -44.74 17.23 C-32.19 7.35 -16.13 -0.15 0 0 Z M-6.12 87.31 C-8.19 89.76 -10.44 91.99 -12.74 94.23 C-13.57 95.06 -14.39 95.88 -15.24 96.73 C-21.08 102.56 -26.91 108.4 -32.74 114.23 C-33.61 115.12 -34.47 116 -35.37 116.92 C-37.74 119.23 -37.74 119.23 -40.74 121.23 C-40.16 124.74 -38.95 126.4 -36.45 128.9 C-35.75 129.61 -35.05 130.33 -34.32 131.06 C-33.15 132.22 -33.15 132.22 -31.97 133.4 C-31.15 134.22 -30.34 135.04 -29.5 135.88 C-26.8 138.59 -24.09 141.29 -21.38 144 C-19.5 145.87 -17.63 147.75 -15.75 149.63 C-11.82 153.56 -7.88 157.49 -3.94 161.42 C0.62 165.96 5.16 170.52 9.71 175.07 C13.6 178.99 17.51 182.89 21.42 186.79 C23.75 189.13 26.09 191.46 28.41 193.8 C31.01 196.4 33.61 198.99 36.22 201.58 C37 202.36 37.77 203.14 38.56 203.94 C39.27 204.65 39.98 205.35 40.71 206.07 C41.64 206.99 41.64 206.99 42.58 207.93 C44.3 209.54 44.3 209.54 47.26 209.23 C48.96 207.63 48.96 207.63 50.57 205.54 C52.8 202.86 54.96 200.51 57.7 198.36 C58.54 197.65 59.39 196.95 60.26 196.23 C60.26 195.57 60.26 194.91 60.26 194.23 C60.92 194.23 61.58 194.23 62.26 194.23 C63.86 192.61 63.86 192.61 65.51 190.54 C67.76 187.88 69.96 185.52 72.7 183.36 C73.54 182.65 74.39 181.95 75.26 181.23 C75.26 180.57 75.26 179.91 75.26 179.23 C75.92 179.23 76.58 179.23 77.26 179.23 C78.77 177.7 78.77 177.7 80.26 175.79 C83.05 172.33 83.05 172.33 85.26 171.23 C85.26 170.57 85.26 169.91 85.26 169.23 C85.92 169.23 86.58 169.23 87.26 169.23 C90.42 166.07 92.12 163.08 92.82 158.67 C91.66 151.57 86.26 146.94 81.35 142.06 C80.66 141.37 79.98 140.68 79.27 139.97 C77.01 137.7 74.74 135.44 72.48 133.18 C70.9 131.61 69.32 130.03 67.75 128.45 C64.45 125.15 61.15 121.85 57.84 118.55 C53.6 114.33 49.38 110.09 45.15 105.86 C41.9 102.6 38.64 99.34 35.39 96.09 C33.83 94.53 32.27 92.97 30.71 91.41 C28.53 89.23 26.35 87.05 24.17 84.88 C23.52 84.23 22.88 83.59 22.22 82.92 C21.62 82.33 21.02 81.74 20.41 81.13 C19.89 80.61 19.38 80.1 18.85 79.57 C15.98 77.15 13.67 76.28 9.95 75.79 C2.54 76.67 -1.51 81.84 -6.12 87.31 Z M-99.05 180.42 C-99.94 181.35 -100.83 182.27 -101.74 183.23 C-184.24 265.73 -266.74 348.23 -546.74 628.23 C-547.59 629.1 -548.43 629.96 -549.3 630.86 C-551.74 633.23 -551.74 633.23 -553.79 634.5 C-556.47 636.88 -556.72 638.87 -557.43 642.36 C-557.67 643.52 -557.91 644.68 -558.16 645.88 C-558.75 649.29 -559.18 652.67 -559.5 656.11 C-560.07 661.1 -561.35 665.94 -562.8 670.73 C-563.73 674.17 -564.12 677.37 -564.46 680.9 C-565.07 685.96 -566.33 690.86 -567.8 695.73 C-568.73 699.17 -569.12 702.37 -569.46 705.9 C-570.07 710.96 -571.33 715.86 -572.8 720.73 C-573.72 724.17 -574.13 727.36 -574.45 730.89 C-574.85 734.09 -575.62 737.17 -576.44 740.29 C-576.93 742.44 -576.93 742.44 -575.74 745.23 C-574.28 745.09 -572.83 744.94 -571.37 744.79 C-570.56 744.71 -569.74 744.63 -568.91 744.55 C-566.7 744.34 -566.7 744.34 -564.74 743.23 C-563.35 743.05 -561.95 742.91 -560.55 742.79 C-556.43 742.37 -552.72 741.44 -548.74 740.23 C-544.22 739.08 -539.76 738.18 -535.12 737.73 C-531.15 737.34 -527.57 736.39 -523.74 735.23 C-519.22 734.08 -514.76 733.18 -510.12 732.73 C-506.15 732.34 -502.57 731.39 -498.74 730.23 C-494.35 729.11 -490.01 728.21 -485.49 727.79 C-475.07 726.93 -475.07 726.93 -465.86 722.75 C-464.55 721.28 -464.55 721.28 -464.74 719.23 C-464.08 719.23 -463.42 719.23 -462.74 719.23 C-461.08 717.9 -461.08 717.9 -459.74 716.23 C-459.74 715.57 -459.74 714.91 -459.74 714.23 C-459.08 714.23 -458.42 714.23 -457.74 714.23 C-456.08 712.9 -456.08 712.9 -454.74 711.23 C-454.74 710.57 -454.74 709.91 -454.74 709.23 C-454.08 709.23 -453.42 709.23 -452.74 709.23 C-451.08 707.9 -451.08 707.9 -449.74 706.23 C-449.74 705.57 -449.74 704.91 -449.74 704.23 C-449.08 704.23 -448.42 704.23 -447.74 704.23 C-446.08 702.9 -446.08 702.9 -444.74 701.23 C-444.74 700.57 -444.74 699.91 -444.74 699.23 C-444.08 699.23 -443.42 699.23 -442.74 699.23 C-441.08 697.9 -441.08 697.9 -439.74 696.23 C-439.74 695.57 -439.74 694.91 -439.74 694.23 C-439.08 694.23 -438.42 694.23 -437.74 694.23 C-436.08 692.9 -436.08 692.9 -434.74 691.23 C-434.74 690.57 -434.74 689.91 -434.74 689.23 C-434.08 689.23 -433.42 689.23 -432.74 689.23 C-431.08 687.9 -431.08 687.9 -429.74 686.23 C-429.74 685.57 -429.74 684.91 -429.74 684.23 C-429.08 684.23 -428.42 684.23 -427.74 684.23 C-426.08 682.9 -426.08 682.9 -424.74 681.23 C-424.74 680.57 -424.74 679.91 -424.74 679.23 C-424.08 679.23 -423.42 679.23 -422.74 679.23 C-421.08 677.9 -421.08 677.9 -419.74 676.23 C-419.74 675.57 -419.74 674.91 -419.74 674.23 C-419.08 674.23 -418.42 674.23 -417.74 674.23 C-416.08 672.9 -416.08 672.9 -414.74 671.23 C-414.74 670.57 -414.74 669.91 -414.74 669.23 C-414.08 669.23 -413.42 669.23 -412.74 669.23 C-411.08 667.9 -411.08 667.9 -409.74 666.23 C-409.74 665.57 -409.74 664.91 -409.74 664.23 C-409.08 664.23 -408.42 664.23 -407.74 664.23 C-406.08 662.9 -406.08 662.9 -404.74 661.23 C-404.74 660.57 -404.74 659.91 -404.74 659.23 C-404.08 659.23 -403.42 659.23 -402.74 659.23 C-401.08 657.9 -401.08 657.9 -399.74 656.23 C-399.74 655.57 -399.74 654.91 -399.74 654.23 C-399.08 654.23 -398.42 654.23 -397.74 654.23 C-396.08 652.9 -396.08 652.9 -394.74 651.23 C-394.74 650.57 -394.74 649.91 -394.74 649.23 C-394.08 649.23 -393.42 649.23 -392.74 649.23 C-391.08 647.9 -391.08 647.9 -389.74 646.23 C-389.74 645.57 -389.74 644.91 -389.74 644.23 C-389.08 644.23 -388.42 644.23 -387.74 644.23 C-386.08 642.9 -386.08 642.9 -384.74 641.23 C-384.74 640.57 -384.74 639.91 -384.74 639.23 C-384.08 639.23 -383.42 639.23 -382.74 639.23 C-381.23 637.7 -381.23 637.7 -379.74 635.79 C-376.95 632.33 -376.95 632.33 -374.74 631.23 C-374.74 630.57 -374.74 629.91 -374.74 629.23 C-374.08 629.23 -373.42 629.23 -372.74 629.23 C-371.08 627.9 -371.08 627.9 -369.74 626.23 C-369.74 625.57 -369.74 624.91 -369.74 624.23 C-369.08 624.23 -368.42 624.23 -367.74 624.23 C-366.08 622.9 -366.08 622.9 -364.74 621.23 C-364.74 620.57 -364.74 619.91 -364.74 619.23 C-364.08 619.23 -363.42 619.23 -362.74 619.23 C-361.08 617.9 -361.08 617.9 -359.74 616.23 C-359.74 615.57 -359.74 614.91 -359.74 614.23 C-359.08 614.23 -358.42 614.23 -357.74 614.23 C-356.11 612.61 -356.11 612.61 -354.43 610.54 C-351.66 607.29 -348.81 604.22 -345.74 601.23 C-344.92 600.41 -344.09 599.58 -343.24 598.73 C-342.42 597.91 -341.59 597.08 -340.74 596.23 C-339.54 594.99 -339.54 594.99 -338.3 593.73 C-336.39 591.86 -334.51 590.21 -332.43 588.54 C-331.1 587.4 -331.1 587.4 -329.74 586.23 C-329.74 585.57 -329.74 584.91 -329.74 584.23 C-329.08 584.23 -328.42 584.23 -327.74 584.23 C-326.08 582.9 -326.08 582.9 -324.74 581.23 C-324.74 580.57 -324.74 579.91 -324.74 579.23 C-324.08 579.23 -323.42 579.23 -322.74 579.23 C-321.08 577.9 -321.08 577.9 -319.74 576.23 C-319.74 575.57 -319.74 574.91 -319.74 574.23 C-319.08 574.23 -318.42 574.23 -317.74 574.23 C-316.08 572.9 -316.08 572.9 -314.74 571.23 C-314.74 570.57 -314.74 569.91 -314.74 569.23 C-314.08 569.23 -313.42 569.23 -312.74 569.23 C-311.08 567.9 -311.08 567.9 -309.74 566.23 C-309.74 565.57 -309.74 564.91 -309.74 564.23 C-309.08 564.23 -308.42 564.23 -307.74 564.23 C-306.08 562.9 -306.08 562.9 -304.74 561.23 C-304.74 560.57 -304.74 559.91 -304.74 559.23 C-304.08 559.23 -303.42 559.23 -302.74 559.23 C-301.08 557.9 -301.08 557.9 -299.74 556.23 C-299.74 555.57 -299.74 554.91 -299.74 554.23 C-299.08 554.23 -298.42 554.23 -297.74 554.23 C-296.08 552.9 -296.08 552.9 -294.74 551.23 C-294.74 550.57 -294.74 549.91 -294.74 549.23 C-294.08 549.23 -293.42 549.23 -292.74 549.23 C-291.08 547.9 -291.08 547.9 -289.74 546.23 C-289.74 545.57 -289.74 544.91 -289.74 544.23 C-289.08 544.23 -288.42 544.23 -287.74 544.23 C-286.08 542.9 -286.08 542.9 -284.74 541.23 C-284.74 540.57 -284.74 539.91 -284.74 539.23 C-284.08 539.23 -283.42 539.23 -282.74 539.23 C-281.08 537.9 -281.08 537.9 -279.74 536.23 C-279.74 535.57 -279.74 534.91 -279.74 534.23 C-279.08 534.23 -278.42 534.23 -277.74 534.23 C-276.08 532.9 -276.08 532.9 -274.74 531.23 C-274.74 530.57 -274.74 529.91 -274.74 529.23 C-274.08 529.23 -273.42 529.23 -272.74 529.23 C-271.08 527.9 -271.08 527.9 -269.74 526.23 C-269.74 525.57 -269.74 524.91 -269.74 524.23 C-269.08 524.23 -268.42 524.23 -267.74 524.23 C-266.08 522.9 -266.08 522.9 -264.74 521.23 C-264.74 520.57 -264.74 519.91 -264.74 519.23 C-264.08 519.23 -263.42 519.23 -262.74 519.23 C-261.08 517.9 -261.08 517.9 -259.74 516.23 C-259.74 515.57 -259.74 514.91 -259.74 514.23 C-259.08 514.23 -258.42 514.23 -257.74 514.23 C-256.08 512.9 -256.08 512.9 -254.74 511.23 C-254.74 510.57 -254.74 509.91 -254.74 509.23 C-254.08 509.23 -253.42 509.23 -252.74 509.23 C-251.08 507.9 -251.08 507.9 -249.74 506.23 C-249.74 505.57 -249.74 504.91 -249.74 504.23 C-249.08 504.23 -248.42 504.23 -247.74 504.23 C-246.08 502.9 -246.08 502.9 -244.74 501.23 C-244.74 500.57 -244.74 499.91 -244.74 499.23 C-244.08 499.23 -243.42 499.23 -242.74 499.23 C-241.08 497.9 -241.08 497.9 -239.74 496.23 C-239.74 495.57 -239.74 494.91 -239.74 494.23 C-239.08 494.23 -238.42 494.23 -237.74 494.23 C-237.74 493.57 -237.74 492.91 -237.74 492.23 C-236.75 491.9 -235.76 491.57 -234.74 491.23 C-234.74 490.57 -234.74 489.91 -234.74 489.23 C-234.08 489.23 -233.42 489.23 -232.74 489.23 C-232.74 488.57 -232.74 487.91 -232.74 487.23 C-231.75 486.9 -230.76 486.57 -229.74 486.23 C-229.74 485.57 -229.74 484.91 -229.74 484.23 C-229.08 484.23 -228.42 484.23 -227.74 484.23 C-227.74 483.57 -227.74 482.91 -227.74 482.23 C-226.75 481.9 -225.76 481.57 -224.74 481.23 C-224.74 480.57 -224.74 479.91 -224.74 479.23 C-224.08 479.23 -223.42 479.23 -222.74 479.23 C-222.74 478.57 -222.74 477.91 -222.74 477.23 C-221.75 476.9 -220.76 476.57 -219.74 476.23 C-219.74 475.57 -219.74 474.91 -219.74 474.23 C-219.08 474.23 -218.42 474.23 -217.74 474.23 C-217.74 473.57 -217.74 472.91 -217.74 472.23 C-216.75 471.9 -215.76 471.57 -214.74 471.23 C-214.74 470.57 -214.74 469.91 -214.74 469.23 C-214.08 469.23 -213.42 469.23 -212.74 469.23 C-212.74 468.57 -212.74 467.91 -212.74 467.23 C-211.75 466.9 -210.76 466.57 -209.74 466.23 C-209.74 465.57 -209.74 464.91 -209.74 464.23 C-209.08 464.23 -208.42 464.23 -207.74 464.23 C-207.74 463.57 -207.74 462.91 -207.74 462.23 C-206.75 461.9 -205.76 461.57 -204.74 461.23 C-204.74 460.57 -204.74 459.91 -204.74 459.23 C-204.08 459.23 -203.42 459.23 -202.74 459.23 C-202.74 458.57 -202.74 457.91 -202.74 457.23 C-201.75 456.9 -200.76 456.57 -199.74 456.23 C-199.74 455.57 -199.74 454.91 -199.74 454.23 C-199.08 454.23 -198.42 454.23 -197.74 454.23 C-197.74 453.57 -197.74 452.91 -197.74 452.23 C-196.75 451.9 -195.76 451.57 -194.74 451.23 C-194.74 450.57 -194.74 449.91 -194.74 449.23 C-194.08 449.23 -193.42 449.23 -192.74 449.23 C-192.74 448.57 -192.74 447.91 -192.74 447.23 C-191.75 446.9 -190.76 446.57 -189.74 446.23 C-189.74 445.57 -189.74 444.91 -189.74 444.23 C-189.08 444.23 -188.42 444.23 -187.74 444.23 C-187.74 443.57 -187.74 442.91 -187.74 442.23 C-186.75 441.9 -185.76 441.57 -184.74 441.23 C-184.74 440.57 -184.74 439.91 -184.74 439.23 C-184.08 439.23 -183.42 439.23 -182.74 439.23 C-182.74 438.57 -182.74 437.91 -182.74 437.23 C-181.75 436.9 -180.76 436.57 -179.74 436.23 C-179.74 435.57 -179.74 434.91 -179.74 434.23 C-179.08 434.23 -178.42 434.23 -177.74 434.23 C-177.74 433.57 -177.74 432.91 -177.74 432.23 C-176.75 431.9 -175.76 431.57 -174.74 431.23 C-174.74 430.57 -174.74 429.91 -174.74 429.23 C-174.08 429.23 -173.42 429.23 -172.74 429.23 C-172.74 428.57 -172.74 427.91 -172.74 427.23 C-171.75 426.9 -170.76 426.57 -169.74 426.23 C-169.74 425.57 -169.74 424.91 -169.74 424.23 C-169.08 424.23 -168.42 424.23 -167.74 424.23 C-167.74 423.57 -167.74 422.91 -167.74 422.23 C-166.75 421.9 -165.76 421.57 -164.74 421.23 C-164.74 420.57 -164.74 419.91 -164.74 419.23 C-164.08 419.23 -163.42 419.23 -162.74 419.23 C-162.74 418.57 -162.74 417.91 -162.74 417.23 C-161.75 416.9 -160.76 416.57 -159.74 416.23 C-159.74 415.57 -159.74 414.91 -159.74 414.23 C-159.08 414.23 -158.42 414.23 -157.74 414.23 C-157.74 413.57 -157.74 412.91 -157.74 412.23 C-156.75 411.9 -155.76 411.57 -154.74 411.23 C-154.74 410.57 -154.74 409.91 -154.74 409.23 C-154.08 409.23 -153.42 409.23 -152.74 409.23 C-152.74 408.57 -152.74 407.91 -152.74 407.23 C-151.75 406.9 -150.76 406.57 -149.74 406.23 C-149.74 405.57 -149.74 404.91 -149.74 404.23 C-149.08 404.23 -148.42 404.23 -147.74 404.23 C-147.74 403.57 -147.74 402.91 -147.74 402.23 C-146.75 401.9 -145.76 401.57 -144.74 401.23 C-144.74 400.57 -144.74 399.91 -144.74 399.23 C-144.08 399.23 -143.42 399.23 -142.74 399.23 C-142.74 398.57 -142.74 397.91 -142.74 397.23 C-141.75 396.9 -140.76 396.57 -139.74 396.23 C-139.74 395.57 -139.74 394.91 -139.74 394.23 C-139.08 394.23 -138.42 394.23 -137.74 394.23 C-137.74 393.57 -137.74 392.91 -137.74 392.23 C-136.75 391.9 -135.76 391.57 -134.74 391.23 C-134.74 390.57 -134.74 389.91 -134.74 389.23 C-134.08 389.23 -133.42 389.23 -132.74 389.23 C-132.74 388.57 -132.74 387.91 -132.74 387.23 C-131.75 386.9 -130.76 386.57 -129.74 386.23 C-129.74 385.57 -129.74 384.91 -129.74 384.23 C-129.08 384.23 -128.42 384.23 -127.74 384.23 C-127.74 383.57 -127.74 382.91 -127.74 382.23 C-126.75 381.9 -125.76 381.57 -124.74 381.23 C-124.74 380.57 -124.74 379.91 -124.74 379.23 C-124.08 379.23 -123.42 379.23 -122.74 379.23 C-122.74 378.57 -122.74 377.91 -122.74 377.23 C-121.75 376.9 -120.76 376.57 -119.74 376.23 C-119.74 375.57 -119.74 374.91 -119.74 374.23 C-119.08 374.23 -118.42 374.23 -117.74 374.23 C-117.74 373.57 -117.74 372.91 -117.74 372.23 C-116.75 371.9 -115.76 371.57 -114.74 371.23 C-114.74 370.57 -114.74 369.91 -114.74 369.23 C-114.08 369.23 -113.42 369.23 -112.74 369.23 C-112.74 368.57 -112.74 367.91 -112.74 367.23 C-111.75 366.9 -110.76 366.57 -109.74 366.23 C-109.74 365.57 -109.74 364.91 -109.74 364.23 C-109.08 364.23 -108.42 364.23 -107.74 364.23 C-107.74 363.57 -107.74 362.91 -107.74 362.23 C-106.75 361.9 -105.76 361.57 -104.74 361.23 C-104.74 360.57 -104.74 359.91 -104.74 359.23 C-104.08 359.23 -103.42 359.23 -102.74 359.23 C-102.74 358.57 -102.74 357.91 -102.74 357.23 C-101.75 356.9 -100.76 356.57 -99.74 356.23 C-99.74 355.57 -99.74 354.91 -99.74 354.23 C-99.08 354.23 -98.42 354.23 -97.74 354.23 C-97.74 353.57 -97.74 352.91 -97.74 352.23 C-96.75 351.9 -95.76 351.57 -94.74 351.23 C-94.74 350.57 -94.74 349.91 -94.74 349.23 C-94.08 349.23 -93.42 349.23 -92.74 349.23 C-92.74 348.57 -92.74 347.91 -92.74 347.23 C-91.75 346.9 -90.76 346.57 -89.74 346.23 C-89.74 345.57 -89.74 344.91 -89.74 344.23 C-89.08 344.23 -88.42 344.23 -87.74 344.23 C-87.74 343.57 -87.74 342.91 -87.74 342.23 C-86.75 341.9 -85.76 341.57 -84.74 341.23 C-84.74 340.57 -84.74 339.91 -84.74 339.23 C-84.08 339.23 -83.42 339.23 -82.74 339.23 C-82.74 338.57 -82.74 337.91 -82.74 337.23 C-81.75 336.9 -80.76 336.57 -79.74 336.23 C-79.74 335.57 -79.74 334.91 -79.74 334.23 C-79.08 334.23 -78.42 334.23 -77.74 334.23 C-77.74 333.57 -77.74 332.91 -77.74 332.23 C-76.75 331.9 -75.76 331.57 -74.74 331.23 C-74.74 330.57 -74.74 329.91 -74.74 329.23 C-74.08 329.23 -73.42 329.23 -72.74 329.23 C-72.74 328.57 -72.74 327.91 -72.74 327.23 C-71.75 326.9 -70.76 326.57 -69.74 326.23 C-69.74 325.57 -69.74 324.91 -69.74 324.23 C-69.08 324.23 -68.42 324.23 -67.74 324.23 C-67.74 323.57 -67.74 322.91 -67.74 322.23 C-66.75 321.9 -65.76 321.57 -64.74 321.23 C-64.74 320.57 -64.74 319.91 -64.74 319.23 C-64.08 319.23 -63.42 319.23 -62.74 319.23 C-62.74 318.57 -62.74 317.91 -62.74 317.23 C-61.75 316.9 -60.76 316.57 -59.74 316.23 C-59.74 315.57 -59.74 314.91 -59.74 314.23 C-59.08 314.23 -58.42 314.23 -57.74 314.23 C-57.74 313.57 -57.74 312.91 -57.74 312.23 C-56.75 311.9 -55.76 311.57 -54.74 311.23 C-54.74 310.57 -54.74 309.91 -54.74 309.23 C-54.08 309.23 -53.42 309.23 -52.74 309.23 C-52.74 308.57 -52.74 307.91 -52.74 307.23 C-51.75 306.9 -50.76 306.57 -49.74 306.23 C-49.74 305.57 -49.74 304.91 -49.74 304.23 C-49.08 304.23 -48.42 304.23 -47.74 304.23 C-47.74 303.57 -47.74 302.91 -47.74 302.23 C-46.26 301.74 -46.26 301.74 -44.74 301.23 C-44.74 300.57 -44.74 299.91 -44.74 299.23 C-44.08 299.23 -43.42 299.23 -42.74 299.23 C-42.74 298.57 -42.74 297.91 -42.74 297.23 C-41.26 296.74 -41.26 296.74 -39.74 296.23 C-39.74 295.57 -39.74 294.91 -39.74 294.23 C-39.08 294.23 -38.42 294.23 -37.74 294.23 C-37.74 293.57 -37.74 292.91 -37.74 292.23 C-36.26 291.74 -36.26 291.74 -34.74 291.23 C-34.74 290.57 -34.74 289.91 -34.74 289.23 C-34.08 289.23 -33.42 289.23 -32.74 289.23 C-32.74 288.57 -32.74 287.91 -32.74 287.23 C-31.26 286.74 -31.26 286.74 -29.74 286.23 C-29.74 285.57 -29.74 284.91 -29.74 284.23 C-29.08 284.23 -28.42 284.23 -27.74 284.23 C-27.74 283.57 -27.74 282.91 -27.74 282.23 C-26.26 281.74 -26.26 281.74 -24.74 281.23 C-24.74 280.57 -24.74 279.91 -24.74 279.23 C-24.08 279.23 -23.42 279.23 -22.74 279.23 C-22.74 278.57 -22.74 277.91 -22.74 277.23 C-21.26 276.74 -21.26 276.74 -19.74 276.23 C-19.74 275.57 -19.74 274.91 -19.74 274.23 C-19.08 274.23 -18.42 274.23 -17.74 274.23 C-17.74 273.57 -17.74 272.91 -17.74 272.23 C-16.26 271.74 -16.26 271.74 -14.74 271.23 C-14.74 270.57 -14.74 269.91 -14.74 269.23 C-14.08 269.23 -13.42 269.23 -12.74 269.23 C-12.74 268.57 -12.74 267.91 -12.74 267.23 C-12.08 267.23 -11.42 267.23 -10.74 267.23 C-9.95 265.43 -9.95 265.43 -9.74 263.23 C-10.93 261.29 -10.93 261.29 -12.84 259.52 C-13.9 258.44 -13.9 258.44 -14.99 257.34 C-15.79 256.56 -16.58 255.78 -17.4 254.97 C-18.23 254.14 -19.05 253.31 -19.9 252.46 C-22.17 250.18 -24.45 247.92 -26.74 245.66 C-29.13 243.3 -31.5 240.92 -33.88 238.55 C-37.87 234.56 -41.87 230.58 -45.87 226.61 C-50.51 222.02 -55.13 217.41 -59.75 212.8 C-64.66 207.89 -69.58 202.99 -74.5 198.1 C-75.92 196.68 -77.34 195.27 -78.76 193.85 C-81.4 191.22 -84.05 188.59 -86.7 185.97 C-87.49 185.18 -88.27 184.39 -89.09 183.58 C-89.81 182.87 -90.53 182.16 -91.27 181.43 C-91.89 180.81 -92.52 180.19 -93.17 179.55 C-95.89 177.27 -96.53 178.03 -99.05 180.42 Z " fill="#ece0da" transform="translate(1111.7421875,-0.23046875)"/>
</svg>
