<?xml version="1.0" encoding="UTF-8"?>
<!-- Generator: visioncortex VTracer 0.6.3 -->
<svg version="1.1" xmlns="http://www.w3.org/2000/svg" width="1280" height="1280">
<path d="M0 0 C1.39 -0 1.39 -0 2.81 -0.01 C3.84 -0.01 4.87 -0 5.93 -0 C7.02 -0 8.11 -0 9.24 -0 C12.94 -0.01 16.64 -0.01 20.34 -0 C23 -0 25.66 -0 28.32 -0.01 C34.13 -0.01 39.94 -0.01 45.75 -0.01 C54.39 -0 63.03 -0.01 71.67 -0.01 C87.1 -0.01 102.53 -0.01 117.95 -0.01 C131.45 -0.01 144.95 -0.01 158.45 -0.01 C159.35 -0.01 160.24 -0.01 161.16 -0.01 C164.79 -0.01 168.42 -0.01 172.05 -0.01 C206.12 -0.01 240.19 -0.01 274.26 -0 C304.55 0 334.85 -0 365.15 -0.01 C399.15 -0.01 433.16 -0.01 467.16 -0.01 C470.78 -0.01 474.41 -0.01 478.03 -0.01 C478.92 -0.01 479.81 -0.01 480.73 -0.01 C494.23 -0.01 507.72 -0.01 521.21 -0.01 C536.55 -0.01 551.89 -0.01 567.23 -0.01 C575.82 -0 584.41 -0 593.01 -0.01 C598.74 -0.01 604.47 -0.01 610.2 -0 C613.47 -0 616.74 -0 620.01 -0.01 C623.52 -0.01 627.04 -0.01 630.55 -0 C632.1 -0 632.1 -0 633.67 -0.01 C634.6 -0.01 635.53 -0 636.48 0 C637.29 0 638.09 0 638.92 0 C640.74 0.13 640.74 0.13 641.74 1.13 C643.23 1.48 644.74 1.78 646.24 2.06 C647.14 2.24 648.05 2.41 648.98 2.59 C650.35 2.86 650.35 2.86 651.74 3.13 C657.46 4.23 662.4 5.73 667.74 8.13 C669.45 8.71 671.16 9.3 672.87 9.88 C683.4 13.67 692.81 19.45 701.74 26.13 C702.77 26.88 703.8 27.63 704.86 28.4 C712.42 34 719.56 39.99 725.74 47.13 C725.74 47.79 725.74 48.45 725.74 49.13 C726.4 49.13 727.06 49.13 727.74 49.13 C729.43 51.11 731 53.1 732.55 55.19 C733.01 55.79 733.46 56.39 733.92 57.01 C734.81 58.19 735.7 59.38 736.58 60.57 C737.47 61.77 738.38 62.95 739.3 64.13 C742.64 68.5 744.94 73.34 747.33 78.28 C748.43 80.49 749.56 82.54 750.87 84.63 C753.52 89.58 755.06 94.78 756.74 100.13 C757.26 101.63 757.78 103.13 758.3 104.63 C758.79 106.12 759.27 107.62 759.74 109.13 C760 109.93 760.26 110.74 760.52 111.57 C765.69 129.69 765.04 149.37 765 168.03 C765 170.44 765.01 172.85 765.01 175.26 C765.02 181.73 765.02 188.2 765.01 194.67 C765.01 198.72 765.01 202.77 765.01 206.82 C765.01 207.5 765.01 208.17 765.01 208.87 C765.01 210.25 765.01 211.62 765.01 213 C765.02 225.82 765.01 238.64 765 251.47 C764.99 262.44 764.99 273.42 765 284.4 C765.01 297.2 765.02 310 765.01 322.8 C765.01 324.17 765.01 325.54 765.01 326.9 C765.01 327.57 765.01 328.25 765.01 328.94 C765.01 333.65 765.01 338.36 765.01 343.08 C765.02 349.42 765.02 355.76 765 362.11 C765 364.43 765 366.75 765.01 369.08 C765.01 372.25 765.01 375.43 765 378.61 C765 379.52 765 380.43 765.01 381.37 C764.96 389.87 764.24 398.54 759.87 406 C759.34 406.9 758.81 407.8 758.26 408.73 C756.58 411.38 754.92 413.86 752.74 416.13 C752.08 416.13 751.42 416.13 750.74 416.13 C750.74 416.79 750.74 417.45 750.74 418.13 C741.65 425.95 731.05 428.95 719.18 428.47 C708.61 427.4 699.06 422.09 691.87 414.25 C684.13 404.66 681.43 395.71 681.5 383.56 C681.49 381.98 681.49 381.98 681.49 380.37 C681.48 376.85 681.49 373.33 681.5 369.81 C681.5 367.28 681.5 364.76 681.5 362.23 C681.49 356.79 681.49 351.35 681.5 345.91 C681.51 337.3 681.49 328.68 681.48 320.07 C681.48 317.12 681.47 314.17 681.47 311.22 C681.47 310.11 681.47 310.11 681.46 308.98 C681.45 300.6 681.44 292.21 681.44 283.82 C681.44 282.67 681.44 282.67 681.44 281.5 C681.43 269.1 681.43 256.69 681.44 244.29 C681.44 231.54 681.43 218.78 681.4 206.03 C681.38 198.17 681.38 190.32 681.4 182.46 C681.41 176.43 681.4 170.4 681.38 164.36 C681.37 161.9 681.37 159.44 681.39 156.98 C681.47 139.47 680.55 124.92 670.1 110.16 C668.74 108.13 668.74 108.13 668.74 106.13 C668.08 106.13 667.42 106.13 666.74 106.13 C665.69 104.98 664.7 103.78 663.74 102.56 C659.67 97.77 655.02 94.48 649.74 91.13 C649.11 90.72 648.48 90.32 647.83 89.91 C635.92 82.73 623.25 81.82 609.62 81.88 C608.23 81.88 606.83 81.88 605.43 81.88 C601.61 81.88 597.79 81.88 593.97 81.89 C589.85 81.9 585.72 81.9 581.59 81.9 C574.45 81.9 567.31 81.9 560.17 81.91 C549.84 81.93 539.52 81.94 529.19 81.94 C512.44 81.94 495.68 81.96 478.93 81.97 C462.66 81.99 446.39 82.01 430.12 82.02 C429.12 82.02 428.11 82.02 427.08 82.02 C422.04 82.02 417.01 82.02 411.97 82.02 C370.23 82.05 328.48 82.08 286.74 82.13 C288.34 82.77 289.94 83.41 291.54 84.06 C292.43 84.42 293.32 84.77 294.23 85.14 C297.1 86.26 299.98 87.2 302.93 88.06 C309.61 90.07 316.22 92.26 322.83 94.48 C325.97 95.54 329.1 96.58 332.24 97.63 C347.24 102.63 347.24 102.63 350.98 103.88 C353.51 104.72 356.03 105.55 358.56 106.38 C366.73 109.05 374.75 111.96 382.74 115.13 C382.74 115.79 382.74 116.45 382.74 117.13 C383.46 117.22 384.17 117.32 384.91 117.42 C388.16 118.23 390.32 119.53 393.12 121.38 C394.07 122 395.02 122.63 396 123.28 C396.91 123.89 397.81 124.5 398.74 125.13 C399.49 125.62 400.24 126.12 401.01 126.63 C402.63 127.73 404.19 128.92 405.74 130.13 C405.74 130.79 405.74 131.45 405.74 132.13 C406.31 132.37 406.89 132.62 407.48 132.88 C410.09 134.32 411.89 136.01 413.99 138.13 C415.05 139.18 415.05 139.18 416.13 140.25 C417.74 142.13 417.74 142.13 417.74 144.13 C418.4 144.13 419.06 144.13 419.74 144.13 C443.24 172.6 445.06 206 444.99 241.29 C444.98 245.55 444.98 249.81 444.99 254.07 C444.99 261.52 444.99 268.97 444.98 276.42 C444.97 287.49 444.97 298.57 444.97 309.65 C444.97 328.28 444.96 346.92 444.95 365.56 C444.94 384 444.93 402.45 444.93 420.89 C444.93 422.04 444.93 423.19 444.93 424.37 C444.93 430.2 444.93 436.03 444.93 441.86 C444.92 483.13 444.91 524.4 444.89 565.67 C444.87 605.76 444.86 645.84 444.85 685.93 C444.85 687.16 444.85 688.4 444.85 689.67 C444.85 702.09 444.85 714.5 444.84 726.92 C444.84 752.21 444.83 777.5 444.83 802.78 C444.83 803.95 444.83 805.11 444.83 806.31 C444.81 883.91 444.77 961.52 444.74 1039.13 C468 1039.06 491.26 1038.99 514.53 1038.89 C525.33 1038.84 536.13 1038.81 546.93 1038.78 C556.35 1038.76 565.77 1038.72 575.19 1038.68 C580.17 1038.65 585.15 1038.63 590.14 1038.63 C594.84 1038.62 599.53 1038.6 604.23 1038.57 C605.95 1038.56 607.67 1038.56 609.38 1038.56 C618.87 1038.57 627.62 1038.07 636.74 1035.13 C638.05 1034.71 638.05 1034.71 639.38 1034.28 C649.52 1030.84 658.97 1024.01 665.47 1015.56 C665.89 1015.09 666.31 1014.61 666.74 1014.13 C667.4 1014.13 668.06 1014.13 668.74 1014.13 C668.97 1013.47 669.19 1012.81 669.43 1012.13 C670.51 1009.66 671.53 1007.97 673.05 1005.81 C681.92 991.46 681.45 975.96 681.35 959.68 C681.36 957.14 681.36 954.6 681.37 952.06 C681.38 946.62 681.38 941.18 681.36 935.74 C681.34 927.87 681.35 920 681.36 912.13 C681.39 899.34 681.39 886.55 681.38 873.76 C681.38 872.99 681.38 872.23 681.38 871.44 C681.38 869.9 681.38 868.35 681.38 866.81 C681.37 866.04 681.37 865.28 681.37 864.49 C681.37 863.72 681.37 862.96 681.37 862.17 C681.36 853.64 681.36 845.11 681.36 836.58 C681.36 835.82 681.36 835.05 681.36 834.27 C681.36 821.51 681.37 808.76 681.39 796 C681.4 788.15 681.4 780.3 681.39 772.45 C681.38 766.43 681.38 760.42 681.39 754.41 C681.39 751.95 681.38 749.48 681.37 747.02 C681.36 743.66 681.37 740.3 681.38 736.93 C681.37 735.96 681.36 734.99 681.35 733.99 C681.43 722.4 685.77 712.59 693.66 704.05 C703.27 695.22 713.24 691.65 726.24 691.88 C736.54 692.6 744.08 696.96 751.68 703.75 C753.49 705.84 754.7 707.58 755.74 710.13 C756.4 710.13 757.06 710.13 757.74 710.13 C758.55 711.55 759.34 712.99 760.12 714.44 C760.56 715.24 761 716.04 761.45 716.86 C764.59 724.8 765.04 733.19 765 741.64 C765 742.64 765 743.64 765 744.66 C765.01 747.98 765.01 751.29 765 754.61 C765 757 765.01 759.39 765.01 761.78 C765.02 767.58 765.02 773.38 765.01 779.18 C765.01 783.9 765.01 788.63 765.01 793.35 C765.01 794.02 765.01 794.7 765.01 795.39 C765.01 796.77 765.01 798.14 765.01 799.51 C765.02 812.35 765.01 825.2 765 838.04 C764.99 849.02 764.99 859.99 765 870.97 C765.01 883.75 765.02 896.54 765.01 909.32 C765.01 910.69 765.01 912.06 765.01 913.43 C765.01 914.1 765.01 914.78 765.01 915.47 C765.01 920.17 765.01 924.88 765.01 929.58 C765.02 935.94 765.02 942.3 765 948.66 C765 950.98 765 953.3 765.01 955.62 C765.03 966.85 764.84 977.99 763.85 989.19 C763.73 990.52 763.73 990.52 763.62 991.87 C762.88 999.29 761.12 1006.06 758.74 1013.13 C758.07 1015.46 757.4 1017.79 756.74 1020.13 C751.93 1037.07 742.61 1052.51 731.44 1066.03 C729.61 1068.22 729.61 1068.22 727.74 1071.13 C727.08 1071.13 726.42 1071.13 725.74 1071.13 C725.51 1071.68 725.27 1072.24 725.03 1072.81 C716.59 1087.96 696.71 1098.74 681.74 1106.19 C681.07 1106.53 680.4 1106.86 679.7 1107.21 C672.95 1110.58 666.17 1113.47 658.93 1115.63 C658.3 1115.83 657.67 1116.02 657.02 1116.23 C642.4 1120.6 627.69 1121.57 612.53 1121.47 C610.69 1121.47 608.84 1121.47 607 1121.47 C602.05 1121.47 597.1 1121.45 592.16 1121.43 C586.96 1121.41 581.77 1121.41 576.58 1121.41 C566.77 1121.4 556.96 1121.37 547.16 1121.34 C535.98 1121.31 524.81 1121.29 513.63 1121.28 C490.67 1121.25 467.7 1121.19 444.74 1121.13 C444.75 1121.77 444.75 1122.42 444.75 1123.09 C444.8 1129.92 444.83 1136.75 444.85 1143.58 C444.86 1146.12 444.87 1148.66 444.89 1151.19 C445.09 1180.6 444.05 1211.87 424.74 1236.13 C424.08 1236.13 423.42 1236.13 422.74 1236.13 C422.47 1236.87 422.2 1237.61 421.93 1238.38 C420.79 1241.02 419.65 1242.98 417.74 1245.13 C417.08 1245.13 416.42 1245.13 415.74 1245.13 C415.41 1246.12 415.08 1247.11 414.74 1248.13 C414.08 1248.13 413.42 1248.13 412.74 1248.13 C412.34 1249.08 412.34 1249.08 411.93 1250.06 C410.74 1252.13 410.74 1252.13 407.74 1253.13 C407.74 1253.79 407.74 1254.45 407.74 1255.13 C405.57 1256.96 403.41 1258.65 401.12 1260.31 C400.44 1260.81 399.76 1261.3 399.06 1261.81 C386.82 1270.5 372.67 1277.09 357.74 1279.13 C357.41 1279.46 357.08 1279.79 356.74 1280.13 C353.89 1280.26 351.06 1280.34 348.2 1280.36 C347.33 1280.37 346.46 1280.38 345.56 1280.39 C343.7 1280.4 341.83 1280.41 339.97 1280.42 C337.18 1280.44 334.38 1280.48 331.58 1280.53 C319.27 1280.63 307.9 1279.87 296.74 1274.13 C294.41 1273.45 292.08 1272.79 289.74 1272.13 C288.4 1271.64 287.07 1271.14 285.74 1270.63 C283.24 1269.66 280.83 1268.86 278.24 1268.13 C274.97 1267.19 271.88 1266.06 268.71 1264.84 C266.91 1264.19 265.08 1263.65 263.24 1263.13 C259.97 1262.19 256.88 1261.06 253.71 1259.84 C251.91 1259.19 250.08 1258.65 248.24 1258.13 C244.97 1257.19 241.88 1256.06 238.71 1254.84 C236.91 1254.19 235.08 1253.65 233.24 1253.13 C229.97 1252.19 226.88 1251.06 223.71 1249.84 C221.91 1249.19 220.08 1248.65 218.24 1248.13 C214.97 1247.19 211.88 1246.06 208.71 1244.84 C206.91 1244.19 205.08 1243.65 203.24 1243.13 C199.97 1242.19 196.88 1241.06 193.71 1239.84 C191.91 1239.19 190.08 1238.65 188.24 1238.13 C184.97 1237.19 181.88 1236.06 178.71 1234.84 C176.91 1234.19 175.08 1233.65 173.24 1233.13 C169.97 1232.19 166.88 1231.06 163.71 1229.84 C161.91 1229.19 160.08 1228.65 158.24 1228.13 C154.97 1227.19 151.88 1226.06 148.71 1224.84 C146.91 1224.19 145.08 1223.65 143.24 1223.13 C139.97 1222.19 136.88 1221.06 133.71 1219.84 C131.91 1219.19 130.08 1218.65 128.24 1218.13 C124.97 1217.19 121.88 1216.06 118.71 1214.84 C116.91 1214.19 115.08 1213.65 113.24 1213.13 C109.97 1212.19 106.88 1211.06 103.71 1209.84 C101.91 1209.19 100.08 1208.65 98.24 1208.13 C94.97 1207.19 91.88 1206.06 88.71 1204.84 C86.91 1204.19 85.08 1203.65 83.24 1203.13 C79.97 1202.19 76.88 1201.06 73.71 1199.84 C71.91 1199.19 70.08 1198.65 68.24 1198.13 C64.97 1197.19 61.88 1196.06 58.71 1194.84 C56.91 1194.19 55.08 1193.65 53.24 1193.13 C49.97 1192.19 46.88 1191.06 43.71 1189.84 C41.91 1189.19 40.08 1188.65 38.24 1188.13 C34.97 1187.19 31.88 1186.06 28.71 1184.84 C26.91 1184.19 25.08 1183.65 23.24 1183.13 C19.97 1182.19 16.88 1181.06 13.71 1179.84 C11.91 1179.19 10.08 1178.65 8.24 1178.13 C5.65 1177.39 3.24 1176.59 0.74 1175.63 C-3.77 1173.9 -8.38 1172.62 -13.06 1171.39 C-22.22 1168.83 -30.09 1164.89 -38.26 1160.13 C-39.27 1159.53 -40.29 1158.94 -41.34 1158.33 C-47.48 1154.58 -53.34 1150.41 -58.26 1145.13 C-58.26 1144.47 -58.26 1143.81 -58.26 1143.13 C-59.22 1142.72 -59.22 1142.72 -60.2 1142.31 C-62.26 1141.13 -62.26 1141.13 -63.26 1138.13 C-63.92 1138.13 -64.58 1138.13 -65.26 1138.13 C-67.14 1135.83 -68.9 1133.53 -70.63 1131.13 C-71.12 1130.48 -71.6 1129.83 -72.09 1129.16 C-75.35 1124.69 -77.93 1120.14 -80.26 1115.13 C-80.94 1113.7 -80.94 1113.7 -81.64 1112.25 C-85.31 1104.29 -88.17 1096.84 -89.26 1088.13 C-89.59 1087.8 -89.92 1087.47 -90.26 1087.13 C-90.36 1084.95 -90.38 1082.76 -90.38 1080.58 C-90.39 1079.89 -90.39 1079.19 -90.39 1078.47 C-90.39 1076.11 -90.39 1073.74 -90.38 1071.37 C-90.39 1069.66 -90.39 1067.96 -90.39 1066.25 C-90.39 1061.51 -90.39 1056.77 -90.39 1052.04 C-90.38 1046.9 -90.39 1041.76 -90.39 1036.62 C-90.39 1027.6 -90.39 1018.59 -90.39 1009.57 C-90.39 996.16 -90.39 982.75 -90.39 969.33 C-90.4 946.78 -90.4 924.22 -90.4 901.67 C-90.4 900.98 -90.39 900.29 -90.39 899.59 C-90.39 898.9 -90.39 898.21 -90.39 897.5 C-90.39 876.54 -90.39 855.59 -90.39 834.64 C-90.39 833.23 -90.39 831.83 -90.39 830.43 C-90.39 824.8 -90.39 819.17 -90.39 813.54 C-90.39 797.79 -90.4 782.05 -90.4 766.3 C-90.4 765.58 -90.4 764.87 -90.4 764.13 C-90.4 741.27 -90.39 718.41 -90.39 695.55 C-90.39 694.81 -90.39 694.07 -90.39 693.3 C-90.39 681.26 -90.39 669.21 -90.39 657.17 C-90.38 609.38 -90.38 561.6 -90.39 513.82 C-90.39 501.78 -90.39 489.74 -90.39 477.7 C-90.39 476.59 -90.39 476.59 -90.39 475.45 C-90.4 452.62 -90.4 429.78 -90.4 406.95 C-90.4 406.23 -90.4 405.52 -90.4 404.78 C-90.4 389.05 -90.39 373.32 -90.39 357.6 C-90.39 351.97 -90.39 346.34 -90.39 340.72 C-90.39 339.32 -90.39 337.92 -90.39 336.52 C-90.39 315.57 -90.39 294.62 -90.39 273.67 C-90.39 272.98 -90.4 272.29 -90.4 271.58 C-90.4 270.9 -90.4 270.21 -90.4 269.5 C-90.4 246.39 -90.4 223.28 -90.39 200.16 C-90.39 186.82 -90.39 173.48 -90.39 160.15 C-90.39 151.25 -90.39 142.36 -90.39 133.47 C-90.39 128.39 -90.39 123.31 -90.39 118.23 C-90.39 113.62 -90.39 109.01 -90.39 104.4 C-90.39 102.74 -90.39 101.07 -90.39 99.4 C-90.39 97.16 -90.39 94.91 -90.38 92.67 C-90.38 91.42 -90.38 90.17 -90.38 88.88 C-90.26 86.13 -90.26 86.13 -89.26 85.13 C-88.99 83.87 -88.72 82.61 -88.45 81.31 C-85.17 66.36 -78.42 50.8 -68.26 39.13 C-67.6 39.13 -66.94 39.13 -66.26 39.13 C-66.01 38.57 -65.76 38.01 -65.51 37.44 C-62.58 32.02 -58.25 27.7 -53.26 24.13 C-52.6 24.13 -51.94 24.13 -51.26 24.13 C-51.26 23.47 -51.26 22.81 -51.26 22.13 C-49 20.42 -46.75 18.85 -44.38 17.31 C-43.69 16.86 -43.01 16.41 -42.3 15.94 C-30.93 8.59 -18.78 2.94 -5.26 1.13 C-3.69 -0.44 -2.18 0 0 0 Z M2.74 85.13 C1.83 85.54 0.93 85.95 -0.01 86.38 C-5.05 90.3 -7.53 96.11 -9.26 102.13 C-9.56 105.48 -9.56 105.48 -9.51 109.08 C-9.51 109.76 -9.52 110.44 -9.52 111.14 C-9.53 113.42 -9.52 115.71 -9.52 117.99 C-9.52 119.65 -9.52 121.3 -9.53 122.96 C-9.54 127.54 -9.53 132.12 -9.53 136.69 C-9.52 141.67 -9.53 146.64 -9.54 151.61 C-9.55 160.33 -9.55 169.05 -9.55 177.77 C-9.55 190.74 -9.56 203.71 -9.57 216.68 C-9.59 241.18 -9.59 265.69 -9.59 290.2 C-9.59 292.9 -9.59 295.61 -9.59 298.31 C-9.59 298.98 -9.59 299.65 -9.59 300.34 C-9.59 315.2 -9.6 330.07 -9.6 344.93 C-9.61 351.05 -9.61 357.17 -9.61 363.29 C-9.61 363.96 -9.61 364.64 -9.61 365.33 C-9.62 404.08 -9.63 442.82 -9.63 481.57 C-9.63 483.02 -9.63 484.47 -9.63 485.92 C-9.63 492.47 -9.63 499.01 -9.63 505.56 C-9.63 508.48 -9.63 511.4 -9.63 514.32 C-9.63 515.78 -9.63 517.24 -9.63 518.7 C-9.63 564.92 -9.64 611.13 -9.67 657.35 C-9.68 668.99 -9.68 680.64 -9.69 692.28 C-9.69 693 -9.69 693.71 -9.69 694.45 C-9.7 716.55 -9.71 738.64 -9.71 760.74 C-9.71 761.43 -9.71 762.12 -9.71 762.84 C-9.72 778.06 -9.72 793.29 -9.72 808.51 C-9.72 813.96 -9.72 819.41 -9.72 824.85 C-9.72 826.21 -9.72 827.56 -9.72 828.92 C-9.72 850.52 -9.73 872.12 -9.74 893.73 C-9.76 916.09 -9.77 938.45 -9.75 960.81 C-9.74 973.7 -9.75 986.6 -9.77 999.49 C-9.78 1008.1 -9.78 1016.71 -9.76 1025.31 C-9.75 1030.22 -9.75 1035.13 -9.77 1040.04 C-9.78 1044.5 -9.78 1048.97 -9.76 1053.43 C-9.76 1055.04 -9.76 1056.64 -9.77 1058.25 C-9.83 1068.12 -9.52 1076.21 -2.82 1083.94 C2.92 1088.84 7.4 1092.13 14.74 1094.13 C17.23 1094.92 19.7 1095.74 22.18 1096.56 C22.84 1096.78 23.49 1097 24.17 1097.23 C27.55 1098.36 30.91 1099.54 34.24 1100.81 C37.71 1102.17 37.71 1102.17 41.24 1103.13 C44.44 1104.04 47.47 1105.12 50.55 1106.34 C53.57 1107.42 56.66 1108.25 59.74 1109.13 C62.23 1109.92 64.7 1110.74 67.18 1111.56 C68.16 1111.89 68.16 1111.89 69.17 1112.23 C72.55 1113.36 75.91 1114.54 79.24 1115.81 C82.71 1117.17 82.71 1117.17 86.24 1118.13 C89.44 1119.04 92.47 1120.12 95.55 1121.34 C98.57 1122.42 101.66 1123.25 104.74 1124.13 C107.23 1124.92 109.7 1125.74 112.18 1126.56 C113.16 1126.89 113.16 1126.89 114.17 1127.23 C117.55 1128.36 120.91 1129.54 124.24 1130.81 C127.71 1132.17 127.71 1132.17 131.24 1133.13 C134.51 1134.06 137.6 1135.19 140.77 1136.41 C142.57 1137.06 144.4 1137.6 146.24 1138.13 C149.51 1139.06 152.6 1140.19 155.77 1141.41 C157.57 1142.06 159.4 1142.6 161.24 1143.13 C164.51 1144.06 167.6 1145.19 170.77 1146.41 C172.57 1147.06 174.4 1147.6 176.24 1148.13 C179.51 1149.06 182.6 1150.19 185.77 1151.41 C187.57 1152.06 189.4 1152.6 191.24 1153.13 C194.51 1154.06 197.6 1155.19 200.77 1156.41 C202.57 1157.06 204.4 1157.6 206.24 1158.13 C209.51 1159.06 212.6 1160.19 215.77 1161.41 C217.57 1162.06 219.4 1162.6 221.24 1163.13 C224.51 1164.06 227.6 1165.19 230.77 1166.41 C232.57 1167.06 234.4 1167.6 236.24 1168.13 C239.51 1169.06 242.6 1170.19 245.77 1171.41 C247.57 1172.06 249.4 1172.6 251.24 1173.13 C254.51 1174.06 257.6 1175.19 260.77 1176.41 C262.57 1177.06 264.4 1177.6 266.24 1178.13 C269.51 1179.06 272.6 1180.19 275.77 1181.41 C277.57 1182.06 279.4 1182.6 281.24 1183.13 C284.51 1184.06 287.6 1185.19 290.77 1186.41 C292.57 1187.06 294.4 1187.6 296.24 1188.13 C299.51 1189.06 302.6 1190.19 305.77 1191.41 C307.57 1192.06 309.4 1192.6 311.24 1193.13 C313.82 1193.86 316.2 1194.66 318.68 1195.63 C327.82 1199.08 337.41 1201.23 346.78 1197.25 C350.52 1195.1 353.84 1192.32 356.74 1189.13 C356.74 1188.47 356.74 1187.81 356.74 1187.13 C357.4 1187.13 358.06 1187.13 358.74 1187.13 C361.13 1182.18 362.12 1178.6 362.12 1173.02 C362.13 1172 362.13 1172 362.13 1170.95 C362.15 1168.66 362.14 1166.37 362.13 1164.08 C362.13 1162.41 362.14 1160.75 362.14 1159.08 C362.16 1154.49 362.15 1149.89 362.15 1145.3 C362.14 1140.31 362.15 1135.32 362.16 1130.32 C362.18 1121.57 362.18 1112.82 362.18 1104.06 C362.17 1091.04 362.19 1078.03 362.2 1065.01 C362.23 1040.41 362.24 1015.81 362.24 991.21 C362.24 988.49 362.24 985.78 362.24 983.07 C362.24 982.39 362.24 981.72 362.24 981.03 C362.24 966.11 362.25 951.18 362.26 936.26 C362.26 930.12 362.26 923.98 362.27 917.84 C362.27 916.82 362.27 916.82 362.27 915.78 C362.29 876.88 362.3 837.98 362.3 799.09 C362.3 797.63 362.3 796.18 362.3 794.72 C362.3 788.15 362.3 781.57 362.3 775 C362.3 772.07 362.3 769.14 362.3 766.21 C362.3 764.74 362.3 763.28 362.3 761.81 C362.29 715.42 362.32 669.02 362.36 622.63 C362.37 610.94 362.38 599.25 362.39 587.57 C362.39 586.49 362.39 586.49 362.39 585.38 C362.41 563.2 362.42 541.02 362.42 518.84 C362.43 518.15 362.43 517.45 362.43 516.73 C362.43 501.45 362.43 486.16 362.43 470.88 C362.43 465.41 362.43 459.94 362.43 454.47 C362.43 453.11 362.43 451.75 362.43 450.39 C362.43 428.7 362.44 407.02 362.47 385.33 C362.5 362.89 362.5 340.44 362.48 317.99 C362.47 305.05 362.48 292.11 362.5 279.16 C362.52 270.52 362.52 261.88 362.5 253.24 C362.49 248.31 362.48 243.39 362.51 238.46 C362.53 233.98 362.52 229.49 362.5 225.01 C362.49 223.4 362.5 221.79 362.51 220.18 C362.6 210.91 362.07 203.41 355.74 196.13 C353.2 193.87 350.61 191.94 347.74 190.13 C346.75 189.47 345.76 188.81 344.74 188.13 C342.84 187.47 340.92 186.88 338.99 186.31 C334.11 184.85 329.26 183.32 324.43 181.69 C318.41 179.66 312.37 177.74 306.28 175.91 C303.16 174.96 300.2 173.89 297.2 172.6 C293.8 171.15 290.49 170.14 286.93 169.19 C281.9 167.79 277.18 166.15 272.38 164.13 C267.99 162.46 263.44 161.31 258.92 160.06 C255.38 159.02 252.13 157.58 248.74 156.13 C246.48 155.46 244.2 154.82 241.93 154.19 C236.9 152.79 232.18 151.15 227.38 149.13 C222.99 147.46 218.44 146.31 213.92 145.06 C210.38 144.02 207.13 142.58 203.74 141.13 C201.48 140.46 199.2 139.82 196.93 139.19 C191.9 137.79 187.18 136.15 182.38 134.13 C177.99 132.46 173.44 131.31 168.92 130.06 C165.38 129.02 162.13 127.58 158.74 126.13 C156.48 125.46 154.2 124.82 151.93 124.19 C146.88 122.79 142.11 121.14 137.28 119.12 C133.33 117.57 129.28 116.41 125.22 115.19 C119.66 113.49 114.16 111.62 108.65 109.77 C105.51 108.71 102.38 107.67 99.24 106.63 C94.24 104.96 89.24 103.29 84.24 101.63 C83 101.21 81.76 100.8 80.49 100.38 C78 99.55 75.51 98.71 73.03 97.88 C66.47 95.67 59.91 93.54 53.3 91.5 C47.36 89.66 41.56 87.63 35.77 85.35 C24.06 80.82 14.23 78.93 2.74 85.13 Z " fill="#ece0da" transform="translate(90.25880670547485,-0.12534916400909424)"/>
<path d="M0 0 C0 0.66 0 1.32 0 2 C1.65 2.33 3.3 2.66 5 3 C5 3.66 5 4.32 5 5 C5.76 5.27 6.53 5.54 7.31 5.81 C9.89 6.95 11.27 7.81 13 10 C13 10.66 13 11.32 13 12 C13.64 12.27 14.28 12.54 14.94 12.81 C17 14 17 14 18 17 C18.66 17.33 19.32 17.66 20 18 C20.66 18.33 21.32 18.66 22 19 C22.33 19.99 22.66 20.98 23 22 C23.66 22.33 24.32 22.66 25 23 C25.66 23.33 26.32 23.66 27 24 C27.33 24.99 27.66 25.98 28 27 C28.66 27.33 29.32 27.66 30 28 C30.66 28.33 31.32 28.66 32 29 C32.33 29.99 32.66 30.98 33 32 C33.66 32.33 34.32 32.66 35 33 C35.66 33.33 36.32 33.66 37 34 C37.33 34.99 37.66 35.98 38 37 C38.66 37.33 39.32 37.66 40 38 C40.66 38.33 41.32 38.66 42 39 C42.33 39.99 42.66 40.98 43 42 C43.66 42.33 44.32 42.66 45 43 C45.66 43.33 46.32 43.66 47 44 C47.33 44.99 47.66 45.98 48 47 C48.66 47.33 49.32 47.66 50 48 C50.66 48.33 51.32 48.66 52 49 C52.33 49.99 52.66 50.98 53 52 C53.66 52.33 54.32 52.66 55 53 C55.66 53.33 56.32 53.66 57 54 C57.33 54.99 57.66 55.98 58 57 C58.66 57.33 59.32 57.66 60 58 C60.66 58.33 61.32 58.66 62 59 C62.33 59.99 62.66 60.98 63 62 C63.66 62.33 64.32 62.66 65 63 C65.66 63.33 66.32 63.66 67 64 C67.33 64.99 67.66 65.98 68 67 C68.66 67.33 69.32 67.66 70 68 C70.66 68.33 71.32 68.66 72 69 C72.33 69.99 72.66 70.98 73 72 C73.66 72.33 74.32 72.66 75 73 C75.66 73.33 76.32 73.66 77 74 C77.33 74.99 77.66 75.98 78 77 C78.66 77.33 79.32 77.66 80 78 C80.66 78.33 81.32 78.66 82 79 C82.33 79.99 82.66 80.98 83 82 C83.66 82.33 84.32 82.66 85 83 C85.66 83.33 86.32 83.66 87 84 C87.33 84.99 87.66 85.98 88 87 C88.66 87.33 89.32 87.66 90 88 C90.66 88.33 91.32 88.66 92 89 C92.33 89.99 92.66 90.98 93 92 C93.66 92.33 94.32 92.66 95 93 C95.66 93.33 96.32 93.66 97 94 C97.33 94.99 97.66 95.98 98 97 C98.66 97.33 99.32 97.66 100 98 C100.66 98.33 101.32 98.66 102 99 C102.33 99.99 102.66 100.98 103 102 C103.66 102.33 104.32 102.66 105 103 C105.66 103.33 106.32 103.66 107 104 C107.33 104.99 107.66 105.98 108 107 C108.66 107.33 109.32 107.66 110 108 C110.66 108.33 111.32 108.66 112 109 C112.33 109.99 112.66 110.98 113 112 C113.66 112.33 114.32 112.66 115 113 C115.66 113.33 116.32 113.66 117 114 C117.33 114.99 117.66 115.98 118 117 C118.66 117.33 119.32 117.66 120 118 C120.66 118.33 121.32 118.66 122 119 C122.33 119.99 122.66 120.98 123 122 C123.66 122.33 124.32 122.66 125 123 C125.66 123.33 126.32 123.66 127 124 C127.33 124.99 127.66 125.98 128 127 C128.66 127.33 129.32 127.66 130 128 C130.66 128.33 131.32 128.66 132 129 C132.33 129.99 132.66 130.98 133 132 C133.66 132.33 134.32 132.66 135 133 C135.66 133.33 136.32 133.66 137 134 C137.33 134.99 137.66 135.98 138 137 C138.66 137.33 139.32 137.66 140 138 C140.66 138.33 141.32 138.66 142 139 C142.33 139.99 142.66 140.98 143 142 C143.66 142.33 144.32 142.66 145 143 C145.99 143.5 145.99 143.5 147 144 C147.33 144.99 147.66 145.98 148 147 C148.66 147.33 149.32 147.66 150 148 C150.66 148.33 151.32 148.66 152 149 C152.33 149.99 152.66 150.98 153 152 C153.66 152.33 154.32 152.66 155 153 C155.66 153.33 156.32 153.66 157 154 C157.33 154.99 157.66 155.98 158 157 C158.66 157.33 159.32 157.66 160 158 C160.66 158.33 161.32 158.66 162 159 C162.33 159.99 162.66 160.98 163 162 C163.66 162.33 164.32 162.66 165 163 C165.66 163.33 166.32 163.66 167 164 C167.33 164.99 167.66 165.98 168 167 C168.66 167.33 169.32 167.66 170 168 C170.66 168.33 171.32 168.66 172 169 C172.33 169.99 172.66 170.98 173 172 C173.66 172.33 174.32 172.66 175 173 C175.66 173.33 176.32 173.66 177 174 C177.33 174.99 177.66 175.98 178 177 C178.66 177.33 179.32 177.66 180 178 C180.66 178.33 181.32 178.66 182 179 C182.33 179.99 182.66 180.98 183 182 C183.66 182.33 184.32 182.66 185 183 C185.66 183.33 186.32 183.66 187 184 C187.33 184.99 187.66 185.98 188 187 C188.66 187.33 189.32 187.66 190 188 C190.66 188.33 191.32 188.66 192 189 C192.33 189.99 192.66 190.98 193 192 C193.66 192.33 194.32 192.66 195 193 C195.66 193.33 196.32 193.66 197 194 C197.33 194.99 197.66 195.98 198 197 C198.66 197.33 199.32 197.66 200 198 C200.66 198.33 201.32 198.66 202 199 C202.33 199.99 202.66 200.98 203 202 C203.84 202.4 203.84 202.4 204.69 202.81 C208.04 204.53 210.62 207.09 213 210 C213 210.66 213 211.32 213 212 C213.66 212 214.32 212 215 212 C216.22 213.57 216.22 213.57 217.5 215.69 C217.92 216.37 218.35 217.06 218.78 217.76 C222.4 224.42 222.4 230.23 222.44 237.69 C222.47 238.82 222.5 239.95 222.54 241.12 C222.6 250.43 220.09 256.37 215 264 C214.34 264 213.68 264 213 264 C212.79 264.54 212.59 265.07 212.38 265.62 C210.47 268.92 207.95 271.59 205 274 C204.34 274 203.68 274 203 274 C202.73 274.64 202.46 275.28 202.19 275.94 C201 278 201 278 198 279 C197.67 279.66 197.34 280.32 197 281 C196.67 281.66 196.34 282.32 196 283 C195.01 283.33 194.02 283.66 193 284 C192.67 284.66 192.34 285.32 192 286 C191.67 286.66 191.34 287.32 191 288 C190.01 288.33 189.02 288.66 188 289 C187.67 289.66 187.34 290.32 187 291 C186.67 291.66 186.34 292.32 186 293 C185.01 293.33 184.02 293.66 183 294 C182.67 294.66 182.34 295.32 182 296 C181.67 296.66 181.34 297.32 181 298 C180.01 298.33 179.02 298.66 178 299 C177.67 299.66 177.34 300.32 177 301 C176.67 301.66 176.34 302.32 176 303 C175.01 303.33 174.02 303.66 173 304 C172.67 304.66 172.34 305.32 172 306 C171.67 306.66 171.34 307.32 171 308 C170.01 308.33 169.02 308.66 168 309 C167.67 309.66 167.34 310.32 167 311 C166.67 311.66 166.34 312.32 166 313 C165.01 313.33 164.02 313.66 163 314 C162.67 314.66 162.34 315.32 162 316 C161.67 316.66 161.34 317.32 161 318 C160.01 318.33 159.02 318.66 158 319 C157.67 319.66 157.34 320.32 157 321 C156.67 321.66 156.34 322.32 156 323 C155.01 323.33 154.02 323.66 153 324 C152.67 324.66 152.34 325.32 152 326 C151.67 326.66 151.34 327.32 151 328 C150.01 328.33 149.02 328.66 148 329 C147.67 329.66 147.34 330.32 147 331 C146.67 331.66 146.34 332.32 146 333 C145.01 333.33 144.02 333.66 143 334 C142.67 334.66 142.34 335.32 142 336 C141.67 336.66 141.34 337.32 141 338 C140.01 338.33 139.02 338.66 138 339 C137.67 339.66 137.34 340.32 137 341 C136.67 341.66 136.34 342.32 136 343 C135.01 343.33 134.02 343.66 133 344 C132.67 344.66 132.34 345.32 132 346 C131.67 346.66 131.34 347.32 131 348 C130.01 348.33 129.02 348.66 128 349 C127.67 349.66 127.34 350.32 127 351 C126.67 351.66 126.34 352.32 126 353 C125.01 353.33 124.02 353.66 123 354 C122.67 354.66 122.34 355.32 122 356 C121.67 356.66 121.34 357.32 121 358 C120.01 358.33 119.02 358.66 118 359 C117.67 359.66 117.34 360.32 117 361 C116.67 361.66 116.34 362.32 116 363 C115.01 363.33 114.02 363.66 113 364 C112.67 364.66 112.34 365.32 112 366 C111.67 366.66 111.34 367.32 111 368 C110.01 368.33 109.02 368.66 108 369 C107.67 369.66 107.34 370.32 107 371 C106.67 371.66 106.34 372.32 106 373 C105.01 373.33 104.02 373.66 103 374 C102.67 374.66 102.34 375.32 102 376 C101.67 376.66 101.34 377.32 101 378 C100.01 378.33 99.02 378.66 98 379 C97.67 379.66 97.34 380.32 97 381 C96.67 381.66 96.34 382.32 96 383 C95.01 383.33 94.02 383.66 93 384 C92.67 384.66 92.34 385.32 92 386 C91.67 386.66 91.34 387.32 91 388 C90.01 388.33 89.02 388.66 88 389 C87.67 389.66 87.34 390.32 87 391 C86.67 391.66 86.34 392.32 86 393 C85.01 393.33 84.02 393.66 83 394 C82.67 394.66 82.34 395.32 82 396 C81.67 396.66 81.34 397.32 81 398 C80.01 398.33 79.02 398.66 78 399 C77.67 399.66 77.34 400.32 77 401 C76.67 401.66 76.34 402.32 76 403 C75.01 403.33 74.02 403.66 73 404 C72.67 404.66 72.34 405.32 72 406 C71.67 406.66 71.34 407.32 71 408 C70.01 408.33 69.02 408.66 68 409 C68 409.66 68 410.32 68 411 C66.62 412.62 66.62 412.62 65 414 C64.34 414 63.68 414 63 414 C63 414.66 63 415.32 63 416 C61.62 417.62 61.62 417.62 60 419 C59.34 419 58.68 419 58 419 C57.73 419.64 57.46 420.28 57.19 420.94 C56 423 56 423 53 424 C53 424.66 53 425.32 53 426 C51.62 427.62 51.62 427.62 50 429 C49.34 429 48.68 429 48 429 C47.73 429.64 47.46 430.28 47.19 430.94 C46 433 46 433 43 434 C42.67 434.66 42.34 435.32 42 436 C41.67 436.66 41.34 437.32 41 438 C40.01 438.33 39.02 438.66 38 439 C37.67 439.66 37.34 440.32 37 441 C36.67 441.66 36.34 442.32 36 443 C35.01 443.33 34.02 443.66 33 444 C33 444.66 33 445.32 33 446 C31.62 447.62 31.62 447.62 30 449 C29.34 449 28.68 449 28 449 C27.73 449.64 27.46 450.28 27.19 450.94 C26 453 26 453 23 454 C23 454.66 23 455.32 23 456 C21.62 457.62 21.62 457.62 20 459 C19.34 459 18.68 459 18 459 C17.73 459.64 17.46 460.28 17.19 460.94 C16 463 16 463 13 464 C13 464.66 13 465.32 13 466 C4.54 474.65 -5.9 479.41 -18 479.62 C-26.43 479.54 -33.55 476.72 -41 473 C-41 472.34 -41 471.68 -41 471 C-42.08 470.69 -42.08 470.69 -43.19 470.38 C-46.97 468.52 -48.52 466.4 -51 463 C-51 462.34 -51 461.68 -51 461 C-51.66 461 -52.32 461 -53 461 C-53.82 459.25 -54.63 457.5 -55.44 455.75 C-55.89 454.78 -56.34 453.8 -56.81 452.8 C-60.86 443.29 -60.07 431.23 -56.66 421.62 C-56.33 420.82 -56.33 420.82 -56 420 C-55.34 420 -54.68 420 -54 420 C-53.67 418.35 -53.34 416.7 -53 415 C-52.34 415 -51.68 415 -51 415 C-50.73 414.24 -50.46 413.47 -50.19 412.69 C-49.05 410.11 -48.19 408.73 -46 407 C-45.34 407 -44.68 407 -44 407 C-44 406.34 -44 405.68 -44 405 C-42.62 403.38 -42.62 403.38 -41 402 C-40.34 402 -39.68 402 -39 402 C-39 401.34 -39 400.68 -39 400 C-37.62 398.38 -37.62 398.38 -36 397 C-35.34 397 -34.68 397 -34 397 C-34 396.34 -34 395.68 -34 395 C-32.62 393.38 -32.62 393.38 -31 392 C-30.34 392 -29.68 392 -29 392 C-29 391.34 -29 390.68 -29 390 C-27.62 388.38 -27.62 388.38 -26 387 C-25.34 387 -24.68 387 -24 387 C-24 386.34 -24 385.68 -24 385 C-22.62 383.38 -22.62 383.38 -21 382 C-20.34 382 -19.68 382 -19 382 C-19 381.34 -19 380.68 -19 380 C-17.62 378.38 -17.62 378.38 -16 377 C-15.34 377 -14.68 377 -14 377 C-14 376.34 -14 375.68 -14 375 C-12.62 373.38 -12.62 373.38 -11 372 C-10.34 372 -9.68 372 -9 372 C-9 371.34 -9 370.68 -9 370 C-7.62 368.38 -7.62 368.38 -6 367 C-5.34 367 -4.68 367 -4 367 C-4 366.34 -4 365.68 -4 365 C-2.62 363.38 -2.62 363.38 -1 362 C-0.34 362 0.32 362 1 362 C1 361.34 1 360.68 1 360 C2.38 358.38 2.38 358.38 4 357 C4.66 357 5.32 357 6 357 C6 356.34 6 355.68 6 355 C7.38 353.38 7.38 353.38 9 352 C9.66 352 10.32 352 11 352 C11 351.34 11 350.68 11 350 C12.38 348.38 12.38 348.38 14 347 C14.66 347 15.32 347 16 347 C16 346.34 16 345.68 16 345 C17.38 343.38 17.38 343.38 19 342 C19.66 342 20.32 342 21 342 C21 341.34 21 340.68 21 340 C22.38 338.38 22.38 338.38 24 337 C24.66 337 25.32 337 26 337 C26 336.34 26 335.68 26 335 C27.38 333.38 27.38 333.38 29 332 C29.66 332 30.32 332 31 332 C31 331.34 31 330.68 31 330 C32.38 328.38 32.38 328.38 34 327 C34.66 327 35.32 327 36 327 C36 326.34 36 325.68 36 325 C37.38 323.38 37.38 323.38 39 322 C39.66 322 40.32 322 41 322 C41 321.34 41 320.68 41 320 C42.38 318.38 42.38 318.38 44 317 C44.66 317 45.32 317 46 317 C46 316.34 46 315.68 46 315 C47.38 313.38 47.38 313.38 49 312 C49.66 312 50.32 312 51 312 C51 311.34 51 310.68 51 310 C52.38 308.38 52.38 308.38 54 307 C54.66 307 55.32 307 56 307 C56 306.34 56 305.68 56 305 C57.38 303.38 57.38 303.38 59 302 C59.66 302 60.32 302 61 302 C61 301.34 61 300.68 61 300 C62.38 298.38 62.38 298.38 64 297 C64.66 297 65.32 297 66 297 C66 296.34 66 295.68 66 295 C67.38 293.38 67.38 293.38 69 292 C69.66 292 70.32 292 71 292 C71 291.34 71 290.68 71 290 C72.38 288.38 72.38 288.38 74 287 C74.66 287 75.32 287 76 287 C76 286.34 76 285.68 76 285 C77.38 283.38 77.38 283.38 79 282 C79.66 282 80.32 282 81 282 C81 281.34 81 280.68 81 280 C80.13 280 79.26 280 78.36 280 C26.67 279.96 -25.02 279.91 -76.71 279.82 C-82.92 279.81 -89.12 279.8 -95.33 279.79 C-97.18 279.79 -97.18 279.79 -99.07 279.79 C-119.08 279.76 -139.09 279.74 -159.1 279.73 C-179.62 279.71 -200.15 279.69 -220.68 279.65 C-233.35 279.62 -246.01 279.61 -258.68 279.61 C-267.37 279.61 -276.05 279.59 -284.74 279.57 C-289.75 279.55 -294.76 279.54 -299.77 279.55 C-304.37 279.56 -308.96 279.55 -313.55 279.53 C-315.21 279.52 -316.86 279.52 -318.52 279.53 C-327.36 279.57 -335.01 279.28 -343 275 C-343.89 274.53 -344.78 274.06 -345.7 273.58 C-350.92 270.09 -355.37 266.18 -359 261 C-359 260.34 -359 259.68 -359 259 C-359.66 259 -360.32 259 -361 259 C-366.4 246.97 -368.23 235.83 -363.5 223.12 C-362.69 221.07 -361.86 219.03 -361 217 C-360.34 217 -359.68 217 -359 217 C-358.81 216.32 -358.63 215.64 -358.44 214.94 C-354.54 206.98 -346.38 201.55 -338.29 198.38 C-331.15 196.1 -323.61 196.58 -316.2 196.6 C-314.49 196.6 -312.77 196.59 -311.05 196.58 C-306.35 196.56 -301.65 196.56 -296.95 196.57 C-291.88 196.57 -286.81 196.55 -281.73 196.54 C-272.95 196.51 -264.16 196.5 -255.38 196.5 C-242.67 196.49 -229.97 196.47 -217.27 196.44 C-196.66 196.4 -176.05 196.37 -155.44 196.35 C-135.42 196.33 -115.4 196.3 -95.39 196.26 C-94.15 196.26 -92.92 196.26 -91.65 196.26 C-85.45 196.24 -79.26 196.23 -73.07 196.22 C-21.71 196.13 29.64 196.06 81 196 C81 195.34 81 194.68 81 194 C80.34 194 79.68 194 79 194 C77.38 192.62 77.38 192.62 76 191 C76 190.34 76 189.68 76 189 C75.34 189 74.68 189 74 189 C72.38 187.63 72.38 187.63 71 186 C71 185.34 71 184.68 71 184 C70.34 184 69.68 184 69 184 C67.38 182.63 67.38 182.63 66 181 C66 180.34 66 179.68 66 179 C65.34 179 64.68 179 64 179 C62.38 177.63 62.38 177.63 61 176 C61 175.34 61 174.68 61 174 C60.34 174 59.68 174 59 174 C57.38 172.63 57.38 172.63 56 171 C56 170.34 56 169.68 56 169 C55.34 169 54.68 169 54 169 C52.38 167.63 52.38 167.63 51 166 C51 165.34 51 164.68 51 164 C50.34 164 49.68 164 49 164 C47.38 162.63 47.38 162.63 46 161 C46 160.34 46 159.68 46 159 C45.34 159 44.68 159 44 159 C42.38 157.63 42.38 157.63 41 156 C41 155.34 41 154.68 41 154 C40.34 154 39.68 154 39 154 C37.38 152.63 37.38 152.63 36 151 C36 150.34 36 149.68 36 149 C35.34 149 34.68 149 34 149 C32.38 147.63 32.38 147.63 31 146 C31 145.34 31 144.68 31 144 C30.34 144 29.68 144 29 144 C27.38 142.63 27.38 142.63 26 141 C26 140.34 26 139.68 26 139 C25.34 139 24.68 139 24 139 C22.38 137.63 22.38 137.63 21 136 C21 135.34 21 134.68 21 134 C20.34 134 19.68 134 19 134 C17.38 132.63 17.38 132.63 16 131 C16 130.34 16 129.68 16 129 C15.34 129 14.68 129 14 129 C12.38 127.63 12.38 127.63 11 126 C11 125.34 11 124.68 11 124 C10.34 124 9.68 124 9 124 C7.38 122.62 7.38 122.62 6 121 C6 120.34 6 119.68 6 119 C5.34 119 4.68 119 4 119 C2.38 117.62 2.38 117.62 1 116 C1 115.34 1 114.68 1 114 C0.34 114 -0.32 114 -1 114 C-2.62 112.62 -2.62 112.62 -4 111 C-4 110.34 -4 109.68 -4 109 C-4.66 109 -5.32 109 -6 109 C-7.62 107.62 -7.62 107.62 -9 106 C-9 105.34 -9 104.68 -9 104 C-9.66 104 -10.32 104 -11 104 C-12.62 102.62 -12.62 102.62 -14 101 C-14 100.34 -14 99.68 -14 99 C-14.66 99 -15.32 99 -16 99 C-17.62 97.62 -17.62 97.62 -19 96 C-19 95.34 -19 94.68 -19 94 C-19.66 94 -20.32 94 -21 94 C-22.62 92.62 -22.62 92.62 -24 91 C-24 90.34 -24 89.68 -24 89 C-24.66 89 -25.32 89 -26 89 C-27.62 87.62 -27.62 87.62 -29 86 C-29 85.34 -29 84.68 -29 84 C-29.66 84 -30.32 84 -31 84 C-32.62 82.62 -32.62 82.62 -34 81 C-34 80.34 -34 79.68 -34 79 C-34.66 79 -35.32 79 -36 79 C-37.62 77.62 -37.62 77.62 -39 76 C-39 75.34 -39 74.68 -39 74 C-39.66 74 -40.32 74 -41 74 C-42.62 72.62 -42.62 72.62 -44 71 C-44 70.34 -44 69.68 -44 69 C-44.66 69 -45.32 69 -46 69 C-51 63.52 -51 63.52 -51 61 C-51.66 61 -52.32 61 -53 61 C-53.82 59.25 -54.63 57.5 -55.44 55.75 C-55.89 54.78 -56.34 53.8 -56.81 52.8 C-60.86 43.29 -60.07 31.23 -56.66 21.62 C-56.44 21.09 -56.22 20.55 -56 20 C-55.34 20 -54.68 20 -54 20 C-53.67 18.35 -53.34 16.7 -53 15 C-52.34 15 -51.68 15 -51 15 C-50.69 13.92 -50.69 13.92 -50.38 12.81 C-48.52 9.03 -46.4 7.48 -43 5 C-42.34 5 -41.68 5 -41 5 C-41 4.34 -41 3.68 -41 3 C-29.86 -5.54 -12.45 -5.03 0 0 Z " fill="#ece0da" transform="translate(1058,322)"/>
</svg>
