<?xml version="1.0" encoding="UTF-8"?>
<!-- Generator: visioncortex VTracer 0.6.3 -->
<svg version="1.1" xmlns="http://www.w3.org/2000/svg" width="1280" height="1280">
<path d="M0 0 C1.37 0 1.37 0 2.76 0.01 C3.69 0.01 4.62 0 5.57 0 C7.54 0 9.51 0 11.47 0.01 C14.5 0.01 17.52 0.01 20.54 0 C22.45 0 24.35 0 26.26 0.01 C27.17 0 28.08 0 29.02 0 C35.39 0.02 35.39 0.02 36.51 1.14 C37.92 1.44 39.34 1.71 40.76 1.95 C59.45 5.63 74.46 13.81 89.51 25.14 C90.5 25.8 91.49 26.46 92.51 27.14 C92.51 27.8 92.51 28.46 92.51 29.14 C93.15 29.41 93.79 29.68 94.45 29.95 C96.51 31.14 96.51 31.14 97.51 34.14 C98.17 34.47 98.83 34.8 99.51 35.14 C100.17 35.47 100.83 35.8 101.51 36.14 C101.84 37.13 102.17 38.12 102.51 39.14 C103.17 39.14 103.83 39.14 104.51 39.14 C105.95 40.87 107.32 42.68 108.63 44.51 C109.36 45.51 110.08 46.51 110.83 47.54 C112.51 50.14 112.51 50.14 112.51 52.14 C113.17 52.14 113.83 52.14 114.51 52.14 C116.55 55.04 117.51 56.54 117.51 60.14 C118.17 60.14 118.83 60.14 119.51 60.14 C120.8 63.2 122.09 66.26 123.38 69.33 C123.75 70.19 124.11 71.06 124.49 71.95 C134.7 96.18 138.72 129.12 128.63 154.33 C127.96 155.83 127.28 157.33 126.58 158.82 C125.47 161.23 124.52 163.66 123.57 166.14 C121.62 171.07 119.21 175.59 116.51 180.14 C116.06 180.91 115.61 181.68 115.15 182.48 C112.63 186.7 112.63 186.7 111.51 188.14 C110.85 188.14 110.19 188.14 109.51 188.14 C109.29 188.84 109.06 189.54 108.83 190.27 C107.22 193.77 104.95 196.31 102.32 199.08 C101.58 199.86 101.58 199.86 100.83 200.67 C97.27 204.44 93.64 207.97 89.51 211.14 C88.85 211.14 88.19 211.14 87.51 211.14 C87.51 211.8 87.51 212.46 87.51 213.14 C86.52 213.14 85.53 213.14 84.51 213.14 C84.51 213.8 84.51 214.46 84.51 215.14 C79.79 219.17 74.08 221.99 68.57 224.76 C67.97 225.07 67.38 225.37 66.76 225.68 C63.17 227.46 59.65 228.71 55.82 229.83 C52.62 231.04 51.75 231.63 50.27 234.77 C49.44 237.9 48.91 240.93 48.51 244.14 C48.38 244.98 48.26 245.83 48.13 246.7 C47.87 248.51 47.68 250.32 47.51 252.14 C48.68 252.45 48.68 252.45 49.88 252.76 C50.89 253.03 51.9 253.3 52.95 253.58 C53.96 253.84 54.96 254.11 56 254.39 C58.51 255.14 58.51 255.14 59.51 256.14 C60.54 256.28 61.57 256.43 62.63 256.58 C67.2 257.24 71.48 258.27 75.74 260.09 C79.16 261.38 82.64 262.16 86.2 262.95 C93.25 264.56 100.22 266.39 107.18 268.39 C111.58 269.64 115.99 270.73 120.47 271.69 C124.32 272.54 128.1 273.54 131.73 275.09 C135.15 276.38 138.63 277.16 142.2 277.95 C149.25 279.56 156.22 281.39 163.18 283.39 C167.58 284.64 171.99 285.73 176.47 286.69 C180.43 287.57 184.28 288.62 188.01 290.2 C191.14 291.38 194.2 291.68 197.51 292.14 C200.67 292.96 203.7 293.79 206.7 295.08 C211.02 296.71 215.5 297.57 220.01 298.55 C228.07 300.37 235.18 303.35 242.51 307.14 C242.51 307.8 242.51 308.46 242.51 309.14 C243.17 309.14 243.83 309.14 244.51 309.14 C250.32 315.44 251.86 321.93 251.7 330.33 C251.35 335.37 250.23 340.03 248.59 344.8 C246.94 349.88 245.68 355.06 244.36 360.24 C243.3 364.34 242.13 368.21 240.51 372.14 C240.16 374.47 239.83 376.8 239.51 379.14 C238.67 382.37 237.83 385.42 236.46 388.46 C235.35 391.58 235.26 394.03 235.26 397.34 C235.25 398.59 235.25 399.85 235.24 401.15 C235.25 402.54 235.25 403.94 235.26 405.33 C235.26 406.82 235.25 408.31 235.25 409.8 C235.24 413.91 235.25 418.02 235.25 422.13 C235.26 426.6 235.25 431.06 235.25 435.53 C235.24 443.36 235.24 451.19 235.25 459.02 C235.25 470.67 235.25 482.31 235.24 493.96 C235.23 513.55 235.23 533.14 235.23 552.73 C235.24 580.71 235.22 608.69 235.21 636.68 C235.2 647.9 235.19 659.12 235.19 670.35 C235.19 671.59 235.19 672.84 235.19 674.13 C235.17 703.82 235.16 733.51 235.15 763.21 C235.15 765.16 235.15 765.16 235.15 767.15 C235.14 797.47 235.13 827.79 235.13 858.12 C235.13 859.42 235.13 860.73 235.13 862.07 C235.13 868.65 235.13 875.23 235.13 881.8 C235.13 883.1 235.13 884.4 235.13 885.74 C235.13 888.37 235.13 890.99 235.13 893.61 C235.12 936.94 235.11 980.26 235.08 1023.58 C235.07 1029.69 235.07 1035.81 235.06 1041.92 C235.06 1043.13 235.06 1044.33 235.06 1045.57 C235.05 1064.96 235.05 1084.35 235.06 1103.75 C235.06 1123.22 235.06 1142.7 235.04 1162.18 C235.03 1173.76 235.02 1185.34 235.04 1196.92 C235.05 1204.65 235.04 1212.38 235.03 1220.11 C235.02 1224.52 235.01 1228.93 235.03 1233.34 C235.04 1237.34 235.04 1241.35 235.02 1245.36 C235.01 1246.8 235.02 1248.25 235.03 1249.69 C235.09 1260.01 233.98 1267.46 226.51 1275.14 C219.82 1281.01 213.13 1280.84 204.56 1280.76 C203.13 1280.76 201.71 1280.77 200.28 1280.78 C196.36 1280.8 192.44 1280.78 188.52 1280.76 C184.26 1280.75 179.99 1280.76 175.73 1280.77 C168.26 1280.78 160.78 1280.78 153.31 1280.76 C142.2 1280.74 131.08 1280.74 119.97 1280.75 C101.28 1280.76 82.58 1280.75 63.89 1280.73 C45.37 1280.71 26.86 1280.69 8.34 1280.69 C7.19 1280.69 6.04 1280.69 4.85 1280.69 C0.18 1280.69 -4.49 1280.69 -9.16 1280.69 C-53 1280.69 -96.84 1280.66 -140.67 1280.62 C-179.64 1280.59 -218.62 1280.57 -257.59 1280.56 C-258.83 1280.56 -260.07 1280.56 -261.34 1280.56 C-265.09 1280.56 -268.84 1280.56 -272.59 1280.56 C-277.57 1280.56 -282.55 1280.56 -287.53 1280.56 C-288.76 1280.56 -289.99 1280.56 -291.25 1280.56 C-329.62 1280.56 -367.98 1280.54 -406.34 1280.52 C-419.07 1280.51 -431.81 1280.51 -444.55 1280.51 C-446.27 1280.51 -446.27 1280.51 -448.02 1280.51 C-449.17 1280.51 -450.32 1280.51 -451.5 1280.5 C-473.53 1280.5 -495.57 1280.49 -517.6 1280.46 C-528.65 1280.45 -539.7 1280.44 -550.75 1280.44 C-558.12 1280.44 -565.49 1280.44 -572.86 1280.42 C-577.07 1280.42 -581.28 1280.41 -585.48 1280.42 C-589.3 1280.42 -593.13 1280.42 -596.95 1280.4 C-598.33 1280.4 -599.7 1280.4 -601.08 1280.41 C-602.95 1280.41 -604.81 1280.4 -606.68 1280.39 C-608.23 1280.39 -608.23 1280.39 -609.81 1280.39 C-612.53 1280.14 -614.17 1279.53 -616.49 1278.14 C-616.49 1277.48 -616.49 1276.82 -616.49 1276.14 C-617.38 1275.74 -617.38 1275.74 -618.3 1275.34 C-620.6 1274.08 -621.91 1272.87 -623.62 1270.89 C-624.11 1270.33 -624.61 1269.76 -625.12 1269.19 C-628.87 1263.58 -628.78 1257.79 -628.77 1251.31 C-628.78 1250.32 -628.78 1249.34 -628.79 1248.32 C-628.8 1245.02 -628.81 1241.72 -628.81 1238.43 C-628.82 1236.06 -628.83 1233.7 -628.84 1231.33 C-628.87 1224.91 -628.88 1218.49 -628.9 1212.07 C-628.91 1206.04 -628.93 1200.01 -628.96 1193.98 C-629 1182.03 -629.04 1170.09 -629.07 1158.15 C-629.1 1146.55 -629.13 1134.95 -629.17 1123.35 C-629.18 1122.28 -629.18 1122.28 -629.18 1121.18 C-629.19 1117.59 -629.21 1114 -629.22 1110.42 C-629.32 1080.66 -629.41 1050.9 -629.49 1021.14 C-631.36 1020.92 -631.36 1020.92 -633.26 1020.69 C-637.21 1020.23 -640.91 1019.33 -644.74 1018.26 C-649.48 1016.96 -654.22 1015.69 -658.99 1014.51 C-669.98 1011.79 -669.98 1011.79 -673.7 1010.19 C-677.13 1008.9 -680.61 1008.12 -684.18 1007.33 C-691.24 1005.72 -698.21 1003.89 -705.16 1001.89 C-708.81 1000.85 -712.44 999.91 -716.15 999.12 C-719.7 998.35 -723.05 997.31 -726.49 996.14 C-730.51 995.03 -734.55 994.02 -738.59 992.99 C-742.7 991.93 -746.57 990.76 -750.49 989.14 C-752.82 988.79 -755.16 988.46 -757.49 988.14 C-760.77 987.29 -763.88 986.4 -766.99 985.08 C-770.13 983.9 -773.18 983.6 -776.49 983.14 C-778.84 982.52 -781.17 981.85 -783.49 981.14 C-784.28 980.95 -785.06 980.75 -785.87 980.55 C-791.98 978.96 -796.98 976.67 -801.49 972.14 C-801.49 971.48 -801.49 970.82 -801.49 970.14 C-802.15 970.14 -802.81 970.14 -803.49 970.14 C-808.83 962.57 -809.48 954.6 -808.11 945.64 C-807.44 942.5 -806.62 939.51 -805.58 936.47 C-803.92 931.39 -802.66 926.22 -801.35 921.04 C-800.5 917.78 -799.68 914.62 -798.43 911.49 C-797.21 908.43 -796.63 905.37 -795.99 902.14 C-795.15 897.9 -794.13 894.12 -792.49 890.14 C-792.15 887.81 -791.82 885.47 -791.49 883.14 C-790.64 880.31 -789.7 877.61 -788.52 874.9 C-787.32 871.68 -786.66 868.51 -785.99 865.14 C-785.15 860.9 -784.13 857.12 -782.49 853.14 C-782.15 850.81 -781.81 848.47 -781.49 846.14 C-780.64 842.86 -779.75 839.75 -778.43 836.64 C-777.26 833.51 -776.96 830.44 -776.49 827.14 C-775.82 825.14 -775.16 823.14 -774.49 821.14 C-773.39 817.12 -772.37 813.08 -771.35 809.04 C-770.5 805.78 -769.68 802.62 -768.43 799.49 C-767.21 796.43 -766.63 793.37 -765.99 790.14 C-765.15 785.9 -764.13 782.12 -762.49 778.14 C-762.15 775.81 -761.82 773.47 -761.49 771.14 C-760.82 769.14 -760.16 767.14 -759.49 765.14 C-758.39 761.12 -757.37 757.08 -756.35 753.04 C-755.29 748.93 -754.11 745.06 -752.49 741.14 C-752.15 738.81 -751.81 736.47 -751.49 734.14 C-750.67 730.97 -749.83 727.93 -748.54 724.92 C-747.23 721.44 -746.42 717.89 -745.62 714.26 C-744.28 708.45 -742.89 702.66 -741.37 696.89 C-740.9 695.12 -740.9 695.12 -740.42 693.31 C-739.49 690.14 -739.49 690.14 -738.41 687.43 C-737.19 684.39 -736.94 681.38 -736.49 678.14 C-735.67 674.96 -734.83 671.93 -733.54 668.91 C-732.25 665.49 -731.47 662.01 -730.68 658.45 C-729.07 651.39 -727.24 644.42 -725.24 637.47 C-723.99 633.06 -722.9 628.65 -721.94 624.18 C-721.09 620.35 -720.12 616.58 -718.56 612.98 C-717.14 609.19 -716.3 605.34 -715.43 601.39 C-713.62 593.27 -713.62 593.27 -712.49 592.14 C-711.69 588.66 -711.01 585.16 -710.31 581.65 C-709.6 578.62 -708.68 576 -707.49 573.14 C-707.15 570.81 -706.81 568.47 -706.49 566.14 C-705.67 562.96 -704.83 559.93 -703.54 556.91 C-702.25 553.49 -701.47 550.01 -700.68 546.45 C-699.07 539.39 -697.24 532.42 -695.24 525.47 C-693.99 521.06 -692.9 516.65 -691.94 512.18 C-691.09 508.32 -690.09 504.55 -688.54 500.92 C-687.25 497.49 -686.47 494.01 -685.68 490.45 C-684.07 483.39 -682.24 476.42 -680.24 469.47 C-678.99 465.06 -677.9 460.65 -676.94 456.18 C-676.09 452.35 -675.12 448.58 -673.56 444.98 C-672.14 441.19 -671.3 437.34 -670.43 433.39 C-668.62 425.27 -668.62 425.27 -667.49 424.14 C-666.69 420.66 -666.01 417.16 -665.31 413.65 C-664.6 410.62 -663.68 408 -662.49 405.14 C-662.15 402.81 -661.81 400.47 -661.49 398.14 C-660.67 394.96 -659.83 391.93 -658.54 388.91 C-657.25 385.49 -656.47 382.01 -655.68 378.45 C-654.07 371.39 -652.24 364.42 -650.24 357.47 C-648.99 353.06 -647.9 348.65 -646.94 344.18 C-646.09 340.35 -645.12 336.58 -643.56 332.98 C-642.14 329.19 -641.3 325.34 -640.43 321.39 C-638.62 313.27 -638.62 313.27 -637.49 312.14 C-636.69 308.66 -636.01 305.16 -635.31 301.65 C-634.6 298.62 -633.68 296 -632.49 293.14 C-632.15 290.81 -631.81 288.47 -631.49 286.14 C-630.67 282.96 -629.83 279.93 -628.54 276.91 C-627.25 273.49 -626.47 270.01 -625.68 266.45 C-624.07 259.39 -622.24 252.42 -620.24 245.47 C-618.99 241.06 -617.9 236.65 -616.94 232.18 C-616.09 228.35 -615.12 224.58 -613.56 220.98 C-612.14 217.19 -611.3 213.34 -610.43 209.39 C-608.62 201.27 -608.62 201.27 -607.49 200.14 C-606.69 196.66 -606.01 193.16 -605.31 189.65 C-604.6 186.62 -603.68 184 -602.49 181.14 C-602.15 178.81 -601.81 176.47 -601.49 174.14 C-600.68 170.99 -599.85 167.96 -598.55 164.97 C-597.13 161.19 -596.3 157.33 -595.43 153.39 C-593.62 145.27 -593.62 145.27 -592.49 144.14 C-591.69 140.66 -591.01 137.16 -590.31 133.65 C-589.6 130.62 -588.67 128 -587.49 125.14 C-587.35 124.07 -587.2 122.99 -587.05 121.89 C-586.12 115.69 -583.91 109.91 -581.49 104.14 C-580.83 104.14 -580.17 104.14 -579.49 104.14 C-579.31 103.42 -579.12 102.7 -578.93 101.95 C-576.96 98.09 -574.15 96.34 -570.49 94.14 C-569.64 93.58 -569.64 93.58 -568.76 93.02 C-565.39 91.71 -562.06 91.76 -558.49 91.76 C-557.36 91.76 -557.36 91.76 -556.2 91.76 C-550.36 91.88 -545.47 93.06 -540 95.19 C-536.87 96.37 -533.81 96.75 -530.49 97.14 C-527.34 97.95 -524.32 98.78 -521.33 100.08 C-517.54 101.5 -513.68 102.33 -509.74 103.2 C-501.62 105.01 -501.62 105.01 -500.49 106.14 C-497.01 106.94 -493.51 107.62 -490.01 108.32 C-486.97 109.03 -484.35 109.96 -481.49 111.14 C-479.16 111.48 -476.83 111.82 -474.49 112.14 C-471.21 112.99 -468.11 113.88 -464.99 115.2 C-461.86 116.38 -458.8 116.68 -455.49 117.14 C-453.49 117.8 -451.49 118.47 -449.49 119.14 C-445.9 120.18 -442.29 121.16 -438.68 122.14 C-437.73 122.4 -436.79 122.66 -435.81 122.93 C-430.71 124.32 -425.61 125.61 -420.43 126.71 C-416.64 127.55 -412.91 128.53 -409.33 130.07 C-405.54 131.49 -401.69 132.33 -397.74 133.2 C-389.62 135.01 -389.62 135.01 -388.49 136.14 C-385.01 136.94 -381.51 137.62 -378.01 138.32 C-374.97 139.03 -372.35 139.96 -369.49 141.14 C-367.16 141.48 -364.83 141.82 -362.49 142.14 C-359.34 142.95 -356.32 143.78 -353.33 145.08 C-349.54 146.5 -345.68 147.33 -341.74 148.2 C-333.62 150.01 -333.62 150.01 -332.49 151.14 C-329.01 151.94 -325.51 152.62 -322.01 153.32 C-318.97 154.03 -316.35 154.96 -313.49 156.14 C-311.16 156.48 -308.83 156.82 -306.49 157.14 C-303.32 157.96 -300.28 158.8 -297.26 160.09 C-293.84 161.38 -290.36 162.16 -286.8 162.95 C-279.75 164.56 -272.78 166.39 -265.82 168.39 C-262.18 169.43 -258.54 170.37 -254.83 171.16 C-251.29 171.93 -247.93 172.97 -244.49 174.14 C-240.47 175.24 -236.43 176.26 -232.39 177.28 C-229.13 178.12 -225.98 178.94 -222.86 180.19 C-219.7 181.46 -216.51 182.08 -213.18 182.76 C-211.92 183.02 -210.67 183.28 -209.38 183.55 C-207.95 183.84 -207.95 183.84 -206.49 184.14 C-206.39 183.54 -206.3 182.95 -206.19 182.34 C-203.08 165.06 -194.67 145.78 -183.49 132.14 C-182.83 132.14 -182.17 132.14 -181.49 132.14 C-181.28 131.46 -181.08 130.78 -180.87 130.08 C-177.54 122.98 -171.38 118.11 -165.49 113.14 C-164.5 112.26 -164.5 112.26 -163.5 111.37 C-162.88 110.82 -162.26 110.27 -161.62 109.7 C-161.06 109.21 -160.51 108.71 -159.94 108.21 C-158.49 107.14 -158.49 107.14 -156.49 107.14 C-156.49 106.48 -156.49 105.82 -156.49 105.14 C-151.1 100.62 -144.61 97.55 -138.32 94.51 C-136.07 93.42 -133.88 92.27 -131.68 91.08 C-122.42 86.46 -112.12 83.83 -102 81.91 C-99.16 81.33 -99.16 81.33 -97.49 78.14 C-97.04 76.82 -96.63 75.48 -96.24 74.14 C-91.96 60.92 -82.99 47.21 -73.49 37.14 C-72.83 37.14 -72.17 37.14 -71.49 37.14 C-71.22 36.5 -70.95 35.86 -70.68 35.2 C-69.49 33.14 -69.49 33.14 -66.49 32.14 C-66.49 31.48 -66.49 30.82 -66.49 30.14 C-49.51 14.14 -49.51 14.14 -41.49 14.14 C-41.49 13.48 -41.49 12.82 -41.49 12.14 C-30.79 6.91 -19.47 2.1 -7.49 1.14 C-5.54 -0.81 -2.59 0.01 0 0 Z M-28.49 66.14 C-28.49 66.8 -28.49 67.46 -28.49 68.14 C-29.13 68.41 -29.77 68.68 -30.43 68.95 C-32.82 70.03 -32.82 70.03 -33.49 73.14 C-34.15 73.14 -34.81 73.14 -35.49 73.14 C-35.49 73.8 -35.49 74.46 -35.49 75.14 C-36.15 75.14 -36.81 75.14 -37.49 75.14 C-49.55 91.64 -54.61 109.74 -51.8 130.08 C-49.99 139.83 -46.33 149.1 -40.49 157.14 C-39.83 157.14 -39.17 157.14 -38.49 157.14 C-38.22 157.72 -37.95 158.3 -37.67 158.9 C-30.96 171.62 -16.16 179.08 -2.97 183.25 C2.75 184.61 8.54 184.47 14.38 184.45 C16.06 184.48 16.06 184.48 17.78 184.5 C33.16 184.51 46.46 178.56 58.51 169.14 C58.51 168.48 58.51 167.82 58.51 167.14 C59.47 166.74 59.47 166.74 60.45 166.33 C62.84 165.25 62.84 165.25 63.51 162.14 C64.17 162.14 64.83 162.14 65.51 162.14 C75.34 150.91 80.52 138.06 81.2 123.26 C81.23 122.47 81.27 121.68 81.31 120.87 C81.7 111.63 80.85 103.8 77.51 95.14 C77.02 93.85 77.02 93.85 76.53 92.53 C74.06 86.05 74.06 86.05 70.51 80.14 C69.85 80.14 69.19 80.14 68.51 80.14 C68.24 79.56 67.97 78.97 67.69 78.37 C61.56 66.79 47.84 58.04 35.71 53.8 C13.65 47.19 -10.32 51.94 -28.49 66.14 Z M-115.49 141.14 C-119.26 143.33 -122.9 145.67 -126.49 148.14 C-127.26 148.66 -128.02 149.19 -128.81 149.73 C-129.37 150.19 -129.92 150.66 -130.49 151.14 C-130.49 151.8 -130.49 152.46 -130.49 153.14 C-131.48 153.47 -132.47 153.8 -133.49 154.14 C-133.49 154.8 -133.49 155.46 -133.49 156.14 C-134.15 156.14 -134.81 156.14 -135.49 156.14 C-135.49 156.8 -135.49 157.46 -135.49 158.14 C-136.15 158.14 -136.81 158.14 -137.49 158.14 C-139.04 160.13 -140.47 162.11 -141.87 164.2 C-142.27 164.8 -142.68 165.41 -143.1 166.03 C-144.24 167.73 -145.37 169.43 -146.49 171.14 C-146.87 171.7 -147.25 172.26 -147.64 172.84 C-158.74 190.37 -159.11 212.41 -154.86 232.06 C-152.14 242.1 -146.73 251.87 -140.49 260.14 C-139.83 260.14 -139.17 260.14 -138.49 260.14 C-138.23 260.72 -137.98 261.3 -137.71 261.9 C-130.78 274.63 -113.82 282.98 -100.49 287.14 C-93 289.08 -85.76 289.47 -78.05 289.45 C-77 289.47 -75.94 289.48 -74.86 289.5 C-60.15 289.51 -47.36 283.82 -34.49 277.14 C-34.49 276.48 -34.49 275.82 -34.49 275.14 C-33.95 274.89 -33.42 274.64 -32.87 274.39 C-29.91 272.83 -27.19 271.1 -24.49 269.14 C-24.49 268.48 -24.49 267.82 -24.49 267.14 C-23.5 266.81 -22.51 266.48 -21.49 266.14 C-21.49 265.48 -21.49 264.82 -21.49 264.14 C-20.83 264.14 -20.17 264.14 -19.49 264.14 C-17.44 261.77 -17.44 261.77 -15.37 258.83 C-14.64 257.84 -13.92 256.85 -13.17 255.84 C-11.23 253.24 -11.23 253.24 -11.49 250.14 C-10.83 250.14 -10.17 250.14 -9.49 250.14 C-8.65 248.39 -7.82 246.64 -6.99 244.89 C-6.53 243.91 -6.06 242.94 -5.58 241.94 C-4.25 239.02 -4.25 239.02 -4.49 235.14 C-5.39 234.97 -6.28 234.8 -7.2 234.62 C-13.79 233.3 -19.98 231.84 -26.15 229.15 C-27.68 228.49 -29.23 227.87 -30.8 227.31 C-42.6 223.05 -53.02 216 -62.42 207.79 C-64.31 205.93 -64.31 205.93 -66.49 206.14 C-66.82 205.15 -67.15 204.16 -67.49 203.14 C-68.15 203.14 -68.81 203.14 -69.49 203.14 C-69.49 202.48 -69.49 201.82 -69.49 201.14 C-70.15 201.14 -70.81 201.14 -71.49 201.14 C-71.89 200.27 -71.89 200.27 -72.3 199.39 C-73.52 197.08 -74.79 195.12 -76.49 193.14 C-77.15 193.14 -77.81 193.14 -78.49 193.14 C-78.72 192.62 -78.94 192.11 -79.18 191.58 C-80.51 188.96 -80.51 188.96 -82.74 186.14 C-85.73 182.04 -87.88 177.6 -90.08 173.05 C-91.21 170.73 -92.39 168.47 -93.62 166.2 C-95.93 161.62 -97.24 156.72 -98.66 151.8 C-99.23 149.24 -99.23 149.24 -100.49 148.14 C-100.88 146.46 -101.23 144.77 -101.55 143.08 C-101.73 142.16 -101.91 141.24 -102.09 140.29 C-102.29 139.23 -102.29 139.23 -102.49 138.14 C-107.35 136.52 -111.04 138.97 -115.49 141.14 Z M-540.49 150.14 C-543.48 161.13 -543.48 161.13 -546.06 172.22 C-546.91 176.03 -547.91 179.77 -549.44 183.36 C-550.73 186.78 -551.52 190.26 -552.3 193.83 C-553.91 200.88 -555.74 207.85 -557.74 214.81 C-559 219.21 -560.08 223.62 -561.04 228.1 C-561.89 231.93 -562.87 235.69 -564.42 239.3 C-565.85 243.09 -566.68 246.94 -567.55 250.89 C-569.36 259.01 -569.36 259.01 -570.49 260.14 C-571.29 263.62 -571.97 267.12 -572.67 270.62 C-573.38 273.66 -574.31 276.28 -575.49 279.14 C-575.84 281.47 -576.17 283.8 -576.49 286.14 C-577.31 289.29 -578.13 292.31 -579.43 295.3 C-580.85 299.09 -581.68 302.95 -582.55 306.89 C-584.36 315.01 -584.36 315.01 -585.49 316.14 C-586.29 319.62 -586.97 323.12 -587.67 326.62 C-588.38 329.66 -589.31 332.28 -590.49 335.14 C-590.84 337.47 -591.17 339.8 -591.49 342.14 C-592.31 345.31 -593.16 348.35 -594.44 351.37 C-595.74 354.79 -596.52 358.27 -597.3 361.83 C-598.91 368.88 -600.74 375.85 -602.74 382.81 C-604 387.21 -605.08 391.62 -606.04 396.1 C-606.89 399.93 -607.87 403.69 -609.42 407.3 C-610.85 411.09 -611.68 414.94 -612.55 418.89 C-614.36 427.01 -614.36 427.01 -615.49 428.14 C-616.29 431.62 -616.97 435.12 -617.67 438.62 C-618.38 441.66 -619.31 444.28 -620.49 447.14 C-620.83 449.47 -621.16 451.8 -621.49 454.14 C-622.15 456.14 -622.82 458.14 -623.49 460.14 C-624.28 462.96 -625.01 465.8 -625.74 468.64 C-627.9 476.94 -630.14 485.22 -632.44 493.49 C-633.57 497.61 -634.64 501.73 -635.54 505.91 C-636.3 509.42 -637.34 512.74 -638.49 516.14 C-639.6 520.16 -640.61 524.2 -641.64 528.24 C-642.48 531.5 -643.3 534.66 -644.55 537.79 C-645.77 540.85 -646.35 543.91 -646.99 547.14 C-647.83 551.37 -648.85 555.15 -650.49 559.14 C-650.83 561.47 -651.16 563.8 -651.49 566.14 C-652.16 568.14 -652.82 570.14 -653.49 572.14 C-654.6 576.16 -655.61 580.2 -656.64 584.24 C-657.48 587.5 -658.3 590.66 -659.55 593.79 C-660.77 596.85 -661.35 599.91 -661.99 603.14 C-662.83 607.37 -663.85 611.15 -665.49 615.14 C-665.83 617.47 -666.16 619.8 -666.49 622.14 C-667.16 624.14 -667.82 626.14 -668.49 628.14 C-669.6 632.16 -670.61 636.2 -671.64 640.24 C-672.7 644.34 -673.87 648.21 -675.49 652.14 C-675.84 654.47 -676.17 656.8 -676.49 659.14 C-677.34 662.42 -678.23 665.52 -679.55 668.64 C-680.73 671.77 -681.03 674.83 -681.49 678.14 C-682.16 680.14 -682.82 682.14 -683.49 684.14 C-684.6 688.16 -685.61 692.2 -686.64 696.24 C-687.48 699.5 -688.3 702.66 -689.55 705.79 C-690.77 708.85 -691.35 711.91 -691.99 715.14 C-692.83 719.38 -693.89 723.14 -695.49 727.14 C-696.15 729.76 -696.78 732.38 -697.37 735.01 C-698.7 740.83 -700.09 746.62 -701.62 752.39 C-701.93 753.57 -702.24 754.75 -702.56 755.97 C-703.49 759.14 -703.49 759.14 -704.58 761.85 C-705.79 764.89 -706.04 767.9 -706.49 771.14 C-707.31 774.31 -708.15 777.35 -709.44 780.36 C-710.76 783.84 -711.56 787.39 -712.37 791.01 C-713.7 796.83 -715.09 802.62 -716.62 808.39 C-716.93 809.57 -717.24 810.75 -717.56 811.97 C-718.49 815.14 -718.49 815.14 -719.58 817.85 C-720.79 820.89 -721.04 823.9 -721.49 827.14 C-722.31 830.31 -723.15 833.35 -724.44 836.36 C-725.76 839.84 -726.56 843.39 -727.37 847.01 C-728.7 852.83 -730.09 858.62 -731.62 864.39 C-731.93 865.57 -732.24 866.75 -732.56 867.97 C-733.49 871.14 -733.49 871.14 -734.58 873.85 C-735.79 876.89 -736.04 879.9 -736.49 883.14 C-737.31 886.31 -738.16 889.35 -739.44 892.37 C-740.74 895.79 -741.52 899.27 -742.3 902.83 C-744.11 910.76 -746.22 918.58 -748.44 926.41 C-749.17 928.98 -749.85 931.54 -750.49 934.14 C-747.02 937.33 -744.09 937.59 -739.49 938.14 C-736.32 938.96 -733.28 939.8 -730.26 941.09 C-726.84 942.38 -723.36 943.16 -719.8 943.95 C-712.75 945.56 -705.78 947.39 -698.82 949.39 C-694.42 950.64 -690.01 951.73 -685.53 952.69 C-681.69 953.54 -677.92 954.53 -674.3 956.08 C-670.68 957.45 -667.01 958.28 -663.24 959.14 C-662.48 959.31 -661.72 959.49 -660.94 959.67 C-657.13 960.55 -653.32 961.39 -649.49 962.2 C-646.72 962.81 -644.1 963.58 -641.43 964.51 C-636.43 966.26 -631.31 967.47 -626.16 968.69 C-623.38 969.36 -620.71 970.05 -618.05 971.13 C-614.38 972.58 -610.59 973.35 -606.74 974.2 C-598.62 976.01 -598.62 976.01 -597.49 977.14 C-594.01 977.94 -590.51 978.62 -587.01 979.32 C-583.96 980.03 -581.38 980.98 -578.49 982.14 C-576.17 982.68 -573.83 983.17 -571.49 983.64 C-567.26 984.48 -563.48 985.5 -559.49 987.14 C-557.16 987.48 -554.83 987.82 -552.49 988.14 C-549.31 988.96 -546.27 989.81 -543.24 991.09 C-539.94 992.35 -536.6 993.19 -533.18 994.01 C-532.49 994.18 -531.8 994.35 -531.08 994.53 C-528.89 995.07 -526.69 995.6 -524.49 996.14 C-521.59 996.84 -518.7 997.55 -515.8 998.26 C-515.15 998.42 -514.49 998.58 -513.81 998.74 C-510.23 999.62 -506.9 1000.75 -503.49 1002.14 C-502.08 1002.49 -500.67 1002.8 -499.24 1003.08 C-496.16 1003.72 -493.26 1004.52 -490.3 1005.58 C-485.22 1007.35 -480.01 1008.35 -474.73 1009.39 C-471.8 1010.07 -469.26 1011 -466.49 1012.14 C-464.16 1012.48 -461.83 1012.82 -459.49 1013.14 C-456.32 1013.96 -453.28 1014.8 -450.26 1016.09 C-446.84 1017.38 -443.36 1018.16 -439.8 1018.95 C-432.75 1020.56 -425.78 1022.39 -418.82 1024.39 C-414.42 1025.64 -410.01 1026.73 -405.53 1027.69 C-401.69 1028.54 -397.92 1029.53 -394.3 1031.08 C-390.68 1032.45 -387.01 1033.28 -383.24 1034.14 C-382.48 1034.31 -381.72 1034.49 -380.94 1034.67 C-377.13 1035.55 -373.32 1036.39 -369.49 1037.2 C-365.8 1038 -362.31 1039.18 -358.75 1040.42 C-355.75 1041.38 -352.71 1042.02 -349.62 1042.67 C-345.74 1043.52 -341.94 1044.52 -338.28 1046.08 C-334.8 1047.4 -331.24 1048.2 -327.62 1049.01 C-321.8 1050.35 -316.01 1051.74 -310.24 1053.26 C-309.06 1053.58 -307.88 1053.89 -306.66 1054.21 C-303.49 1055.14 -303.49 1055.14 -301.01 1056.16 C-297.88 1057.38 -294.78 1057.99 -291.49 1058.64 C-287.26 1059.48 -283.48 1060.5 -279.49 1062.14 C-277.16 1062.48 -274.83 1062.82 -272.49 1063.14 C-269.34 1063.95 -266.32 1064.78 -263.33 1066.08 C-259.54 1067.5 -255.68 1068.33 -251.74 1069.2 C-243.62 1071.01 -243.62 1071.01 -242.49 1072.14 C-239.01 1072.94 -235.51 1073.62 -232.01 1074.32 C-228.49 1075.14 -228.49 1075.14 -226.08 1076.11 C-222.4 1077.57 -218.61 1078.34 -214.74 1079.2 C-206.62 1081.01 -206.62 1081.01 -205.49 1082.14 C-202.01 1082.94 -198.51 1083.62 -195.01 1084.32 C-191.97 1085.03 -189.36 1085.96 -186.49 1087.14 C-184.16 1087.49 -181.83 1087.82 -179.49 1088.14 C-179.16 1088.47 -178.83 1088.8 -178.49 1089.14 C-176.83 1089.18 -175.16 1089.18 -173.49 1089.14 C-171.68 1085.15 -171.1 1081.46 -170.49 1077.14 C-169.82 1075.14 -169.16 1073.14 -168.49 1071.14 C-167.39 1067.12 -166.37 1063.08 -165.35 1059.04 C-164.5 1055.78 -163.68 1052.62 -162.43 1049.49 C-161.21 1046.43 -160.63 1043.37 -159.99 1040.14 C-159.15 1035.9 -158.13 1032.12 -156.49 1028.14 C-156.15 1025.81 -155.82 1023.47 -155.49 1021.14 C-154.82 1019.14 -154.16 1017.14 -153.49 1015.14 C-152.39 1011.12 -151.37 1007.08 -150.35 1003.04 C-149.29 998.93 -148.11 995.06 -146.49 991.14 C-146.15 988.81 -145.81 986.47 -145.49 984.14 C-144.64 980.86 -143.75 977.75 -142.43 974.64 C-141.36 972.08 -141.36 972.08 -141.12 968.95 C-139.95 961.82 -136.7 955.56 -133.49 949.14 C-133.49 948.48 -133.49 947.82 -133.49 947.14 C-132.83 947.14 -132.17 947.14 -131.49 947.14 C-131.49 946.48 -131.49 945.82 -131.49 945.14 C-130.17 944.45 -128.83 943.79 -127.49 943.14 C-126.1 942.33 -126.1 942.33 -124.68 941.51 C-118.66 938.93 -109.09 938.82 -103.01 941.05 C-102.18 941.41 -101.35 941.77 -100.49 942.14 C-97.93 942.78 -95.38 943.38 -92.8 943.95 C-85.75 945.56 -78.78 947.39 -71.82 949.39 C-67.42 950.64 -63.01 951.73 -58.53 952.69 C-54.68 953.54 -50.9 954.54 -47.27 956.09 C-43.85 957.38 -40.37 958.16 -36.8 958.95 C-29.87 960.53 -23.02 962.33 -16.18 964.28 C-9.77 966.09 -3.32 967.69 3.15 969.24 C6.07 970.02 8.73 970.98 11.51 972.14 C16.23 973.61 20.52 974.39 25.51 974.14 C27.87 967.63 29.43 961.17 30.76 954.37 C31.44 951.45 32.37 948.9 33.51 946.14 C33.85 943.81 34.19 941.47 34.51 939.14 C35.32 935.99 36.15 932.96 37.45 929.97 C38.87 926.19 39.7 922.33 40.57 918.39 C42.38 910.27 42.38 910.27 43.51 909.14 C44.31 905.66 44.99 902.16 45.69 898.65 C46.4 895.62 47.32 893 48.51 890.14 C48.85 887.81 49.19 885.47 49.51 883.14 C50.33 879.96 51.17 876.93 52.46 873.91 C53.75 870.49 54.53 867.01 55.32 863.45 C56.93 856.39 58.76 849.42 60.76 842.47 C62.01 838.06 63.1 833.65 64.06 829.18 C64.91 825.35 65.88 821.58 67.44 817.98 C68.86 814.19 69.7 810.34 70.57 806.39 C72.38 798.27 72.38 798.27 73.51 797.14 C74.31 793.66 74.99 790.16 75.69 786.65 C76.4 783.62 77.33 781 78.51 778.14 C78.85 775.81 79.18 773.47 79.51 771.14 C80.17 769.14 80.84 767.14 81.51 765.14 C82.3 762.32 83.03 759.48 83.76 756.64 C85.92 748.33 88.16 740.06 90.45 731.79 C91.59 727.66 92.66 723.55 93.56 719.37 C94.32 715.86 95.35 712.54 96.51 709.14 C97.61 705.12 98.63 701.08 99.65 697.04 C100.5 693.78 101.32 690.62 102.57 687.49 C103.79 684.43 104.37 681.37 105.01 678.14 C105.85 673.9 106.87 670.12 108.51 666.14 C108.85 663.81 109.18 661.47 109.51 659.14 C110.18 657.14 110.84 655.14 111.51 653.14 C112.61 649.12 113.63 645.08 114.65 641.04 C115.5 637.78 116.32 634.62 117.57 631.49 C118.79 628.43 119.37 625.37 120.01 622.14 C120.85 617.9 121.87 614.12 123.51 610.14 C123.85 607.81 124.18 605.47 124.51 603.14 C125.18 601.14 125.84 599.14 126.51 597.14 C127.61 593.12 128.63 589.08 129.65 585.04 C130.71 580.93 131.89 577.06 133.51 573.14 C133.85 570.81 134.19 568.47 134.51 566.14 C135.36 562.86 136.25 559.75 137.57 556.64 C138.74 553.51 139.04 550.44 139.51 547.14 C140.18 545.14 140.84 543.14 141.51 541.14 C142.61 537.12 143.63 533.08 144.65 529.04 C145.5 525.78 146.32 522.62 147.57 519.49 C148.79 516.43 149.37 513.37 150.01 510.14 C150.85 505.9 151.87 502.12 153.51 498.14 C153.85 495.81 154.18 493.47 154.51 491.14 C155.18 489.14 155.84 487.14 156.51 485.14 C157.61 481.12 158.63 477.08 159.65 473.04 C160.71 468.93 161.89 465.06 163.51 461.14 C163.85 458.81 164.19 456.47 164.51 454.14 C165.36 450.86 166.25 447.75 167.57 444.64 C168.74 441.51 169.04 438.44 169.51 435.14 C170.18 433.14 170.84 431.14 171.51 429.14 C172.61 425.12 173.63 421.08 174.65 417.04 C175.71 412.93 176.89 409.06 178.51 405.14 C178.85 402.81 179.19 400.47 179.51 398.14 C180.36 394.86 181.25 391.75 182.57 388.64 C183.74 385.51 184.04 382.44 184.51 379.14 C185.18 377.14 185.84 375.14 186.51 373.14 C187.61 369.12 188.63 365.08 189.65 361.04 C190.71 356.93 191.92 353.08 193.51 349.14 C193.51 348.15 193.51 347.16 193.51 346.14 C188.41 344.08 183.99 342.85 178.51 342.14 C176.51 341.47 174.51 340.81 172.51 340.14 C168.49 339.03 164.45 338.02 160.41 336.99 C157.15 336.15 153.99 335.33 150.86 334.08 C147.8 332.86 144.74 332.28 141.51 331.64 C137.27 330.8 133.49 329.78 129.51 328.14 C127.18 327.8 124.84 327.47 122.51 327.14 C120.51 326.47 118.51 325.81 116.51 325.14 C112.49 324.03 108.45 323.02 104.41 321.99 C101.15 321.15 97.99 320.33 94.86 319.08 C91.8 317.86 88.74 317.28 85.51 316.64 C81.27 315.8 77.49 314.78 73.51 313.14 C71.18 312.8 68.84 312.47 66.51 312.14 C64.51 311.47 62.51 310.81 60.51 310.14 C56.49 309.03 52.45 308.02 48.41 306.99 C44.3 305.93 40.44 304.74 36.51 303.14 C34.23 302.53 31.94 301.97 29.63 301.45 C28.46 301.18 27.29 300.91 26.08 300.63 C22.17 300.09 19.34 300.15 15.51 301.14 C12.86 303.11 12.86 303.11 10.7 305.64 C6.6 310.09 6.6 310.09 4.51 311.14 C4.51 311.8 4.51 312.46 4.51 313.14 C3.95 313.4 3.38 313.66 2.8 313.93 C0.3 315.25 -1.89 316.79 -4.18 318.45 C-11.9 323.9 -19.68 327.78 -28.49 331.14 C-30.24 331.85 -31.99 332.55 -33.74 333.26 C-48.36 339.2 -62.51 340.73 -78.12 340.64 C-78.95 340.64 -79.78 340.64 -80.64 340.63 C-93.8 340.58 -105.99 339.56 -118.49 335.14 C-119.18 334.9 -119.87 334.67 -120.58 334.43 C-141.47 327.16 -141.47 327.16 -147.49 321.14 C-149.16 321.1 -150.83 321.1 -152.49 321.14 C-152.49 321.8 -152.49 322.46 -152.49 323.14 C-153.48 323.47 -154.47 323.8 -155.49 324.14 C-155.49 324.8 -155.49 325.46 -155.49 326.14 C-156.15 326.14 -156.81 326.14 -157.49 326.14 C-157.49 326.8 -157.49 327.46 -157.49 328.14 C-158.48 328.47 -159.47 328.8 -160.49 329.14 C-160.49 329.8 -160.49 330.46 -160.49 331.14 C-161.15 331.14 -161.81 331.14 -162.49 331.14 C-162.49 331.8 -162.49 332.46 -162.49 333.14 C-163.48 333.47 -164.47 333.8 -165.49 334.14 C-165.49 334.8 -165.49 335.46 -165.49 336.14 C-166.15 336.14 -166.81 336.14 -167.49 336.14 C-167.49 336.8 -167.49 337.46 -167.49 338.14 C-168.48 338.47 -169.47 338.8 -170.49 339.14 C-170.49 339.8 -170.49 340.46 -170.49 341.14 C-171.15 341.14 -171.81 341.14 -172.49 341.14 C-172.49 341.8 -172.49 342.46 -172.49 343.14 C-173.48 343.47 -174.47 343.8 -175.49 344.14 C-175.49 344.8 -175.49 345.46 -175.49 346.14 C-176.17 346.39 -176.85 346.63 -177.55 346.89 C-180.62 348.06 -180.62 348.06 -183.43 350.26 C-188.81 353.43 -195.49 352.9 -201.49 352.14 C-208.11 349.38 -213.64 345.13 -217.43 339.01 C-220.25 331.37 -220.36 324.05 -217.62 316.39 C-215.92 313.01 -213.54 310.46 -210.92 307.77 C-209.27 306.25 -209.27 306.25 -209.49 304.14 C-208.85 303.87 -208.21 303.6 -207.55 303.33 C-205.16 302.25 -205.16 302.25 -204.49 299.14 C-203.16 298.47 -201.82 297.81 -200.49 297.14 C-200.16 296.15 -199.83 295.16 -199.49 294.14 C-198.16 293.47 -196.82 292.81 -195.49 292.14 C-195.16 291.15 -194.83 290.16 -194.49 289.14 C-193.17 288.46 -191.83 287.79 -190.49 287.14 C-188.12 284.29 -188.12 284.29 -188.87 280.95 C-189.07 280.02 -189.28 279.1 -189.49 278.14 C-190.15 278.14 -190.81 278.14 -191.49 278.14 C-191.6 277.6 -191.71 277.06 -191.82 276.51 C-192.66 273.56 -193.92 270.97 -195.24 268.2 C-199.8 258.44 -203.61 248.52 -206.49 238.14 C-207.51 237.91 -208.53 237.68 -209.58 237.44 C-218.17 235.47 -226.69 233.33 -235.16 230.89 C-239.56 229.63 -243.98 228.55 -248.46 227.59 C-252.28 226.74 -256.05 225.76 -259.65 224.21 C-263.44 222.78 -267.29 221.95 -271.24 221.08 C-279.36 219.27 -279.36 219.27 -280.49 218.14 C-283.97 217.34 -287.47 216.66 -290.98 215.96 C-294.01 215.25 -296.63 214.32 -299.49 213.14 C-301.82 212.79 -304.16 212.46 -306.49 212.14 C-309.64 211.32 -312.67 210.5 -315.66 209.2 C-319.44 207.78 -323.3 206.95 -327.24 206.08 C-335.36 204.27 -335.36 204.27 -336.49 203.14 C-339.97 202.34 -343.47 201.66 -346.98 200.96 C-350.03 200.25 -352.6 199.3 -355.49 198.14 C-358.11 197.48 -360.73 196.85 -363.37 196.26 C-373.32 193.98 -383.16 191.33 -393 188.62 C-393.97 188.36 -394.94 188.09 -395.94 187.82 C-397.84 187.3 -399.74 186.77 -401.64 186.24 C-406.58 184.89 -411.52 183.64 -416.53 182.57 C-420.33 181.73 -424.07 180.75 -427.65 179.21 C-431.44 177.78 -435.29 176.95 -439.24 176.08 C-447.36 174.27 -447.36 174.27 -448.49 173.14 C-451.97 172.34 -455.47 171.66 -458.98 170.96 C-462.01 170.25 -464.63 169.32 -467.49 168.14 C-469.82 167.79 -472.16 167.46 -474.49 167.14 C-477.64 166.32 -480.67 165.5 -483.66 164.2 C-487.44 162.78 -491.3 161.95 -495.24 161.08 C-503.36 159.27 -503.36 159.27 -504.49 158.14 C-507.97 157.34 -511.47 156.66 -514.98 155.96 C-518.01 155.25 -520.63 154.32 -523.49 153.14 C-525.82 152.79 -528.16 152.46 -530.49 152.14 C-532.83 151.48 -535.16 150.81 -537.49 150.14 C-538.48 150.14 -539.47 150.14 -540.49 150.14 Z M181.51 593.14 C179.17 596.65 179.06 598.99 178.51 603.14 C177.69 606.31 176.84 609.35 175.56 612.37 C174.26 615.79 173.48 619.27 172.7 622.83 C171.09 629.88 169.26 636.85 167.26 643.81 C166 648.21 164.92 652.62 163.96 657.1 C163.11 660.95 162.11 664.73 160.56 668.36 C159.27 671.78 158.48 675.26 157.7 678.83 C156.09 685.88 154.26 692.85 152.26 699.81 C151 704.21 149.92 708.62 148.96 713.1 C148.11 716.95 147.11 720.73 145.56 724.36 C144.27 727.78 143.48 731.26 142.7 734.83 C141.09 741.88 139.26 748.85 137.26 755.81 C136 760.21 134.92 764.62 133.96 769.1 C133.11 772.95 132.11 776.73 130.56 780.36 C129.27 783.78 128.48 787.26 127.7 790.83 C126.09 797.88 124.26 804.85 122.26 811.81 C121 816.21 119.92 820.62 118.96 825.1 C118.11 828.95 117.11 832.73 115.56 836.36 C114.27 839.78 113.48 843.26 112.7 846.83 C111.09 853.88 109.26 860.85 107.26 867.81 C106 872.21 104.92 876.62 103.96 881.1 C103.11 884.93 102.13 888.69 100.58 892.3 C99.15 896.09 98.32 899.94 97.45 903.89 C95.64 912.01 95.64 912.01 94.51 913.14 C93.71 916.62 93.03 920.12 92.33 923.62 C91.62 926.66 90.69 929.28 89.51 932.14 C89.16 934.47 88.83 936.8 88.51 939.14 C87.69 942.31 86.84 945.35 85.56 948.37 C84.26 951.79 83.48 955.27 82.7 958.83 C81.09 965.88 79.26 972.85 77.26 979.81 C76 984.21 74.92 988.62 73.96 993.1 C73.09 997.03 72.04 1000.85 70.51 1004.58 C69.65 1006.77 69.1 1008.79 68.57 1011.08 C67.71 1014.73 66.26 1017.8 64.51 1021.14 C64.51 1021.8 64.51 1022.46 64.51 1023.14 C63.85 1023.14 63.19 1023.14 62.51 1023.14 C60.84 1024.47 60.84 1024.47 59.51 1026.14 C59.51 1026.8 59.51 1027.46 59.51 1028.14 C58.79 1028.41 58.07 1028.68 57.32 1028.95 C54.52 1030.14 52.09 1031.53 49.51 1033.14 C46.25 1035.17 43.11 1036.8 39.51 1038.14 C39.51 1038.8 39.51 1039.46 39.51 1040.14 C38.8 1040.41 38.1 1040.69 37.37 1040.97 C29.8 1044.07 22.71 1047.85 15.99 1052.5 C8.22 1057.64 -0.1 1062.11 -8.49 1066.14 C-8.49 1066.8 -8.49 1067.46 -8.49 1068.14 C-9.81 1068.14 -11.13 1068.14 -12.49 1068.14 C-12.49 1068.8 -12.49 1069.46 -12.49 1070.14 C-13.2 1070.41 -13.9 1070.69 -14.63 1070.97 C-22.2 1074.07 -29.29 1077.85 -36.01 1082.5 C-43.78 1087.64 -52.1 1092.11 -60.49 1096.14 C-60.49 1096.8 -60.49 1097.46 -60.49 1098.14 C-61.07 1098.26 -61.65 1098.38 -62.24 1098.51 C-64.56 1099.16 -66.37 1100.04 -68.47 1101.21 C-69.22 1101.63 -69.96 1102.05 -70.73 1102.48 C-71.52 1102.92 -72.31 1103.37 -73.12 1103.83 C-73.93 1104.28 -74.74 1104.74 -75.57 1105.2 C-80.47 1107.97 -85.34 1110.79 -90.14 1113.71 C-96.57 1117.61 -103.06 1121.39 -109.68 1124.95 C-115.37 1128.02 -120.93 1131.31 -126.48 1134.62 C-130.41 1136.96 -134.36 1139.15 -138.49 1141.14 C-138.49 1141.8 -138.49 1142.46 -138.49 1143.14 C-139.17 1143.24 -139.85 1143.35 -140.55 1143.45 C-143.62 1144.05 -143.62 1144.05 -146.68 1145.7 C-154.39 1149.06 -161.48 1147.06 -169.05 1144.29 C-173.94 1142.65 -178.93 1141.56 -183.97 1140.45 C-189.4 1139.23 -189.4 1139.23 -190.49 1138.14 C-191.52 1137.99 -192.55 1137.85 -193.62 1137.7 C-198.3 1137.02 -202.63 1135.93 -206.99 1134.08 C-210.13 1132.9 -213.18 1132.6 -216.49 1132.14 C-219.66 1131.32 -222.7 1130.48 -225.71 1129.19 C-229.19 1127.87 -232.74 1127.07 -236.37 1126.26 C-242.18 1124.93 -247.97 1123.54 -253.74 1122.01 C-254.92 1121.7 -256.1 1121.39 -257.32 1121.07 C-260.49 1120.14 -260.49 1120.14 -263.2 1119.05 C-266.24 1117.84 -269.25 1117.59 -272.49 1117.14 C-275.77 1116.29 -278.88 1115.4 -281.99 1114.08 C-285.13 1112.9 -288.18 1112.6 -291.49 1112.14 C-294.67 1111.32 -297.72 1110.47 -300.74 1109.19 C-304.05 1107.92 -307.42 1107.09 -310.87 1106.26 C-312.31 1105.91 -313.74 1105.56 -315.18 1105.21 C-315.91 1105.03 -316.63 1104.85 -317.37 1104.67 C-321.78 1103.57 -326.16 1102.38 -330.54 1101.2 C-334.87 1100.03 -339.21 1098.9 -343.55 1097.76 C-351.67 1095.64 -359.76 1093.44 -367.84 1091.19 C-372.71 1089.85 -377.58 1088.63 -382.52 1087.58 C-386.35 1086.73 -390.1 1085.73 -393.7 1084.19 C-397.19 1082.88 -400.74 1082.07 -404.37 1081.26 C-410.18 1079.93 -415.97 1078.54 -421.74 1077.01 C-423.51 1076.55 -423.51 1076.55 -425.32 1076.07 C-428.49 1075.14 -428.49 1075.14 -430.92 1074.14 C-434.32 1072.82 -437.81 1072.06 -441.37 1071.26 C-447.18 1069.93 -452.97 1068.54 -458.74 1067.01 C-459.92 1066.7 -461.1 1066.39 -462.32 1066.07 C-465.49 1065.14 -465.49 1065.14 -468.2 1064.05 C-471.24 1062.84 -474.25 1062.59 -477.49 1062.14 C-480.77 1061.29 -483.88 1060.4 -486.99 1059.08 C-490.13 1057.9 -493.18 1057.6 -496.49 1057.14 C-499.66 1056.32 -502.7 1055.48 -505.71 1054.19 C-509.19 1052.87 -512.74 1052.07 -516.37 1051.26 C-522.18 1049.93 -527.97 1048.54 -533.74 1047.01 C-535.51 1046.55 -535.51 1046.55 -537.32 1046.07 C-540.49 1045.14 -540.49 1045.14 -543.2 1044.05 C-546.24 1042.84 -549.25 1042.59 -552.49 1042.14 C-555.73 1041.3 -558.83 1040.41 -561.93 1039.14 C-566.76 1037.25 -571.29 1036.14 -576.49 1036.14 C-576.49 1099.83 -576.49 1163.52 -576.49 1229.14 C-326.02 1229.14 -75.55 1229.14 182.51 1229.14 C182.51 1019.26 182.51 809.38 182.51 593.14 C182.18 593.14 181.85 593.14 181.51 593.14 Z M-94.49 997.14 C-96.69 1001.83 -98.08 1006.23 -99.06 1011.32 C-99.49 1013.14 -99.49 1013.14 -100.49 1014.14 C-100.71 1015.69 -100.71 1015.69 -100.93 1017.26 C-101.59 1021.82 -102.61 1026.1 -104.44 1030.34 C-105.79 1033.93 -106.6 1037.59 -107.43 1041.33 C-108.7 1046.94 -110.08 1052.43 -111.98 1057.87 C-112.68 1060.98 -112.57 1063.96 -112.49 1067.14 C-105.22 1063.03 -98 1058.86 -90.87 1054.51 C-84.57 1050.69 -78.15 1047.3 -71.49 1044.14 C-71.49 1043.48 -71.49 1042.82 -71.49 1042.14 C-70.91 1042.02 -70.33 1041.89 -69.74 1041.77 C-63.4 1039.99 -57.66 1035.64 -52.12 1032.2 C-44.45 1027.45 -36.6 1023.08 -28.49 1019.14 C-28.49 1018.48 -28.49 1017.82 -28.49 1017.14 C-27.5 1016.81 -26.51 1016.48 -25.49 1016.14 C-29.85 1013.77 -33.92 1012.39 -38.74 1011.26 C-45.58 1009.64 -52.35 1007.82 -59.11 1005.89 C-63.53 1004.64 -67.96 1003.55 -72.46 1002.59 C-76.39 1001.72 -80.23 1000.69 -83.93 999.08 C-87.43 997.79 -90.78 997.52 -94.49 997.14 Z " fill="#ece0da" transform="translate(918.4912109375,-0.138946533203125)"/>
<path d="M0 0 C2.9 0.77 5.82 1.41 8.75 2.06 C16.87 3.87 16.87 3.87 18 5 C21.48 5.8 24.98 6.48 28.48 7.18 C31.52 7.89 34.14 8.82 37 10 C39.33 10.35 41.67 10.68 44 11 C47.17 11.82 50.21 12.66 53.22 13.95 C56.7 15.26 60.25 16.07 63.88 16.88 C69.69 18.21 75.48 19.6 81.25 21.12 C82.43 21.44 83.61 21.75 84.83 22.07 C88 23 88 23 90.71 24.09 C93.75 25.3 96.76 25.55 100 26 C103.15 26.82 106.17 27.64 109.16 28.94 C112.95 30.36 116.81 31.19 120.75 32.06 C128.87 33.87 128.87 33.87 130 35 C133.48 35.8 136.98 36.48 140.48 37.18 C143.52 37.89 146.14 38.82 149 40 C151.33 40.35 153.67 40.68 156 41 C159.15 41.82 162.17 42.64 165.16 43.94 C168.95 45.36 172.81 46.19 176.75 47.06 C184.87 48.87 184.87 48.87 186 50 C189.48 50.8 192.98 51.48 196.48 52.18 C199.53 52.89 202.11 53.84 205 55 C207.32 55.54 209.66 56.04 212 56.5 C216.23 57.34 220.02 58.36 224 60 C226.33 60.35 228.67 60.68 231 61 C234.15 61.82 237.17 62.64 240.16 63.94 C243.95 65.36 247.81 66.19 251.75 67.06 C259.87 68.87 259.87 68.87 261 70 C262.03 70.14 263.06 70.29 264.12 70.44 C268.67 71.1 272.94 72.11 277.16 73.94 C280.95 75.36 284.81 76.19 288.75 77.06 C296.87 78.87 296.87 78.87 298 80 C301.48 80.8 304.98 81.48 308.48 82.18 C311.52 82.89 314.14 83.82 317 85 C319.33 85.35 321.67 85.68 324 86 C327.28 86.85 330.39 87.74 333.5 89.06 C336.63 90.24 339.69 90.54 343 91 C346.15 91.82 349.17 92.64 352.16 93.94 C355.95 95.36 359.81 96.19 363.75 97.06 C371.87 98.87 371.87 98.87 373 100 C376.48 100.8 379.98 101.48 383.48 102.18 C387 103 387 103 389.41 103.97 C393.09 105.43 396.89 106.21 400.75 107.06 C408.87 108.87 408.87 108.87 410 110 C413.48 110.8 416.98 111.48 420.48 112.18 C423.52 112.89 426.14 113.82 429 115 C431.33 115.35 433.67 115.68 436 116 C439.15 116.82 442.17 117.64 445.16 118.94 C448.95 120.36 452.81 121.19 456.75 122.06 C464.87 123.87 464.87 123.87 466 125 C468.14 125.49 470.29 125.94 472.44 126.38 C495.64 131.27 495.64 131.27 503 142 C506.49 148.27 506.94 154.97 506 162 C503.27 170.89 497.56 176.28 489.75 180.94 C480.85 183.46 473.2 182.09 464.6 179.15 C459.62 177.56 454.57 176.44 449.47 175.31 C444.1 174.1 444.1 174.1 443 173 C441.95 172.86 440.9 172.71 439.81 172.56 C435.29 171.9 431.34 170.49 427.06 168.94 C423.96 167.9 423.96 167.9 420.5 167.5 C417.07 167.01 414.27 166.11 411 165 C409.02 164.49 407.04 163.99 405.06 163.5 C393.56 160.67 393.56 160.67 389.8 159.06 C386.31 157.74 382.76 156.94 379.12 156.12 C371.73 154.43 364.4 152.54 357.08 150.56 C354.73 149.93 352.37 149.32 350.02 148.71 C349.16 148.49 348.31 148.26 347.43 148.04 C345.77 147.61 344.1 147.18 342.43 146.75 C338.49 145.72 334.78 144.55 331 143 C328.67 142.65 326.33 142.32 324 142 C320.84 141.18 317.81 140.35 314.8 139.05 C311.18 137.69 307.52 136.9 303.75 136.06 C298.37 134.84 293.15 133.5 287.95 131.64 C285.21 130.74 282.43 130.18 279.61 129.59 C275.13 128.58 270.7 127.34 266.27 126.14 C263.18 125.31 260.08 124.5 256.98 123.7 C256.14 123.48 255.29 123.26 254.41 123.03 C252.75 122.6 251.09 122.18 249.43 121.75 C245.49 120.72 241.78 119.55 238 118 C235.67 117.65 233.33 117.32 231 117 C227.72 116.15 224.61 115.26 221.5 113.94 C218.37 112.76 215.31 112.46 212 112 C208.84 111.18 205.81 110.35 202.8 109.05 C199.18 107.69 195.52 106.9 191.75 106.06 C182.63 103.99 182.63 103.99 178.5 102.5 C174.33 101.01 170.06 100.04 165.75 99.06 C159.51 97.64 153.43 95.95 147.32 94.01 C138.64 91.37 129.76 89.36 120.89 87.43 C117.09 86.57 113.37 85.59 109.79 84.05 C106.3 82.74 102.75 81.93 99.12 81.12 C93.31 79.79 87.52 78.4 81.75 76.88 C80.57 76.56 79.39 76.25 78.17 75.93 C75 75 75 75 72.52 73.98 C69.39 72.76 66.29 72.15 63 71.5 C56.55 70.22 56.55 70.22 53.61 69.04 C49.92 67.57 46.12 66.8 42.25 65.94 C34.13 64.13 34.13 64.13 33 63 C31.97 62.86 30.94 62.71 29.88 62.56 C25.2 61.88 20.86 60.79 16.5 58.94 C13.37 57.76 10.31 57.46 7 57 C3.84 56.18 0.81 55.35 -2.18 54.05 C-6.56 52.41 -11.11 51.56 -15.67 50.59 C-21.43 49.3 -26.06 47.29 -31 44 C-31 43.34 -31 42.68 -31 42 C-31.66 42 -32.32 42 -33 42 C-33 41.34 -33 40.68 -33 40 C-33.66 40 -34.32 40 -35 40 C-39.82 33.17 -40.92 26.19 -40 18 C-37.85 10.57 -33.64 4.53 -27.25 0.12 C-19.43 -3.99 -7.91 -3.44 0 0 Z " fill="#ece0da" transform="translate(415,521)"/>
<path d="M0 0 C0.5 0.5 0.5 0.5 1 1 C4.48 1.8 7.98 2.48 11.48 3.18 C14.52 3.89 17.14 4.82 20 6 C22.33 6.34 24.67 6.67 27 7 C30.02 7.92 32.97 8.99 35.94 10.06 C39.04 11.1 39.04 11.1 42.5 11.5 C46.69 12.1 50.36 13.29 54.24 14.97 C57.46 16.17 60.63 16.83 64 17.5 C70.47 18.78 70.47 18.78 73.38 19.97 C76.36 21.14 79.3 21.77 82.44 22.44 C87.24 23.49 91.99 24.76 96.75 26 C98.27 26.39 98.27 26.39 99.82 26.79 C100.81 27.04 101.79 27.3 102.8 27.56 C103.68 27.79 104.56 28.02 105.46 28.25 C108.06 29.02 110.5 29.99 113 31 C115.32 31.54 117.66 32.04 120 32.5 C124.23 33.34 128.02 34.36 132 36 C134.33 36.34 136.67 36.67 139 37 C141 37.67 143 38.33 145 39 C149.02 40.1 153.06 41.12 157.1 42.14 C160.36 42.99 163.52 43.81 166.65 45.06 C169.71 46.28 172.77 46.86 176 47.5 C180.24 48.34 184 49.4 188 51 C190.32 51.54 192.66 52.04 195 52.5 C199.23 53.34 203.02 54.36 207 56 C209.33 56.35 211.67 56.68 214 57 C217.17 57.82 220.21 58.67 223.23 59.94 C226.67 61.26 230.18 62.13 233.75 63 C234.46 63.18 235.17 63.35 235.9 63.53 C240.29 64.61 244.7 65.61 249.11 66.57 C252.89 67.43 256.6 68.39 260.16 69.93 C263.95 71.35 267.8 72.19 271.75 73.06 C279.87 74.87 279.87 74.87 281 76 C284.48 76.8 287.98 77.48 291.48 78.18 C294.52 78.89 297.14 79.82 300 81 C302.33 81.35 304.67 81.68 307 82 C310.28 82.85 313.39 83.74 316.5 85.06 C319.63 86.24 322.69 86.54 326 87 C329.18 87.82 332.22 88.67 335.25 89.95 C338.56 91.22 341.93 92.05 345.38 92.88 C346.81 93.23 348.25 93.58 349.69 93.93 C350.41 94.11 351.14 94.29 351.88 94.47 C356.26 95.56 360.62 96.75 364.98 97.93 C367.98 98.73 370.98 99.52 373.99 100.29 C374.84 100.51 375.69 100.74 376.57 100.96 C378.24 101.39 379.9 101.82 381.57 102.25 C384.67 103.06 387.64 103.86 390.62 105.05 C393.69 106.27 396.76 106.86 400 107.5 C404.23 108.34 408.02 109.36 412 111 C414.33 111.35 416.67 111.68 419 112 C422.15 112.82 425.17 113.64 428.16 114.94 C431.95 116.36 435.81 117.19 439.75 118.06 C447.87 119.87 447.87 119.87 449 121 C452.48 121.8 455.98 122.48 459.48 123.18 C462.52 123.89 465.14 124.81 468 126 C469.37 126.33 470.74 126.62 472.12 126.88 C481.13 128.81 490.08 131.14 495.43 139.14 C500.27 147.41 500.64 154.57 499 164 C496.44 170.59 491.26 175.61 485.16 179.04 C479.08 181.71 471.64 182.37 465.38 180.01 C464.2 179.51 464.2 179.51 463 179 C460.67 178.65 458.33 178.32 456 178 C452.83 177.18 449.79 176.34 446.77 175.05 C443.35 173.75 439.87 172.97 436.31 172.19 C429.25 170.58 422.29 168.75 415.33 166.75 C410.94 165.5 406.54 164.42 402.07 163.49 C399.96 162.99 397.97 162.35 395.94 161.62 C390.94 159.88 385.82 158.66 380.67 157.45 C376.96 156.55 373.52 155.45 370 154 C368.61 153.65 367.22 153.34 365.81 153.06 C362.43 152.35 359.17 151.47 355.88 150.44 C351.93 149.21 348.1 148.55 344 148 C343.14 147.71 342.28 147.43 341.39 147.13 C336.3 145.43 331.1 144.18 325.9 142.86 C321.8 141.8 317.92 140.62 314 139 C311.67 138.65 309.33 138.32 307 138 C303.72 137.15 300.61 136.26 297.5 134.94 C294.37 133.76 291.31 133.46 288 133 C286 132.35 284 131.68 282 131 C280.02 130.49 278.04 129.99 276.06 129.5 C264.56 126.67 264.56 126.67 260.8 125.06 C257.31 123.74 253.76 122.94 250.12 122.12 C244.31 120.79 238.52 119.4 232.75 117.88 C230.98 117.41 230.98 117.41 229.17 116.93 C226 116 226 116 223.29 114.91 C220.25 113.7 217.24 113.45 214 113 C210.72 112.15 207.61 111.26 204.5 109.94 C201.37 108.76 198.31 108.46 195 108 C191.85 107.18 188.83 106.36 185.84 105.06 C182.05 103.64 178.19 102.81 174.25 101.94 C166.13 100.13 166.13 100.13 165 99 C161.52 98.2 158.02 97.52 154.52 96.82 C151.47 96.11 148.89 95.16 146 94 C143.44 93.36 140.89 92.76 138.31 92.19 C131.25 90.58 124.29 88.75 117.33 86.75 C112.93 85.49 108.52 84.41 104.04 83.45 C100.19 82.6 96.41 81.6 92.79 80.05 C89.3 78.74 85.75 77.93 82.12 77.12 C76.31 75.79 70.52 74.4 64.75 72.88 C63.57 72.56 62.39 72.25 61.17 71.93 C58 71 58 71 55.52 69.98 C52.39 68.76 49.29 68.15 46 67.5 C41.77 66.66 37.98 65.64 34 64 C31.67 63.66 29.33 63.33 27 63 C24.09 62.13 21.34 61.15 18.56 59.94 C15.4 58.78 12.33 58.46 9 58 C5.72 57.15 2.61 56.26 -0.5 54.94 C-3.63 53.76 -6.69 53.46 -10 53 C-14.15 51.93 -18.03 50.59 -22 49 C-23.09 48.71 -24.19 48.42 -25.31 48.12 C-33.86 45.52 -39.44 41.89 -44.12 34.14 C-46.63 28.02 -46.78 19.28 -45 13 C-36.17 -5.22 -17.46 -7.03 0 0 Z " fill="#ece0da" transform="translate(447,425)"/>
<path d="M0 0 C1.79 0.22 1.79 0.22 3.62 0.44 C7.97 1.16 12.12 2.18 16.16 3.94 C19.95 5.36 23.81 6.19 27.75 7.06 C35.87 8.87 35.87 8.87 37 10 C40.48 10.8 43.98 11.48 47.48 12.18 C50.52 12.89 53.14 13.82 56 15 C58.33 15.35 60.67 15.68 63 16 C66.28 16.85 69.39 17.74 72.5 19.06 C75.63 20.24 78.69 20.54 82 21 C85.15 21.82 88.17 22.64 91.16 23.94 C94.95 25.36 98.81 26.19 102.75 27.06 C110.87 28.87 110.87 28.87 112 30 C113.03 30.14 114.06 30.29 115.12 30.44 C119.74 31.11 124.04 32.18 128.35 33.99 C131.16 35.06 133.87 35.65 136.81 36.25 C146.38 38.58 151.65 43.97 157 52 C159.07 60.7 158.67 69.24 154.25 77.12 C149.39 83.34 143.73 87.2 136 89 C127.38 89.65 117.73 87.47 109.82 84.06 C106.19 82.7 102.53 81.9 98.75 81.06 C93.37 79.84 88.15 78.5 82.95 76.64 C80.23 75.74 77.46 75.19 74.66 74.6 C71.17 73.81 67.71 72.91 64.25 72 C62.37 71.5 62.37 71.5 60.45 71 C57.53 70.15 54.82 69.13 52 68 C49.67 67.65 47.33 67.32 45 67 C41.81 66.17 38.76 65.32 35.73 64.03 C32.52 62.82 29.36 62.17 26 61.5 C21.77 60.66 17.98 59.64 14 58 C11.67 57.66 9.33 57.33 7 57 C5 56.35 3 55.68 1 55 C-1.27 54.37 -3.54 53.74 -5.81 53.12 C-11.47 51.53 -16.74 49.62 -22 47 C-22 46.34 -22 45.68 -22 45 C-22.87 44.72 -22.87 44.72 -23.75 44.44 C-28.2 41.59 -30.3 35.86 -32 31 C-33.17 22.03 -30.93 15.4 -26 8 C-25.34 8 -24.68 8 -24 8 C-24 7.34 -24 6.68 -24 6 C-16.23 -0.48 -9.83 -1.6 0 0 Z " fill="#ece0da" transform="translate(381,616)"/>
<path d="M0 0 C4.14 2.38 7.24 4.74 9.85 8.79 C9.85 9.45 9.85 10.11 9.85 10.79 C10.51 10.79 11.17 10.79 11.85 10.79 C15.45 17.24 15.75 23.5 14.85 30.79 C12.38 39.05 7.13 44.2 0.15 48.94 C-6.66 51.44 -16.56 51.17 -23.26 48.58 C-27.07 46.11 -29.32 43.98 -31.15 39.79 C-31.81 39.79 -32.47 39.79 -33.15 39.79 C-37.38 33.16 -37.22 25.76 -37.09 18.1 C-35.76 13.4 -33.32 9.49 -30.15 5.79 C-29.49 5.79 -28.83 5.79 -28.15 5.79 C-28.15 5.13 -28.15 4.47 -28.15 3.79 C-20.14 -2.44 -9.44 -3.64 0 0 Z " fill="#ece0da" transform="translate(633.1484375,683.21484375)"/>
</svg>
