<?xml version="1.0" encoding="UTF-8"?>
<!-- Generator: visioncortex VTracer 0.6.3 -->
<svg version="1.1" xmlns="http://www.w3.org/2000/svg" width="1280" height="1280">
<path d="M0 0 C0.95 -0 1.9 -0.01 2.87 -0.01 C3.93 -0.01 4.99 -0 6.08 -0 C7.19 -0 8.31 -0.01 9.46 -0.01 C13.25 -0.01 17.04 -0.01 20.83 -0.01 C23.55 -0.01 26.28 -0.01 29 -0.01 C34.95 -0.02 40.9 -0.02 46.85 -0.02 C55.7 -0.02 64.54 -0.02 73.39 -0.03 C90.11 -0.04 106.83 -0.04 123.55 -0.04 C136.47 -0.04 149.38 -0.04 162.29 -0.05 C166 -0.05 169.72 -0.05 173.43 -0.05 C174.35 -0.05 175.28 -0.05 176.23 -0.05 C202.2 -0.06 228.17 -0.06 254.15 -0.06 C255.62 -0.06 255.62 -0.06 257.12 -0.06 C262.09 -0.06 267.06 -0.06 272.02 -0.06 C273.5 -0.06 273.5 -0.06 275.01 -0.06 C277.01 -0.06 279 -0.06 281 -0.06 C312.04 -0.06 343.07 -0.07 374.11 -0.08 C408.95 -0.09 443.8 -0.1 478.64 -0.1 C482.36 -0.1 486.07 -0.1 489.79 -0.1 C490.7 -0.1 491.62 -0.1 492.56 -0.1 C507.29 -0.1 522.02 -0.11 536.75 -0.12 C551.56 -0.13 566.37 -0.13 581.17 -0.12 C589.97 -0.12 598.77 -0.12 607.57 -0.13 C613.44 -0.13 619.32 -0.13 625.2 -0.13 C628.55 -0.12 631.9 -0.12 635.25 -0.13 C638.86 -0.14 642.47 -0.13 646.08 -0.12 C647.11 -0.13 648.15 -0.13 649.21 -0.14 C658.1 -0.09 666.16 1.55 674.64 4.13 C675.82 4.45 675.82 4.45 677.01 4.78 C681.93 6.16 686.37 7.8 690.85 10.26 C692.76 11.18 694.58 11.68 696.64 12.13 C696.64 12.79 696.64 13.45 696.64 14.13 C697.36 14.23 698.08 14.33 698.82 14.44 C701.95 15.2 704.06 16.4 706.77 18.13 C709.45 19.82 711.62 21.12 714.64 22.13 C714.64 22.79 714.64 23.45 714.64 24.13 C715.43 24.44 716.21 24.75 717.02 25.06 C719.64 26.13 719.64 26.13 721.64 27.13 C721.64 27.79 721.64 28.45 721.64 29.13 C722.45 29.5 722.45 29.5 723.27 29.88 C726.22 31.43 728.94 33.16 731.64 35.13 C731.64 35.79 731.64 36.45 731.64 37.13 C732.3 37.13 732.96 37.13 733.64 37.13 C733.64 37.79 733.64 38.45 733.64 39.13 C734.63 39.46 735.62 39.79 736.64 40.13 C736.64 40.79 736.64 41.45 736.64 42.13 C737.6 42.53 737.6 42.53 738.58 42.94 C740.64 44.13 740.64 44.13 741.64 47.13 C742.3 47.13 742.96 47.13 743.64 47.13 C760 64.17 771.57 87.51 777.33 110.13 C777.53 110.92 777.74 111.72 777.94 112.53 C780.89 124.64 781.94 136.45 781.89 148.88 C781.89 150.43 781.89 151.99 781.9 153.54 C781.9 157.77 781.9 162.01 781.89 166.24 C781.88 170.82 781.89 175.4 781.89 179.97 C781.9 188.92 781.89 197.88 781.88 206.83 C781.87 217.25 781.87 227.67 781.87 238.09 C781.87 256.67 781.86 275.26 781.85 293.84 C781.83 311.89 781.83 329.93 781.83 347.98 C781.83 349.09 781.83 350.2 781.83 351.35 C781.83 352.46 781.83 353.57 781.83 354.72 C781.83 375.26 781.82 395.8 781.81 416.34 C781.81 423.61 781.81 430.88 781.81 438.15 C781.81 447 781.8 455.85 781.8 464.69 C781.79 469.21 781.79 473.73 781.79 478.24 C781.79 482.37 781.79 486.5 781.78 490.63 C781.78 492.13 781.78 493.62 781.78 495.12 C781.78 497.15 781.78 499.17 781.77 501.2 C781.77 502.33 781.77 503.46 781.77 504.62 C781.64 507.13 781.64 507.13 780.64 508.13 C777.93 508.25 775.24 508.31 772.53 508.34 C770.8 508.36 769.07 508.39 767.34 508.42 C765.98 508.44 765.98 508.44 764.58 508.46 C736.74 508.12 736.74 508.12 709.64 513.13 C707.9 513.3 706.14 513.44 704.39 513.56 C699.91 513.94 695.95 514.8 691.64 516.13 C689.31 516.47 686.98 516.8 684.64 517.13 C684.31 517.46 683.98 517.79 683.64 518.13 C682.32 518.44 680.98 518.7 679.64 518.94 C664.04 521.93 664.04 521.93 649.08 527.13 C646.21 528.3 643.3 529.18 640.33 530.06 C631.46 532.73 622.79 535.84 614.59 540.17 C612.64 541.13 612.64 541.13 608.93 542.47 C604.53 544.1 600.5 546.2 596.39 548.44 C594.9 549.24 593.4 550.05 591.9 550.85 C591.18 551.24 590.45 551.63 589.71 552.03 C586.9 553.52 584.06 554.92 581.21 556.31 C574.28 559.76 567.78 563.72 561.31 567.95 C560.54 568.45 559.77 568.95 558.98 569.47 C557.44 570.48 555.89 571.5 554.35 572.52 C553.65 572.99 552.94 573.45 552.21 573.93 C551.57 574.35 550.93 574.78 550.27 575.21 C548.64 576.13 548.64 576.13 546.64 576.13 C546.64 576.79 546.64 577.45 546.64 578.13 C542.26 581.13 542.26 581.13 539.64 581.13 C539.64 581.79 539.64 582.45 539.64 583.13 C538.65 583.13 537.66 583.13 536.64 583.13 C536.64 583.79 536.64 584.45 536.64 585.13 C534.96 586.63 534.96 586.63 532.77 588.25 C532.05 588.79 531.33 589.33 530.59 589.88 C528.64 591.13 528.64 591.13 526.64 591.13 C526.64 591.79 526.64 592.45 526.64 593.13 C524.78 594.82 524.78 594.82 522.33 596.69 C521.53 597.31 520.73 597.93 519.9 598.57 C517.64 600.13 517.64 600.13 514.64 601.13 C514.64 601.79 514.64 602.45 514.64 603.13 C509.17 608.13 509.17 608.13 506.64 608.13 C506.31 609.12 505.98 610.11 505.64 611.13 C504.98 611.13 504.32 611.13 503.64 611.13 C503.64 611.79 503.64 612.45 503.64 613.13 C502.98 613.13 502.32 613.13 501.64 613.13 C501.64 613.79 501.64 614.45 501.64 615.13 C500.07 616.64 500.07 616.64 497.96 618.38 C495.29 620.63 492.93 622.83 490.77 625.56 C490.07 626.41 489.37 627.26 488.64 628.13 C487.98 628.13 487.32 628.13 486.64 628.13 C486.64 628.79 486.64 629.45 486.64 630.13 C485.98 630.13 485.32 630.13 484.64 630.13 C484.31 631.12 483.98 632.11 483.64 633.13 C482.98 633.13 482.32 633.13 481.64 633.13 C481.37 633.7 481.11 634.28 480.83 634.88 C479.61 637.18 478.34 639.15 476.64 641.13 C475.98 641.13 475.32 641.13 474.64 641.13 C474.37 641.7 474.11 642.27 473.83 642.86 C472.6 645.21 471.22 647.25 469.64 649.38 C468.87 650.44 468.87 650.44 468.08 651.52 C467.61 652.05 467.13 652.58 466.64 653.13 C465.98 653.13 465.32 653.13 464.64 653.13 C464.4 653.66 464.15 654.2 463.89 654.75 C462.34 657.71 460.61 660.42 458.64 663.13 C457.98 663.13 457.32 663.13 456.64 663.13 C456.56 663.66 456.48 664.2 456.39 664.75 C455.37 668 453.68 670.41 451.64 673.13 C450.98 673.13 450.32 673.13 449.64 673.13 C449.4 673.81 449.16 674.5 448.91 675.21 C447.41 678.66 445.46 681.69 443.39 684.81 C442.58 686.06 441.76 687.32 440.95 688.57 C440.56 689.18 440.16 689.79 439.75 690.41 C435.5 696.98 431.79 703.69 428.35 710.72 C426.33 714.75 424.21 718.72 422.08 722.69 C417.27 731.73 413.02 740.77 409.61 750.44 C408.67 753.05 407.64 755.62 406.58 758.19 C404.92 762.28 403.64 766.41 402.42 770.65 C401.65 773.1 400.72 775.39 399.71 777.75 C397.12 784.04 395.66 790.61 394.1 797.2 C393.45 799.94 392.73 802.66 392.02 805.38 C390.74 810.46 389.85 815.55 389.07 820.73 C388.64 823.13 388.64 823.13 387.64 825.13 C387.44 826.94 387.28 828.75 387.14 830.56 C386.91 833.69 386.64 836.14 385.64 839.13 C385.44 840.69 385.28 842.26 385.14 843.84 C385.06 844.75 384.98 845.67 384.89 846.61 C384.81 847.56 384.73 848.52 384.64 849.5 C384.48 851.38 384.31 853.27 384.14 855.15 C384.07 855.98 384 856.82 383.92 857.68 C383.64 860.13 383.64 860.13 383.13 862.43 C382.62 865.24 382.51 867.83 382.5 870.69 C382.49 871.78 382.48 872.87 382.48 874 C382.48 875.17 382.48 876.35 382.47 877.56 C382.47 878.78 382.47 880 382.46 881.26 C382.46 883.85 382.46 886.44 382.46 889.03 C382.46 892.95 382.44 896.87 382.42 900.79 C382.39 913.1 382.58 924.98 384.64 937.13 C384.94 940.07 385.18 943.01 385.4 945.95 C385.59 948.3 385.59 948.3 386.64 951.13 C386.91 953.8 387.09 956.47 387.26 959.14 C387.7 962.61 388.67 965.77 389.64 969.13 C390.08 971.52 390.5 973.91 390.89 976.31 C392.49 985.37 395.19 994.03 397.93 1002.8 C398.95 1006.12 399.85 1009.46 400.77 1012.81 C402.06 1017.39 403.61 1021.58 405.65 1025.86 C406.81 1028.51 407.66 1031.19 408.52 1033.94 C410.26 1039.34 412.59 1044.22 415.21 1049.25 C416.52 1051.88 417.61 1054.5 418.64 1057.25 C420.32 1061.62 422.52 1065.41 425 1069.37 C426.62 1072.09 428 1074.84 429.37 1077.69 C432.57 1084.14 436.23 1090.22 440.08 1096.31 C440.71 1097.33 441.34 1098.34 441.99 1099.39 C445.5 1104.98 449.14 1110.19 453.47 1115.18 C454.64 1117.13 454.64 1117.13 454.22 1119.25 C454.03 1119.87 453.84 1120.49 453.64 1121.13 C396.75 1121.2 339.86 1121.25 282.96 1121.28 C276.24 1121.28 269.52 1121.29 262.8 1121.29 C262.13 1121.29 261.46 1121.29 260.77 1121.29 C239.12 1121.31 217.47 1121.33 195.82 1121.36 C172.92 1121.38 150.03 1121.4 127.13 1121.41 C113.43 1121.41 99.72 1121.43 86.02 1121.45 C76.61 1121.47 67.2 1121.47 57.8 1121.47 C52.37 1121.47 46.95 1121.47 41.53 1121.48 C36.55 1121.5 31.58 1121.5 26.61 1121.49 C24.82 1121.49 23.03 1121.49 21.24 1121.5 C5.12 1121.58 -10.23 1119.77 -25.54 1114.44 C-26.56 1114.09 -27.58 1113.75 -28.62 1113.39 C-37.06 1110.42 -44.67 1106.65 -52.36 1102.13 C-54.42 1101.02 -56.48 1099.91 -58.54 1098.81 C-61.68 1097.13 -64.65 1095.45 -67.36 1093.13 C-67.36 1092.47 -67.36 1091.81 -67.36 1091.13 C-68.44 1090.76 -68.44 1090.76 -69.54 1090.38 C-72.63 1089 -74.87 1087.4 -77.36 1085.13 C-77.36 1084.47 -77.36 1083.81 -77.36 1083.13 C-78.02 1083.13 -78.68 1083.13 -79.36 1083.13 C-79.36 1082.47 -79.36 1081.81 -79.36 1081.13 C-79.93 1080.88 -80.51 1080.63 -81.11 1080.38 C-83.69 1078.94 -85.42 1077.34 -87.36 1075.13 C-87.36 1074.47 -87.36 1073.81 -87.36 1073.13 C-88.02 1073.13 -88.68 1073.13 -89.36 1073.13 C-89.36 1072.47 -89.36 1071.81 -89.36 1071.13 C-90.35 1070.8 -91.34 1070.47 -92.36 1070.13 C-92.36 1069.47 -92.36 1068.81 -92.36 1068.13 C-93.02 1068.13 -93.68 1068.13 -94.36 1068.13 C-96.04 1066.06 -97.58 1064 -99.11 1061.81 C-99.78 1060.85 -99.78 1060.85 -100.47 1059.88 C-104.2 1054.5 -107.41 1048.97 -110.36 1043.13 C-110.96 1041.99 -111.55 1040.86 -112.17 1039.69 C-115.32 1033.65 -118.05 1027.76 -119.81 1021.17 C-120.46 1018.73 -121.41 1016.46 -122.36 1014.13 C-123.57 1010.33 -124.47 1006.7 -124.92 1002.75 C-124.96 999.32 -124.96 999.32 -126.36 998.13 C-126.46 996.22 -126.48 994.3 -126.48 992.39 C-126.49 991.13 -126.49 989.87 -126.49 988.58 C-126.49 987.16 -126.49 985.74 -126.48 984.33 C-126.48 982.83 -126.49 981.34 -126.49 979.84 C-126.49 975.7 -126.49 971.55 -126.49 967.4 C-126.48 962.91 -126.49 958.41 -126.49 953.92 C-126.49 946.02 -126.49 938.13 -126.49 930.24 C-126.49 918.5 -126.49 906.77 -126.49 895.03 C-126.5 874.08 -126.5 853.12 -126.49 832.17 C-126.49 813.83 -126.49 795.5 -126.49 777.16 C-126.49 775.94 -126.49 774.73 -126.49 773.48 C-126.49 768.55 -126.49 763.62 -126.49 758.69 C-126.5 712.42 -126.49 666.15 -126.49 619.87 C-126.48 578.72 -126.48 537.57 -126.49 496.41 C-126.49 450.23 -126.5 404.04 -126.49 357.85 C-126.49 352.93 -126.49 348.01 -126.49 343.09 C-126.49 341.88 -126.49 340.67 -126.49 339.42 C-126.49 321.09 -126.49 302.76 -126.49 284.43 C-126.5 263.6 -126.5 242.77 -126.49 221.94 C-126.49 210.26 -126.49 198.59 -126.49 186.92 C-126.49 179.13 -126.49 171.35 -126.49 163.57 C-126.49 159.13 -126.48 154.68 -126.49 150.24 C-126.49 146.2 -126.49 142.17 -126.48 138.14 C-126.48 136.68 -126.48 135.22 -126.49 133.76 C-126.49 131.8 -126.49 129.83 -126.48 127.87 C-126.48 126.77 -126.48 125.68 -126.48 124.56 C-126.36 122.13 -126.36 122.13 -125.36 121.13 C-125.01 119.64 -124.7 118.13 -124.42 116.63 C-124.24 115.72 -124.07 114.82 -123.89 113.89 C-123.71 112.98 -123.54 112.07 -123.36 111.13 C-122.25 105.41 -120.75 100.47 -118.36 95.13 C-117.72 93.36 -117.1 91.59 -116.48 89.81 C-114.53 84.35 -112.07 79.25 -109.36 74.13 C-108.7 74.13 -108.04 74.13 -107.36 74.13 C-107.26 73.58 -107.16 73.03 -107.06 72.46 C-105.58 67.55 -102.18 63.36 -99.36 59.13 C-98.86 58.38 -98.36 57.63 -97.85 56.85 C-96.75 55.24 -95.56 53.67 -94.36 52.13 C-93.7 52.13 -93.04 52.13 -92.36 52.13 C-92.03 51.14 -91.7 50.15 -91.36 49.13 C-90.7 49.13 -90.04 49.13 -89.36 49.13 C-89.36 48.47 -89.36 47.81 -89.36 47.13 C-88.7 47.13 -88.04 47.13 -87.36 47.13 C-87.11 46.55 -86.86 45.97 -86.61 45.38 C-85.17 42.8 -83.57 41.07 -81.36 39.13 C-80.7 39.13 -80.04 39.13 -79.36 39.13 C-79.36 38.47 -79.36 37.81 -79.36 37.13 C-78.7 37.13 -78.04 37.13 -77.36 37.13 C-77.03 36.14 -76.7 35.15 -76.36 34.13 C-75.7 34.13 -75.04 34.13 -74.36 34.13 C-74.36 33.47 -74.36 32.81 -74.36 32.13 C-72.16 30.39 -69.97 28.78 -67.67 27.19 C-67.04 26.75 -66.42 26.3 -65.77 25.85 C-56.21 19.13 -56.21 19.13 -52.36 19.13 C-52.36 18.47 -52.36 17.81 -52.36 17.13 C-41.89 12.28 -31.4 7.53 -20.36 4.13 C-19.18 3.76 -18.01 3.38 -16.79 3 C-14.12 2.32 -11.7 1.88 -8.98 1.56 C-5.35 1.13 -3.7 0 0 0 Z M70.64 217.13 C69.8 217.4 68.96 217.67 68.09 217.95 C59.6 221.11 52.64 226.36 46.64 233.13 C46.64 233.79 46.64 234.45 46.64 235.13 C45.98 235.13 45.32 235.13 44.64 235.13 C43.68 236.88 42.73 238.63 41.77 240.38 C41.23 241.35 40.7 242.33 40.15 243.33 C34.03 254.68 32.68 267.32 35.83 279.94 C38.4 288.07 42.3 295.49 47.64 302.13 C48.3 302.13 48.96 302.13 49.64 302.13 C49.64 302.79 49.64 303.45 49.64 304.13 C60.76 315.05 74.03 319.45 89.31 319.39 C90.24 319.39 91.17 319.39 92.13 319.4 C95.23 319.41 98.32 319.41 101.42 319.4 C103.65 319.41 105.88 319.41 108.11 319.42 C114.15 319.43 120.19 319.43 126.23 319.43 C131.28 319.43 136.33 319.43 141.38 319.44 C153.98 319.45 166.57 319.45 179.17 319.44 C190.09 319.44 201.01 319.45 211.93 319.47 C223.17 319.49 234.4 319.49 245.63 319.49 C251.93 319.49 258.23 319.49 264.53 319.5 C270.45 319.52 276.38 319.52 282.3 319.5 C284.47 319.5 286.64 319.5 288.81 319.51 C307.57 319.58 323.3 317.41 337.64 304.13 C348.76 292.38 353.13 279.49 352.82 263.54 C352.26 252.8 348.61 244.08 342.64 235.13 C341.98 235.13 341.32 235.13 340.64 235.13 C340.44 234.59 340.23 234.05 340.02 233.5 C338.11 230.21 335.59 227.53 332.64 225.13 C331.98 225.13 331.32 225.13 330.64 225.13 C330.64 224.47 330.64 223.81 330.64 223.13 C329.08 222.33 327.52 221.54 325.96 220.75 C325.08 220.31 324.21 219.87 323.32 219.42 C315.55 215.67 308.67 214.98 300.16 214.99 C298.74 214.99 298.74 214.99 297.29 214.99 C294.12 214.98 290.95 214.98 287.78 214.98 C285.5 214.98 283.23 214.97 280.95 214.97 C274.77 214.96 268.59 214.96 262.42 214.96 C257.26 214.96 252.1 214.95 246.95 214.95 C235.48 214.94 224.01 214.94 212.54 214.94 C211.51 214.94 211.51 214.94 210.45 214.94 C209.76 214.94 209.08 214.94 208.37 214.94 C197.2 214.94 186.04 214.93 174.88 214.92 C163.41 214.9 151.94 214.9 140.47 214.9 C134.04 214.9 127.6 214.9 121.16 214.88 C115.11 214.87 109.06 214.87 103.01 214.88 C100.79 214.88 98.57 214.88 96.35 214.87 C93.32 214.87 90.28 214.87 87.25 214.88 C86.37 214.87 85.5 214.87 84.59 214.86 C79.55 214.89 75.43 215.51 70.64 217.13 Z M54.64 438.13 C54.64 438.79 54.64 439.45 54.64 440.13 C54.04 440.39 53.44 440.66 52.83 440.93 C46.76 444.25 43.01 451.3 39.64 457.13 C39.09 458.08 38.53 459.02 37.96 460 C33.26 471.18 32.78 485.62 36.64 497.13 C40.38 505.51 45.7 514 52.64 520.13 C53.3 520.13 53.96 520.13 54.64 520.13 C54.64 520.79 54.64 521.45 54.64 522.13 C67.92 531.95 81.41 532.86 97.26 532.76 C99.33 532.77 101.4 532.78 103.47 532.79 C109.12 532.81 114.78 532.8 120.43 532.78 C126.54 532.77 132.66 532.79 138.77 532.8 C150.04 532.82 161.3 532.82 172.57 532.81 C182.98 532.79 193.4 532.79 203.81 532.8 C204.5 532.8 205.19 532.8 205.9 532.8 C208.71 532.8 211.52 532.8 214.33 532.8 C240.65 532.82 266.97 532.8 293.29 532.78 C316.65 532.75 340.02 532.75 363.38 532.78 C389.65 532.81 415.93 532.82 442.2 532.8 C445.01 532.8 447.81 532.8 450.61 532.8 C451.3 532.8 451.99 532.79 452.7 532.79 C463.11 532.79 473.51 532.8 483.91 532.81 C495.75 532.82 507.58 532.82 519.41 532.79 C525.45 532.78 531.48 532.77 537.52 532.79 C543.04 532.8 548.57 532.8 554.1 532.77 C556.1 532.76 558.09 532.77 560.09 532.78 C574.3 532.86 585.46 531.24 597.46 522.94 C598.45 522.26 599.45 521.59 600.47 520.9 C601.19 520.31 601.91 519.73 602.64 519.13 C602.64 518.47 602.64 517.81 602.64 517.13 C604.13 516.63 604.13 516.63 605.64 516.13 C605.64 515.47 605.64 514.81 605.64 514.13 C606.3 514.13 606.96 514.13 607.64 514.13 C617.61 501.01 620 487.31 618.64 471.13 C617.62 464.69 615.93 458.77 612.64 453.13 C611.98 453.13 611.32 453.13 610.64 453.13 C610.33 452.34 610.02 451.56 609.71 450.75 C608.71 448.2 608.71 448.2 607.64 446.13 C606.98 446.13 606.32 446.13 605.64 446.13 C605.31 445.14 604.98 444.15 604.64 443.13 C603.98 443.13 603.32 443.13 602.64 443.13 C602.64 442.47 602.64 441.81 602.64 441.13 C600.39 439.23 600.39 439.23 597.46 437.31 C596.49 436.65 595.53 435.98 594.54 435.29 C582.1 428 571.21 427.41 557.15 427.49 C555.09 427.49 553.02 427.48 550.95 427.47 C545.29 427.45 539.64 427.46 533.98 427.47 C527.87 427.48 521.76 427.47 515.65 427.45 C504.38 427.43 493.12 427.43 481.85 427.45 C471.44 427.46 461.02 427.46 450.61 427.46 C449.92 427.46 449.23 427.46 448.52 427.46 C445.71 427.45 442.9 427.45 440.09 427.45 C413.77 427.44 387.45 427.45 361.13 427.48 C337.76 427.5 314.4 427.5 291.03 427.47 C264.76 427.45 238.49 427.44 212.22 427.45 C209.41 427.45 206.61 427.46 203.81 427.46 C202.77 427.46 202.77 427.46 201.72 427.46 C191.31 427.46 180.91 427.46 170.51 427.45 C158.67 427.43 146.84 427.43 135.01 427.46 C128.97 427.47 122.94 427.48 116.9 427.46 C111.37 427.45 105.84 427.46 100.31 427.48 C98.32 427.49 96.32 427.49 94.33 427.47 C79.54 427.39 66.94 429.03 54.64 438.13 Z M51.64 654.13 C51.64 654.79 51.64 655.45 51.64 656.13 C50.98 656.13 50.32 656.13 49.64 656.13 C49.64 656.79 49.64 657.45 49.64 658.13 C48.98 658.13 48.32 658.13 47.64 658.13 C38.28 667.7 34.61 680.62 34.39 693.63 C34.57 703.94 36.68 711.11 41.64 720.13 C42.2 721.16 42.76 722.19 43.33 723.25 C43.76 723.87 44.2 724.49 44.64 725.13 C45.3 725.13 45.96 725.13 46.64 725.13 C46.89 725.71 47.13 726.28 47.39 726.88 C52.03 735.19 62.76 741.32 71.64 744.13 C77.83 745.26 83.91 745.27 90.19 745.27 C91.34 745.27 92.5 745.27 93.69 745.28 C96.89 745.28 100.09 745.29 103.29 745.29 C106.74 745.29 110.2 745.3 113.66 745.3 C121.21 745.32 128.76 745.32 136.3 745.33 C141.02 745.33 145.74 745.33 150.46 745.34 C163.53 745.35 176.61 745.36 189.68 745.36 C190.52 745.36 191.35 745.36 192.22 745.36 C193.05 745.36 193.89 745.37 194.76 745.37 C196.45 745.37 198.15 745.37 199.85 745.37 C201.11 745.37 201.11 745.37 202.4 745.37 C216.04 745.37 229.69 745.39 243.33 745.41 C257.35 745.44 271.37 745.45 285.39 745.45 C293.26 745.45 301.13 745.46 308.99 745.47 C315.69 745.49 322.39 745.49 329.09 745.49 C332.5 745.48 335.92 745.48 339.33 745.5 C343.04 745.51 346.75 745.5 350.46 745.49 C352.06 745.51 352.06 745.51 353.69 745.52 C363.12 745.46 372.41 743.93 380.64 739.13 C380.64 738.47 380.64 737.81 380.64 737.13 C381.43 736.82 382.21 736.51 383.02 736.19 C385.57 735.2 385.57 735.2 387.64 734.13 C387.64 733.47 387.64 732.81 387.64 732.13 C389.13 731.63 389.13 731.63 390.64 731.13 C390.64 730.47 390.64 729.81 390.64 729.13 C391.3 729.13 391.96 729.13 392.64 729.13 C403.41 715.93 407.17 702.42 405.94 685.61 C404.87 676.65 400.97 668.33 395.64 661.13 C394.98 661.13 394.32 661.13 393.64 661.13 C393.38 660.53 393.11 659.93 392.84 659.31 C389.52 653.24 382.47 649.49 376.64 646.13 C375.69 645.57 374.75 645.01 373.77 644.44 C365.75 641.07 357.44 640.84 348.85 640.87 C347.7 640.86 346.55 640.86 345.37 640.85 C341.54 640.84 337.71 640.85 333.89 640.85 C331.13 640.85 328.38 640.84 325.63 640.84 C318.94 640.82 312.26 640.82 305.57 640.82 C300.13 640.83 294.7 640.82 289.26 640.82 C288.48 640.82 287.71 640.82 286.91 640.82 C285.33 640.82 283.76 640.82 282.18 640.81 C267.43 640.8 252.67 640.81 237.92 640.81 C224.43 640.82 210.95 640.81 197.46 640.79 C183.6 640.77 169.73 640.76 155.87 640.76 C148.09 640.76 140.32 640.76 132.54 640.75 C125.92 640.74 119.3 640.73 112.68 640.75 C109.31 640.75 105.94 640.75 102.56 640.74 C98.9 640.73 95.23 640.74 91.57 640.75 C90.51 640.74 89.46 640.74 88.37 640.73 C74.62 640.83 62.34 645.52 51.64 654.13 Z " fill="#ece0da" transform="translate(126.35745519399643,-0.12649983167648315)"/>
<path d="M0 0 C0.82 0 1.64 0 2.48 0 C15.81 0.03 28.85 0.88 42.04 2.94 C44.14 3.27 46.25 3.55 48.35 3.82 C55.11 4.71 61.49 6.35 68.02 8.3 C71.23 9.25 74.44 10.08 77.69 10.88 C85.47 12.8 92.89 14.92 100.18 18.29 C102.43 19.31 104.7 20.23 107 21.12 C119.22 26.01 130.58 31.26 141.73 38.26 C143.49 39.34 145.26 40.37 147.05 41.39 C160.16 48.84 171.82 57.92 183.21 67.73 C185.56 69.75 187.86 71.59 190.44 73.31 C190.44 73.97 190.44 74.63 190.44 75.31 C191.08 75.58 191.72 75.85 192.38 76.12 C194.44 77.31 194.44 77.31 195.44 80.31 C196.1 80.64 196.76 80.97 197.44 81.31 C198.1 81.64 198.76 81.97 199.44 82.31 C199.77 83.3 200.1 84.29 200.44 85.31 C201.1 85.64 201.76 85.97 202.44 86.31 C203.1 86.64 203.76 86.97 204.44 87.31 C204.77 88.3 205.1 89.29 205.44 90.31 C206.1 90.31 206.76 90.31 207.44 90.31 C209.02 91.89 209.02 91.89 210.81 94 C211.43 94.73 212.05 95.46 212.68 96.21 C213.55 97.25 213.55 97.25 214.44 98.31 C215.24 99.26 216.05 100.21 216.88 101.19 C218.44 103.31 218.44 103.31 218.44 105.31 C219.1 105.31 219.76 105.31 220.44 105.31 C221.88 107.05 223.25 108.85 224.56 110.69 C225.29 111.69 226.01 112.68 226.76 113.71 C228.44 116.31 228.44 116.31 228.44 118.31 C229.1 118.31 229.76 118.31 230.44 118.31 C231.91 120.41 233.25 122.49 234.56 124.69 C235.12 125.59 235.12 125.59 235.69 126.52 C238.44 131.04 238.44 131.04 238.44 133.31 C239.1 133.31 239.76 133.31 240.44 133.31 C240.82 134.11 241.21 134.91 241.61 135.73 C242.39 137.32 242.39 137.32 243.19 138.94 C243.7 139.98 244.21 141.03 244.73 142.1 C246.37 145.33 246.37 145.33 248.4 148.21 C250.74 151.77 252.53 155.4 254.31 159.25 C254.66 159.99 255 160.73 255.36 161.49 C258.67 168.66 261.57 175.96 264.44 183.31 C265.15 185 265.85 186.69 266.56 188.38 C269.03 194.53 270.7 200.92 272.44 207.31 C272.72 208.3 273 209.28 273.29 210.3 C274.96 216.27 276.33 222.22 277.44 228.31 C277.67 229.49 277.91 230.67 278.16 231.89 C280.06 241.81 280.97 251.74 281.62 261.81 C281.71 263.09 281.79 264.36 281.88 265.68 C283.28 288.8 282.33 312.56 276.94 335.14 C276.39 337.54 275.9 339.94 275.43 342.36 C273.49 352.15 271.32 361.84 267.36 371.04 C266.42 373.36 265.73 375.65 265.06 378.06 C259.8 396.12 249.8 413.11 240.44 429.31 C239.9 430.29 239.36 431.26 238.8 432.27 C238.35 432.94 237.9 433.62 237.44 434.31 C236.78 434.31 236.12 434.31 235.44 434.31 C235.44 436.29 235.44 438.27 235.44 440.31 C236.1 440.31 236.76 440.31 237.44 440.31 C239.06 441.69 239.06 441.69 240.44 443.31 C240.44 443.97 240.44 444.63 240.44 445.31 C241.1 445.31 241.76 445.31 242.44 445.31 C244.06 446.69 244.06 446.69 245.44 448.31 C245.44 448.97 245.44 449.63 245.44 450.31 C246.1 450.31 246.76 450.31 247.44 450.31 C249.06 451.69 249.06 451.69 250.44 453.31 C250.44 453.97 250.44 454.63 250.44 455.31 C251.1 455.31 251.76 455.31 252.44 455.31 C254.06 456.69 254.06 456.69 255.44 458.31 C255.44 458.97 255.44 459.63 255.44 460.31 C256.1 460.31 256.76 460.31 257.44 460.31 C259.06 461.69 259.06 461.69 260.44 463.31 C260.44 463.97 260.44 464.63 260.44 465.31 C261.1 465.31 261.76 465.31 262.44 465.31 C264.06 466.69 264.06 466.69 265.44 468.31 C265.44 468.97 265.44 469.63 265.44 470.31 C266.1 470.31 266.76 470.31 267.44 470.31 C269.06 471.69 269.06 471.69 270.44 473.31 C270.44 473.97 270.44 474.63 270.44 475.31 C271.1 475.31 271.76 475.31 272.44 475.31 C274.06 476.69 274.06 476.69 275.44 478.31 C275.44 478.97 275.44 479.63 275.44 480.31 C276.1 480.31 276.76 480.31 277.44 480.31 C279.06 481.69 279.06 481.69 280.44 483.31 C280.44 483.97 280.44 484.63 280.44 485.31 C281.1 485.31 281.76 485.31 282.44 485.31 C284.06 486.69 284.06 486.69 285.44 488.31 C285.44 488.97 285.44 489.63 285.44 490.31 C286.1 490.31 286.76 490.31 287.44 490.31 C289.06 491.69 289.06 491.69 290.44 493.31 C290.44 493.97 290.44 494.63 290.44 495.31 C291.1 495.31 291.76 495.31 292.44 495.31 C294.06 496.69 294.06 496.69 295.44 498.31 C295.44 498.97 295.44 499.63 295.44 500.31 C296.1 500.31 296.76 500.31 297.44 500.31 C299.06 501.69 299.06 501.69 300.44 503.31 C300.44 503.97 300.44 504.63 300.44 505.31 C301.1 505.31 301.76 505.31 302.44 505.31 C304.06 506.69 304.06 506.69 305.44 508.31 C305.44 508.97 305.44 509.63 305.44 510.31 C306.1 510.31 306.76 510.31 307.44 510.31 C309.06 511.69 309.06 511.69 310.44 513.31 C310.44 513.97 310.44 514.63 310.44 515.31 C311.1 515.31 311.76 515.31 312.44 515.31 C314.06 516.69 314.06 516.69 315.44 518.31 C315.44 518.97 315.44 519.63 315.44 520.31 C316.1 520.31 316.76 520.31 317.44 520.31 C319.06 521.69 319.06 521.69 320.44 523.31 C320.44 523.97 320.44 524.63 320.44 525.31 C321.1 525.31 321.76 525.31 322.44 525.31 C324.06 526.69 324.06 526.69 325.44 528.31 C325.44 528.97 325.44 529.63 325.44 530.31 C326.1 530.31 326.76 530.31 327.44 530.31 C329.06 531.69 329.06 531.69 330.44 533.31 C330.44 533.97 330.44 534.63 330.44 535.31 C331.1 535.31 331.76 535.31 332.44 535.31 C334.06 536.69 334.06 536.69 335.44 538.31 C335.44 538.97 335.44 539.63 335.44 540.31 C336.1 540.31 336.76 540.31 337.44 540.31 C339.06 541.69 339.06 541.69 340.44 543.31 C340.44 543.97 340.44 544.63 340.44 545.31 C341.1 545.31 341.76 545.31 342.44 545.31 C344.06 546.69 344.06 546.69 345.44 548.31 C345.44 548.97 345.44 549.63 345.44 550.31 C346.1 550.31 346.76 550.31 347.44 550.31 C349.06 551.69 349.06 551.69 350.44 553.31 C350.44 553.97 350.44 554.63 350.44 555.31 C351.1 555.31 351.76 555.31 352.44 555.31 C354.06 556.69 354.06 556.69 355.44 558.31 C355.44 558.97 355.44 559.63 355.44 560.31 C356.1 560.31 356.76 560.31 357.44 560.31 C359.06 561.69 359.06 561.69 360.44 563.31 C360.44 563.97 360.44 564.63 360.44 565.31 C361.1 565.31 361.76 565.31 362.44 565.31 C364.06 566.69 364.06 566.69 365.44 568.31 C365.44 568.97 365.44 569.63 365.44 570.31 C366.1 570.31 366.76 570.31 367.44 570.31 C369.06 571.69 369.06 571.69 370.44 573.31 C370.44 573.97 370.44 574.63 370.44 575.31 C371.1 575.31 371.76 575.31 372.44 575.31 C383.67 587.19 387.8 598.32 387.88 614.44 C387.91 615.69 387.94 616.95 387.97 618.24 C388.04 629.25 385.26 638.11 378.75 647.06 C378.17 647.88 377.59 648.7 376.99 649.55 C376.48 650.13 375.96 650.71 375.44 651.31 C374.78 651.31 374.12 651.31 373.44 651.31 C373.11 652.3 372.78 653.29 372.44 654.31 C371.78 654.31 371.12 654.31 370.44 654.31 C370.44 654.97 370.44 655.63 370.44 656.31 C368.16 658.12 368.16 658.12 365.06 660.19 C364.06 660.87 363.07 661.54 362.04 662.24 C352.81 667.78 344.78 668.97 334.06 668.88 C332.83 668.9 331.59 668.92 330.31 668.95 C317.3 668.93 308.21 664.62 298.44 656.31 C297.7 655.79 296.95 655.27 296.19 654.73 C295.61 654.26 295.03 653.79 294.44 653.31 C294.44 652.65 294.44 651.99 294.44 651.31 C293.78 651.31 293.12 651.31 292.44 651.31 C290.81 649.94 290.81 649.94 289.44 648.31 C289.44 647.65 289.44 646.99 289.44 646.31 C288.78 646.31 288.12 646.31 287.44 646.31 C285.81 644.94 285.81 644.94 284.44 643.31 C284.44 642.65 284.44 641.99 284.44 641.31 C283.78 641.31 283.12 641.31 282.44 641.31 C280.81 639.94 280.81 639.94 279.44 638.31 C279.44 637.65 279.44 636.99 279.44 636.31 C278.78 636.31 278.12 636.31 277.44 636.31 C275.81 634.94 275.81 634.94 274.44 633.31 C274.44 632.65 274.44 631.99 274.44 631.31 C273.78 631.31 273.12 631.31 272.44 631.31 C270.81 629.94 270.81 629.94 269.44 628.31 C269.44 627.65 269.44 626.99 269.44 626.31 C268.78 626.31 268.12 626.31 267.44 626.31 C265.81 624.94 265.81 624.94 264.44 623.31 C264.44 622.65 264.44 621.99 264.44 621.31 C263.78 621.31 263.12 621.31 262.44 621.31 C260.81 619.94 260.81 619.94 259.44 618.31 C259.44 617.65 259.44 616.99 259.44 616.31 C258.78 616.31 258.12 616.31 257.44 616.31 C255.81 614.94 255.81 614.94 254.44 613.31 C254.44 612.65 254.44 611.99 254.44 611.31 C253.78 611.31 253.12 611.31 252.44 611.31 C250.81 609.94 250.81 609.94 249.44 608.31 C249.44 607.65 249.44 606.99 249.44 606.31 C248.78 606.31 248.12 606.31 247.44 606.31 C245.81 604.94 245.81 604.94 244.44 603.31 C244.44 602.65 244.44 601.99 244.44 601.31 C243.78 601.31 243.12 601.31 242.44 601.31 C240.81 599.94 240.81 599.94 239.44 598.31 C239.44 597.65 239.44 596.99 239.44 596.31 C238.78 596.31 238.12 596.31 237.44 596.31 C235.81 594.94 235.81 594.94 234.44 593.31 C234.44 592.65 234.44 591.99 234.44 591.31 C233.78 591.31 233.12 591.31 232.44 591.31 C230.81 589.94 230.81 589.94 229.44 588.31 C229.44 587.65 229.44 586.99 229.44 586.31 C228.78 586.31 228.12 586.31 227.44 586.31 C225.81 584.94 225.81 584.94 224.44 583.31 C224.44 582.65 224.44 581.99 224.44 581.31 C223.78 581.31 223.12 581.31 222.44 581.31 C220.81 579.94 220.81 579.94 219.44 578.31 C219.44 577.65 219.44 576.99 219.44 576.31 C218.78 576.31 218.12 576.31 217.44 576.31 C215.81 574.94 215.81 574.94 214.44 573.31 C214.44 572.65 214.44 571.99 214.44 571.31 C213.78 571.31 213.12 571.31 212.44 571.31 C210.81 569.94 210.81 569.94 209.44 568.31 C209.44 567.65 209.44 566.99 209.44 566.31 C208.78 566.31 208.12 566.31 207.44 566.31 C205.81 564.94 205.81 564.94 204.44 563.31 C204.44 562.65 204.44 561.99 204.44 561.31 C203.78 561.31 203.12 561.31 202.44 561.31 C200.81 559.94 200.81 559.94 199.44 558.31 C199.44 557.65 199.44 556.99 199.44 556.31 C198.78 556.31 198.12 556.31 197.44 556.31 C195.81 554.94 195.81 554.94 194.44 553.31 C194.44 552.65 194.44 551.99 194.44 551.31 C193.78 551.31 193.12 551.31 192.44 551.31 C190.81 549.94 190.81 549.94 189.44 548.31 C189.44 547.65 189.44 546.99 189.44 546.31 C188.78 546.31 188.12 546.31 187.44 546.31 C185.81 544.94 185.81 544.94 184.44 543.31 C184.44 542.65 184.44 541.99 184.44 541.31 C183.78 541.31 183.12 541.31 182.44 541.31 C180.81 539.94 180.81 539.94 179.44 538.31 C179.44 537.65 179.44 536.99 179.44 536.31 C178.78 536.31 178.12 536.31 177.44 536.31 C175.81 534.94 175.81 534.94 174.44 533.31 C174.44 532.65 174.44 531.99 174.44 531.31 C173.78 531.31 173.12 531.31 172.44 531.31 C170.81 529.94 170.81 529.94 169.44 528.31 C169.44 527.65 169.44 526.99 169.44 526.31 C168.78 526.31 168.12 526.31 167.44 526.31 C165.81 524.94 165.81 524.94 164.44 523.31 C164.44 522.65 164.44 521.99 164.44 521.31 C163.78 521.31 163.12 521.31 162.44 521.31 C160.81 519.94 160.81 519.94 159.44 518.31 C159.44 517.65 159.44 516.99 159.44 516.31 C157.46 516.31 155.48 516.31 153.44 516.31 C153.44 516.97 153.44 517.63 153.44 518.31 C146.6 523.21 139.07 527.16 131.52 530.82 C129.38 531.86 127.25 532.93 125.14 534.03 C117.62 537.92 110.1 541.09 102.15 543.96 C96.76 545.92 91.42 548.01 86.17 550.3 C82.66 551.6 79.08 552.43 75.44 553.25 C74.68 553.42 73.93 553.6 73.15 553.78 C71.62 554.13 70.09 554.48 68.57 554.82 C66.72 555.25 64.87 555.69 63.03 556.13 C59.84 556.9 56.64 557.62 53.44 558.31 C52.29 558.57 51.13 558.83 49.95 559.09 C29.03 563.3 7.11 564.03 -14.13 562.48 C-16.51 562.32 -18.89 562.21 -21.28 562.12 C-35.13 561.59 -48.58 559.55 -61.99 555.99 C-64.26 555.39 -66.51 554.9 -68.81 554.44 C-78.57 552.31 -88.3 549.03 -97.56 545.31 C-98.73 544.86 -99.89 544.4 -101.09 543.94 C-113.1 539.23 -113.1 539.23 -118.46 536.41 C-120.1 535.55 -121.77 534.73 -123.45 533.93 C-140.33 525.8 -155.9 515.77 -170.89 504.54 C-172.41 503.42 -173.99 502.36 -175.56 501.31 C-175.56 500.65 -175.56 499.99 -175.56 499.31 C-176.14 499.04 -176.71 498.77 -177.31 498.5 C-179.6 497.29 -181.56 495.94 -183.62 494.38 C-184.3 493.87 -184.97 493.37 -185.66 492.85 C-187.43 491.42 -189.06 490.03 -190.56 488.31 C-190.56 487.65 -190.56 486.99 -190.56 486.31 C-191.2 486.04 -191.84 485.78 -192.5 485.5 C-194.56 484.31 -194.56 484.31 -195.56 481.31 C-196.22 480.98 -196.88 480.65 -197.56 480.31 C-199.56 479.31 -199.56 479.31 -200.56 476.31 C-201.55 475.98 -202.54 475.65 -203.56 475.31 C-203.56 474.65 -203.56 473.99 -203.56 473.31 C-204.22 473.31 -204.88 473.31 -205.56 473.31 C-205.56 472.65 -205.56 471.99 -205.56 471.31 C-206.22 471.31 -206.88 471.31 -207.56 471.31 C-209.34 469.4 -209.34 469.4 -211.5 466.69 C-212.71 465.17 -212.71 465.17 -213.95 463.62 C-214.37 463.08 -214.8 462.54 -215.24 461.98 C-216.54 460.34 -217.86 458.72 -219.18 457.1 C-226.61 447.92 -233.18 438.24 -239.56 428.31 C-240.46 426.92 -240.46 426.92 -241.37 425.51 C-245.99 418.08 -249.75 410.18 -253.56 402.31 C-253.88 401.65 -254.21 401 -254.54 400.32 C-258.1 393.01 -261.29 385.73 -263.73 377.95 C-264.46 375.64 -265.26 373.39 -266.12 371.12 C-266.6 369.85 -267.08 368.58 -267.56 367.31 C-267.8 366.7 -268.03 366.09 -268.27 365.46 C-270.51 359.25 -271.84 352.87 -273.2 346.43 C-274.03 342.26 -274.03 342.26 -275.56 338.31 C-276.27 334.76 -276.74 331.16 -277.24 327.57 C-277.46 326 -277.7 324.43 -277.95 322.86 C-281.6 299.52 -287.59 257.36 -276.56 235.31 C-276.43 233.9 -276.33 232.48 -276.25 231.06 C-275.74 225.51 -274.28 220.44 -272.67 215.11 C-271.12 209.79 -269.86 204.4 -268.59 199 C-267.55 195.25 -266.13 191.87 -264.56 188.31 C-263.89 186.34 -263.25 184.36 -262.62 182.38 C-261.23 178.12 -259.65 174.23 -257.55 170.29 C-256.46 168.11 -255.61 165.9 -254.75 163.62 C-252.22 157.23 -248.97 151.28 -245.56 145.31 C-245.13 144.56 -244.71 143.81 -244.26 143.04 C-238.08 132.27 -231.49 122.1 -223.86 112.3 C-221.62 109.58 -221.62 109.58 -220.56 107.31 C-219.9 107.31 -219.24 107.31 -218.56 107.31 C-218.29 106.74 -218.03 106.17 -217.75 105.58 C-216.52 103.23 -215.14 101.19 -213.56 99.06 C-213.05 98.36 -212.53 97.65 -212 96.92 C-211.53 96.39 -211.05 95.86 -210.56 95.31 C-209.9 95.31 -209.24 95.31 -208.56 95.31 C-208.07 93.83 -208.07 93.83 -207.56 92.31 C-206.9 92.31 -206.24 92.31 -205.56 92.31 C-205.56 91.65 -205.56 90.99 -205.56 90.31 C-204.9 90.31 -204.24 90.31 -203.56 90.31 C-203.33 89.75 -203.09 89.19 -202.84 88.61 C-201.27 85.79 -199.35 83.83 -197.06 81.56 C-195.87 80.36 -195.87 80.36 -194.66 79.14 C-192.56 77.31 -192.56 77.31 -190.56 77.31 C-190.56 76.65 -190.56 75.99 -190.56 75.31 C-189.9 75.31 -189.24 75.31 -188.56 75.31 C-188.07 73.83 -188.07 73.83 -187.56 72.31 C-186.9 72.31 -186.24 72.31 -185.56 72.31 C-185.56 71.65 -185.56 70.99 -185.56 70.31 C-183.45 68.37 -183.45 68.37 -180.69 66.19 C-179.33 65.1 -179.33 65.1 -177.95 63.99 C-175.56 62.31 -175.56 62.31 -173.56 62.31 C-173.56 61.65 -173.56 60.99 -173.56 60.31 C-172.57 60.31 -171.58 60.31 -170.56 60.31 C-170.56 59.65 -170.56 58.99 -170.56 58.31 C-169.21 57.07 -169.21 57.07 -167.29 55.66 C-166.22 54.87 -166.22 54.87 -165.13 54.07 C-164.34 53.51 -163.56 52.95 -162.75 52.38 C-161.54 51.51 -161.54 51.51 -160.3 50.62 C-151.72 44.57 -142.75 39.35 -133.56 34.31 C-132.8 33.89 -132.04 33.47 -131.25 33.03 C-123.66 28.83 -116.22 24.88 -107.96 22.14 C-105.6 21.33 -103.39 20.37 -101.12 19.31 C-96.67 17.28 -92.1 15.75 -87.45 14.25 C-85.76 13.7 -84.09 13.14 -82.43 12.54 C-76.32 10.32 -70.03 9.01 -63.68 7.67 C-59.51 6.84 -59.51 6.84 -55.56 5.31 C-54.05 5.13 -52.52 4.99 -51 4.88 C-47.76 4.58 -44.71 4.17 -41.56 3.38 C-28 0.19 -13.86 -0.06 0 0 Z M-40.56 113.69 C-41.42 113.88 -42.28 114.08 -43.17 114.28 C-48.24 115.52 -52.82 117.19 -57.55 119.4 C-59.56 120.31 -59.56 120.31 -62.55 121.3 C-73.7 125.04 -84.45 130.76 -94.03 137.52 C-96.4 139.2 -98.82 140.7 -101.31 142.19 C-102.38 142.89 -103.46 143.59 -104.56 144.31 C-104.56 144.97 -104.56 145.63 -104.56 146.31 C-105.38 146.66 -105.38 146.66 -106.22 147.01 C-109.22 148.68 -111.48 150.79 -114 153.12 C-114.93 153.98 -115.85 154.83 -116.81 155.71 C-121.33 159.99 -125.66 164.42 -129.88 169 C-130.76 169.95 -131.64 170.91 -132.55 171.89 C-134.78 174.04 -134.78 174.04 -134.56 176.31 C-135.22 176.31 -135.88 176.31 -136.56 176.31 C-138.18 178.48 -138.18 178.48 -139.81 181.25 C-141.93 184.69 -144.07 188.04 -146.44 191.31 C-170.43 226.88 -176.88 274.43 -168.87 315.91 C-167.49 322.2 -165.73 328.26 -163.56 334.31 C-163.24 335.3 -162.91 336.29 -162.58 337.31 C-158.59 349.11 -153.72 362.04 -146.56 372.31 C-145.9 372.31 -145.24 372.31 -144.56 372.31 C-144.39 373.19 -144.39 373.19 -144.21 374.09 C-143.52 376.46 -142.64 377.88 -141.16 379.84 C-140.44 380.81 -140.44 380.81 -139.71 381.8 C-139.21 382.46 -138.71 383.13 -138.19 383.81 C-137.44 384.81 -137.44 384.81 -136.69 385.82 C-135.74 387.1 -134.78 388.37 -133.82 389.64 C-132.8 391 -131.81 392.39 -130.84 393.78 C-130.21 394.54 -130.21 394.54 -129.56 395.31 C-128.9 395.31 -128.24 395.31 -127.56 395.31 C-127.07 396.8 -127.07 396.8 -126.56 398.31 C-125.9 398.31 -125.24 398.31 -124.56 398.31 C-124.29 398.91 -124.03 399.51 -123.75 400.12 C-122.56 402.31 -121.47 403.73 -119.56 405.31 C-118.9 405.31 -118.24 405.31 -117.56 405.31 C-117.07 406.8 -117.07 406.8 -116.56 408.31 C-115.9 408.31 -115.24 408.31 -114.56 408.31 C-114.56 408.97 -114.56 409.63 -114.56 410.31 C-112.47 412.11 -110.38 413.78 -108.19 415.44 C-107.58 415.91 -106.98 416.37 -106.36 416.86 C-103.31 419.45 -103.31 419.45 -99.56 420.31 C-99.56 420.97 -99.56 421.63 -99.56 422.31 C-97.43 423.93 -97.43 423.93 -94.69 425.56 C-93.68 426.18 -92.68 426.8 -91.64 427.44 C-90.62 428.06 -89.61 428.68 -88.56 429.31 C-87.69 429.86 -86.82 430.4 -85.92 430.96 C-76.62 436.71 -66.77 440.45 -56.56 444.31 C-55.83 444.6 -55.1 444.89 -54.34 445.19 C-37.36 451.85 -19.81 453.5 -1.72 453.44 C0.37 453.44 2.46 453.44 4.54 453.45 C17.83 454.18 17.83 454.18 30.44 451.31 C31.74 451.19 33.04 451.07 34.38 450.94 C42.58 450.08 50.22 447.57 57.8 444.4 C60.69 443.21 63.62 442.14 66.56 441.06 C74.47 438.05 81.93 434.2 89.44 430.31 C89.44 429.65 89.44 428.99 89.44 428.31 C90.12 428.07 90.8 427.82 91.5 427.56 C95.01 426.07 98.15 424.24 101.44 422.31 C101.44 421.65 101.44 420.99 101.44 420.31 C102.16 420.06 102.89 419.8 103.63 419.54 C110.89 416.36 116.78 410.39 121.67 404.27 C123.44 402.31 123.44 402.31 126.3 399.99 C129.68 397.25 132.21 394.09 134.81 390.62 C135.26 390.04 135.71 389.46 136.18 388.87 C138.65 385.92 138.65 385.92 139.44 382.31 C140.1 382.31 140.76 382.31 141.44 382.31 C143.04 380.13 143.04 380.13 144.56 377.44 C145.37 376.08 145.37 376.08 146.2 374.7 C147.59 372.46 147.59 372.46 147.44 370.31 C148.1 370.31 148.76 370.31 149.44 370.31 C159.11 350.27 159.11 350.27 166.54 329.32 C167.15 327.27 167.81 325.24 168.52 323.23 C169.35 320.59 169.78 318.31 170 315.56 C170.34 311.51 170.34 311.51 171.44 309.31 C172.63 300.71 172.59 292.01 172.57 283.34 C172.56 281.25 172.57 279.16 172.57 277.07 C172.58 267.14 172.41 257.37 170 247.69 C169.6 246.05 169.6 246.05 169.19 244.39 C168.94 243.37 168.69 242.36 168.44 241.31 C167.97 239.08 167.51 236.84 167.06 234.61 C166.1 231.08 164.74 227.72 163.44 224.31 C162.9 222.86 162.36 221.4 161.82 219.95 C158.68 211.55 155.39 203.83 150.44 196.31 C149.8 195.18 149.16 194.04 148.5 192.88 C146.67 189.67 144.76 186.52 142.81 183.38 C142.22 182.42 141.63 181.46 141.02 180.47 C140.5 179.76 139.98 179.05 139.44 178.31 C138.78 178.31 138.12 178.31 137.44 178.31 C137.11 176.99 136.78 175.67 136.44 174.31 C135.78 174.31 135.12 174.31 134.44 174.31 C134.04 173.45 134.04 173.45 133.62 172.56 C132.41 170.26 131.13 168.29 129.44 166.31 C128.78 166.31 128.12 166.31 127.44 166.31 C127.13 165.51 127.13 165.51 126.81 164.69 C124.9 161.39 122.39 158.72 119.44 156.31 C118.78 156.31 118.12 156.31 117.44 156.31 C117.11 155.32 116.78 154.33 116.44 153.31 C115.78 153.31 115.12 153.31 114.44 153.31 C114.44 152.65 114.44 151.99 114.44 151.31 C112.45 149.62 110.46 148.05 108.38 146.5 C107.48 145.83 107.48 145.83 106.57 145.14 C105.39 144.26 104.21 143.38 103.03 142.5 C101.72 141.52 100.42 140.53 99.12 139.54 C95.67 136.89 95.67 136.89 91.44 136.31 C91.44 135.65 91.44 134.99 91.44 134.31 C90.57 133.88 89.69 133.44 88.8 132.99 C88.23 132.71 87.66 132.42 87.07 132.13 C85.8 131.49 84.53 130.86 83.26 130.23 C80.27 128.74 77.29 127.23 74.33 125.69 C62.32 119.45 50.25 115.83 37.08 113.11 C33.44 112.31 33.44 112.31 31.44 111.31 C7.55 107.34 -17.02 108.28 -40.56 113.69 Z " fill="#ece0da" transform="translate(892.5625,611.6875)"/>
</svg>
